<svg id="svg" version="1.1" xmlns="http://www.w3.org/2000/svg" width="400"
     height="56" viewBox="0, 0, 400,56">
    <g id="svgg">
        <path id="path0"
              d="M36.340 1.063 C 36.234 1.383,36.093 1.669,36.025 1.698 C 35.957 1.726,35.727 2.162,35.513 2.667 C 35.300 3.171,35.074 3.621,35.012 3.667 C 34.950 3.712,34.725 4.162,34.512 4.667 C 34.299 5.171,34.074 5.621,34.012 5.667 C 33.950 5.712,33.725 6.162,33.512 6.667 C 33.299 7.171,33.074 7.621,33.012 7.667 C 32.950 7.712,32.725 8.162,32.512 8.667 C 32.299 9.171,32.074 9.621,32.012 9.667 C 31.950 9.712,31.725 10.162,31.512 10.667 C 31.299 11.171,31.074 11.621,31.012 11.667 C 30.950 11.713,30.725 12.162,30.512 12.667 C 30.299 13.171,30.074 13.621,30.012 13.667 C 29.950 13.713,29.725 14.162,29.512 14.667 C 29.299 15.171,29.074 15.621,29.012 15.667 C 28.950 15.713,28.725 16.162,28.512 16.667 C 28.299 17.171,28.074 17.621,28.012 17.667 C 27.950 17.712,27.725 18.162,27.512 18.667 C 27.299 19.171,27.074 19.621,27.012 19.667 C 26.950 19.712,26.725 20.162,26.512 20.667 C 26.299 21.171,26.074 21.621,26.012 21.667 C 25.950 21.712,25.725 22.162,25.512 22.667 C 25.299 23.171,25.074 23.621,25.012 23.667 C 24.950 23.712,24.725 24.162,24.512 24.667 C 24.299 25.171,24.074 25.621,24.012 25.667 C 23.950 25.712,23.725 26.162,23.512 26.667 C 23.299 27.171,23.074 27.621,23.012 27.667 C 22.950 27.712,22.725 28.162,22.512 28.667 C 22.299 29.171,22.072 29.621,22.008 29.667 C 21.944 29.712,21.714 30.181,21.498 30.708 C 21.282 31.235,21.059 31.667,21.003 31.667 C 20.946 31.667,20.804 31.932,20.687 32.256 L 20.474 32.845 20.185 32.464 C 20.025 32.255,19.722 31.671,19.510 31.167 C 19.298 30.662,19.074 30.212,19.012 30.167 C 18.950 30.121,18.725 29.671,18.512 29.167 C 18.299 28.662,18.072 28.212,18.008 28.167 C 17.944 28.121,17.714 27.652,17.498 27.125 C 17.282 26.598,17.044 26.167,16.969 26.167 C 16.895 26.167,16.833 26.069,16.833 25.949 C 16.833 24.863,15.998 25.082,15.499 26.299 C 15.284 26.822,15.056 27.287,14.992 27.333 C 14.928 27.379,14.701 27.829,14.488 28.333 C 14.275 28.837,14.050 29.287,13.988 29.333 C 13.926 29.379,13.701 29.829,13.488 30.333 C 13.275 30.837,13.050 31.287,12.988 31.333 C 12.926 31.379,12.701 31.829,12.488 32.333 C 12.275 32.837,12.050 33.287,11.988 33.333 C 11.926 33.379,11.701 33.829,11.488 34.333 C 11.275 34.837,11.050 35.287,10.988 35.333 C 10.926 35.379,10.701 35.829,10.488 36.333 C 10.275 36.837,10.050 37.287,9.988 37.333 C 9.926 37.379,9.701 37.829,9.488 38.333 C 9.275 38.837,9.050 39.287,8.988 39.333 C 8.926 39.379,8.701 39.829,8.488 40.333 C 8.275 40.837,8.050 41.287,7.988 41.333 C 7.926 41.379,7.701 41.829,7.488 42.333 C 7.275 42.837,7.050 43.288,6.988 43.333 C 6.926 43.379,6.701 43.829,6.488 44.333 C 6.275 44.837,6.050 45.288,5.988 45.333 C 5.926 45.379,5.701 45.829,5.488 46.333 C 5.275 46.837,5.051 47.288,4.991 47.333 C 4.799 47.479,4.167 49.029,4.167 49.355 C 4.167 49.659,5.032 49.667,37.500 49.667 C 68.160 49.667,70.833 49.645,70.833 49.396 C 70.833 49.247,69.821 47.074,68.583 44.568 C 67.346 42.062,66.333 39.958,66.333 39.894 C 66.333 39.829,66.233 39.658,66.111 39.513 C 65.989 39.368,65.717 38.837,65.507 38.333 C 65.297 37.829,65.074 37.379,65.012 37.333 C 64.950 37.287,64.725 36.837,64.512 36.333 C 64.299 35.829,64.074 35.379,64.012 35.333 C 63.950 35.287,63.725 34.837,63.512 34.333 C 63.299 33.829,63.074 33.379,63.012 33.333 C 62.950 33.287,62.725 32.837,62.512 32.333 C 62.299 31.829,62.074 31.379,62.012 31.333 C 61.950 31.287,61.725 30.837,61.512 30.333 C 61.299 29.829,61.074 29.379,61.012 29.333 C 60.950 29.287,60.725 28.837,60.512 28.333 C 60.299 27.829,60.074 27.379,60.012 27.333 C 59.950 27.287,59.725 26.837,59.512 26.333 C 59.299 25.829,59.074 25.379,59.012 25.333 C 58.950 25.287,58.725 24.837,58.512 24.333 C 58.299 23.829,58.074 23.379,58.012 23.333 C 57.950 23.287,57.725 22.837,57.512 22.333 C 57.299 21.829,57.072 21.379,57.008 21.333 C 56.944 21.287,56.714 20.819,56.498 20.292 C 56.282 19.765,56.044 19.333,55.969 19.333 C 55.895 19.333,55.833 19.255,55.833 19.158 C 55.833 18.863,53.318 13.833,53.171 13.833 C 53.094 13.833,51.994 15.930,50.724 18.494 C 49.455 21.057,48.370 23.157,48.313 23.160 C 48.188 23.168,45.167 17.109,45.167 16.850 C 45.167 16.749,45.105 16.667,45.031 16.667 C 44.956 16.667,44.718 16.235,44.502 15.708 C 44.286 15.181,44.056 14.713,43.992 14.667 C 43.928 14.621,43.701 14.171,43.488 13.667 C 43.275 13.162,43.050 12.713,42.988 12.667 C 42.926 12.621,42.701 12.171,42.488 11.667 C 42.275 11.162,42.050 10.713,41.988 10.667 C 41.926 10.621,41.701 10.171,41.488 9.667 C 41.275 9.162,41.050 8.712,40.988 8.667 C 40.926 8.621,40.701 8.171,40.488 7.667 C 40.275 7.162,40.050 6.712,39.988 6.667 C 39.926 6.621,39.701 6.171,39.488 5.667 C 39.275 5.162,39.059 4.712,39.007 4.667 C 38.955 4.621,38.727 4.171,38.500 3.667 C 38.273 3.163,38.046 2.712,37.996 2.667 C 37.946 2.621,37.705 2.133,37.461 1.583 C 36.934 0.398,36.609 0.248,36.340 1.063 M228.667 22.417 L 228.667 43.333 231.000 43.333 L 233.333 43.333 233.333 22.417 L 233.333 1.500 231.000 1.500 L 228.667 1.500 228.667 22.417 M336.833 22.417 L 336.833 43.333 339.167 43.333 L 341.500 43.333 341.501 35.208 C 341.503 27.508,341.634 24.515,342.000 23.869 C 342.089 23.712,342.312 23.136,342.497 22.590 C 342.682 22.044,342.945 21.534,343.083 21.457 C 343.221 21.380,343.333 21.224,343.333 21.110 C 343.333 20.891,344.841 19.333,345.054 19.333 C 345.123 19.333,345.383 19.185,345.632 19.004 C 346.609 18.292,349.122 17.989,351.094 18.345 C 352.070 18.521,354.333 19.696,354.333 20.027 C 354.333 20.112,354.511 20.359,354.728 20.577 C 354.945 20.794,355.298 21.409,355.512 21.944 C 355.726 22.479,355.954 22.992,356.019 23.083 C 356.407 23.636,356.500 25.795,356.500 34.281 L 356.500 43.333 359.000 43.333 L 361.500 43.333 361.500 33.824 C 361.500 24.847,361.393 22.254,361.003 21.750 C 360.932 21.658,360.745 21.133,360.589 20.583 C 360.432 20.033,360.207 19.471,360.088 19.333 C 359.970 19.196,359.741 18.821,359.579 18.500 C 359.076 17.504,357.460 15.866,356.500 15.379 C 356.179 15.217,355.879 15.038,355.833 14.983 C 355.659 14.774,355.050 14.536,354.167 14.334 C 353.662 14.218,353.145 14.039,353.016 13.937 C 352.674 13.664,347.917 13.683,347.642 13.958 C 347.527 14.073,347.311 14.167,347.161 14.167 C 346.702 14.167,344.801 14.842,344.548 15.095 C 344.417 15.226,344.219 15.333,344.109 15.333 C 343.872 15.333,342.839 16.172,342.054 17.000 L 341.502 17.583 341.501 9.542 L 341.500 1.500 339.167 1.500 L 336.833 1.500 336.833 22.417 M96.851 2.873 C 96.772 3.080,96.570 3.700,96.400 4.250 C 96.231 4.800,96.045 5.287,95.986 5.333 C 95.928 5.379,95.705 6.017,95.492 6.750 C 95.278 7.483,95.050 8.121,94.985 8.167 C 94.920 8.212,94.699 8.813,94.494 9.500 C 94.289 10.188,94.063 10.825,93.993 10.917 C 93.923 11.008,93.697 11.646,93.490 12.333 C 93.284 13.021,93.068 13.621,93.010 13.667 C 92.953 13.713,92.723 14.350,92.500 15.083 C 92.277 15.817,92.050 16.454,91.995 16.500 C 91.878 16.599,91.167 18.843,91.167 19.116 C 91.167 19.220,91.097 19.331,91.012 19.361 C 90.927 19.392,90.684 20.017,90.473 20.750 C 90.262 21.483,90.039 22.121,89.978 22.167 C 89.917 22.212,89.698 22.813,89.491 23.500 C 89.283 24.188,89.023 24.900,88.913 25.083 C 88.802 25.267,88.581 25.904,88.420 26.500 C 88.259 27.096,88.070 27.621,87.999 27.667 C 87.929 27.712,87.704 28.313,87.501 29.000 C 87.298 29.688,87.073 30.325,87.000 30.417 C 86.927 30.508,86.703 31.141,86.501 31.822 C 86.299 32.504,86.039 33.216,85.923 33.405 C 85.807 33.595,85.581 34.237,85.421 34.833 C 85.262 35.429,85.065 35.997,84.986 36.096 C 84.906 36.195,84.681 36.795,84.486 37.430 C 84.291 38.064,84.072 38.658,83.998 38.750 C 83.925 38.842,83.736 39.367,83.579 39.917 C 83.423 40.467,83.151 41.235,82.976 41.625 C 82.801 42.015,82.613 42.558,82.558 42.833 L 82.458 43.333 86.625 43.333 C 91.392 43.333,90.973 43.484,91.501 41.583 C 91.705 40.850,91.930 40.212,92.000 40.167 C 92.070 40.121,92.295 39.483,92.500 38.750 C 92.705 38.017,92.922 37.379,92.983 37.333 C 93.044 37.287,93.278 36.650,93.502 35.917 C 93.726 35.183,93.999 34.490,94.109 34.375 C 94.265 34.213,96.412 34.167,103.731 34.167 L 113.153 34.167 113.512 35.375 C 113.709 36.040,113.924 36.621,113.989 36.667 C 114.054 36.712,114.241 37.237,114.405 37.833 C 114.568 38.429,114.836 39.217,115.000 39.583 C 115.164 39.950,115.432 40.737,115.595 41.333 C 115.759 41.929,115.946 42.454,116.010 42.500 C 116.075 42.546,116.157 42.733,116.191 42.917 C 116.272 43.343,124.667 43.541,124.667 43.116 C 124.667 42.829,124.145 41.276,124.012 41.167 C 123.956 41.121,123.738 40.483,123.527 39.750 C 123.316 39.017,123.073 38.392,122.988 38.361 C 122.903 38.331,122.833 38.220,122.833 38.116 C 122.833 37.843,122.122 35.599,122.005 35.500 C 121.950 35.454,121.723 34.817,121.500 34.083 C 121.277 33.350,121.047 32.712,120.990 32.667 C 120.932 32.621,120.716 32.021,120.510 31.333 C 120.303 30.646,120.077 30.008,120.007 29.917 C 119.937 29.825,119.711 29.188,119.506 28.500 C 119.301 27.813,119.080 27.212,119.015 27.167 C 118.950 27.121,118.722 26.483,118.508 25.750 C 118.295 25.017,118.071 24.379,118.013 24.333 C 117.954 24.287,117.723 23.650,117.500 22.917 C 117.277 22.183,117.053 21.546,117.003 21.500 C 116.953 21.454,116.735 20.854,116.520 20.167 C 116.304 19.479,116.071 18.842,116.002 18.750 C 115.933 18.658,115.707 18.021,115.500 17.333 C 115.293 16.646,115.065 16.008,114.994 15.917 C 114.924 15.825,114.697 15.188,114.490 14.500 C 114.284 13.813,114.066 13.213,114.006 13.167 C 113.946 13.121,113.723 12.521,113.511 11.833 C 113.299 11.146,113.072 10.508,113.007 10.417 C 112.942 10.325,112.717 9.688,112.507 9.000 C 112.297 8.313,112.067 7.675,111.995 7.583 C 111.923 7.492,111.737 6.967,111.581 6.417 C 111.425 5.867,111.194 5.192,111.067 4.917 C 110.941 4.642,110.699 4.004,110.528 3.500 L 110.218 2.583 103.606 2.540 L 96.993 2.496 96.851 2.873 M104.600 9.958 C 104.658 10.210,104.802 10.570,104.918 10.758 C 105.035 10.946,105.297 11.696,105.501 12.425 C 105.705 13.154,105.924 13.787,105.988 13.833 C 106.051 13.879,106.278 14.517,106.492 15.250 C 106.705 15.983,106.930 16.621,106.991 16.667 C 107.051 16.712,107.273 17.350,107.483 18.083 C 107.694 18.817,107.919 19.454,107.983 19.500 C 108.048 19.546,108.273 20.183,108.483 20.917 C 108.693 21.650,108.923 22.325,108.994 22.417 C 109.066 22.508,109.298 23.183,109.511 23.917 C 109.723 24.650,109.947 25.287,110.009 25.333 C 110.071 25.379,110.236 25.810,110.376 26.292 L 110.630 27.167 103.630 27.167 L 96.630 27.167 96.747 26.542 C 96.811 26.199,96.924 25.880,96.998 25.834 C 97.072 25.788,97.301 25.188,97.506 24.500 C 97.711 23.813,97.934 23.175,98.000 23.083 C 98.066 22.992,98.288 22.354,98.493 21.667 C 98.698 20.979,98.928 20.340,99.005 20.246 C 99.082 20.153,99.297 19.526,99.483 18.854 C 99.669 18.181,99.893 17.545,99.979 17.441 C 100.065 17.336,100.307 16.650,100.517 15.917 C 100.727 15.183,100.945 14.546,101.001 14.500 C 101.124 14.400,101.833 12.159,101.833 11.870 C 101.833 11.758,101.897 11.667,101.975 11.667 C 102.053 11.667,102.249 11.179,102.410 10.583 L 102.704 9.500 103.599 9.500 C 104.438 9.500,104.500 9.528,104.600 9.958 M142.500 13.770 C 142.179 13.810,141.767 13.908,141.583 13.987 C 141.400 14.065,140.779 14.263,140.203 14.426 C 139.627 14.589,138.918 14.898,138.629 15.111 C 138.339 15.325,138.019 15.500,137.919 15.500 C 137.818 15.500,137.289 15.914,136.743 16.419 L 135.750 17.338 135.616 16.294 C 135.542 15.720,135.445 15.006,135.400 14.708 L 135.318 14.167 131.826 14.167 L 128.333 14.167 128.333 34.500 L 128.333 54.833 132.250 54.833 L 136.167 54.833 136.172 47.708 C 136.176 41.853,136.216 40.634,136.392 40.866 C 138.010 42.994,143.186 44.214,147.486 43.479 C 151.603 42.776,155.602 38.871,156.680 34.500 C 156.804 33.996,156.957 33.546,157.019 33.500 C 157.595 33.075,157.593 24.609,157.017 24.167 C 156.957 24.121,156.764 23.493,156.588 22.770 C 156.411 22.048,156.180 21.370,156.074 21.264 C 155.968 21.158,155.779 20.789,155.654 20.445 C 155.530 20.100,155.310 19.691,155.167 19.534 C 155.023 19.378,154.742 18.982,154.541 18.655 C 154.239 18.161,152.887 16.803,151.833 15.933 C 151.272 15.469,149.685 14.691,148.748 14.420 C 148.199 14.261,147.612 14.059,147.443 13.971 C 147.111 13.799,143.454 13.650,142.500 13.770 M176.875 13.777 C 176.485 13.819,176.167 13.923,176.167 14.010 C 176.167 14.096,176.025 14.167,175.851 14.167 C 175.426 14.167,173.373 14.807,173.305 14.961 C 173.275 15.028,172.920 15.263,172.517 15.483 C 171.791 15.879,171.601 16.017,170.779 16.751 C 170.257 17.218,170.167 17.141,170.167 16.232 C 170.167 15.840,170.092 15.473,170.000 15.417 C 169.908 15.360,169.833 15.056,169.833 14.740 L 169.833 14.167 166.250 14.167 L 162.667 14.167 162.667 34.500 L 162.667 54.833 166.582 54.833 L 170.496 54.833 170.540 47.718 L 170.583 40.604 171.189 41.135 C 171.522 41.427,171.854 41.667,171.928 41.667 C 172.002 41.667,172.217 41.803,172.406 41.969 C 172.595 42.136,173.088 42.415,173.500 42.590 C 173.912 42.764,174.293 42.967,174.345 43.039 C 174.912 43.831,183.098 43.829,183.655 43.037 C 183.707 42.963,184.087 42.794,184.498 42.662 C 184.910 42.529,185.362 42.307,185.503 42.169 C 185.645 42.030,185.958 41.813,186.200 41.687 C 187.739 40.885,189.539 38.506,190.950 35.412 C 191.365 34.500,191.659 32.947,191.770 31.083 C 191.830 30.075,191.949 29.161,192.034 29.052 C 192.132 28.928,192.123 28.730,192.012 28.522 C 191.914 28.338,191.833 27.677,191.833 27.053 C 191.833 26.074,191.605 24.459,191.231 22.792 C 191.174 22.540,191.062 22.333,190.981 22.333 C 190.900 22.333,190.833 22.227,190.833 22.097 C 190.833 21.821,190.199 20.297,190.031 20.170 C 189.968 20.122,189.735 19.746,189.512 19.333 C 188.449 17.362,185.285 14.942,183.015 14.363 C 182.411 14.209,181.872 14.023,181.818 13.949 C 181.705 13.795,177.935 13.664,176.875 13.777 M207.417 13.771 C 207.050 13.810,206.600 13.905,206.417 13.982 C 206.233 14.059,205.484 14.288,204.752 14.491 C 204.020 14.693,203.382 14.909,203.335 14.971 C 203.288 15.033,202.925 15.257,202.529 15.470 C 200.813 16.393,198.557 18.885,198.240 20.208 C 198.180 20.460,198.076 20.667,198.008 20.667 C 197.845 20.667,197.461 21.969,197.571 22.147 C 197.619 22.224,198.016 22.384,198.454 22.502 C 198.892 22.619,199.578 22.861,199.980 23.039 C 201.545 23.731,201.723 23.683,202.323 22.412 C 202.929 21.131,204.082 19.823,204.976 19.403 C 205.310 19.246,205.624 19.056,205.673 18.981 C 206.090 18.347,211.212 18.123,212.417 18.687 C 213.175 19.042,214.401 19.855,214.545 20.099 C 214.616 20.219,214.788 20.430,214.926 20.569 C 215.443 21.086,215.717 22.093,215.796 23.769 L 215.875 25.455 215.313 25.554 C 215.003 25.609,214.019 25.704,213.125 25.766 C 212.231 25.828,211.500 25.930,211.500 25.992 C 211.500 26.054,210.394 26.198,209.042 26.310 C 206.211 26.546,204.559 26.773,204.083 26.993 C 203.900 27.077,203.316 27.266,202.786 27.413 C 200.638 28.007,198.116 29.930,197.421 31.505 C 197.240 31.915,197.043 32.287,196.981 32.333 C 196.363 32.797,196.362 38.833,196.980 38.833 C 197.046 38.833,197.200 39.115,197.322 39.458 C 197.626 40.315,199.657 42.240,200.650 42.612 C 201.072 42.770,201.454 42.944,201.500 42.998 C 201.948 43.528,207.327 43.876,209.422 43.511 C 211.880 43.083,214.260 41.506,215.478 39.500 L 215.832 38.917 215.833 39.532 C 215.833 39.870,215.908 40.193,216.000 40.250 C 216.092 40.307,216.167 41.024,216.167 41.843 L 216.167 43.333 218.340 43.333 L 220.513 43.333 220.465 32.042 C 220.417 20.915,220.411 20.739,220.062 20.000 C 219.866 19.587,219.659 19.093,219.600 18.901 C 219.303 17.925,216.898 15.440,216.044 15.225 C 215.836 15.173,215.667 15.067,215.667 14.989 C 215.667 14.817,213.620 14.167,213.080 14.167 C 212.868 14.167,212.669 14.089,212.637 13.994 C 212.577 13.813,208.607 13.643,207.417 13.771 M250.919 13.779 C 250.553 13.822,250.216 13.911,250.169 13.976 C 250.122 14.041,249.596 14.192,249.000 14.311 C 247.775 14.557,245.549 15.601,245.312 16.042 C 245.225 16.202,245.071 16.333,244.968 16.333 C 244.710 16.333,243.167 17.868,243.167 18.125 C 243.167 18.240,243.093 18.333,243.003 18.333 C 242.914 18.333,242.679 18.652,242.481 19.042 C 242.283 19.431,242.065 19.787,241.995 19.833 C 241.820 19.948,241.154 22.012,241.245 22.158 C 241.285 22.223,241.790 22.416,242.367 22.588 C 242.944 22.760,243.454 22.947,243.500 23.004 C 243.903 23.505,245.667 23.555,245.667 23.065 C 245.667 22.912,245.892 22.421,246.167 21.974 C 246.442 21.527,246.667 21.125,246.667 21.081 C 246.667 20.975,247.975 19.667,248.081 19.667 C 248.125 19.667,248.519 19.450,248.956 19.184 C 250.639 18.163,256.311 18.017,256.634 18.987 C 256.667 19.086,256.766 19.167,256.854 19.167 C 257.315 19.167,258.364 20.136,258.704 20.875 C 258.820 21.127,258.962 21.333,259.021 21.333 C 259.239 21.333,259.500 22.859,259.500 24.136 L 259.500 25.457 258.875 25.555 C 258.531 25.609,257.556 25.704,256.708 25.767 C 255.860 25.830,255.167 25.932,255.167 25.994 C 255.167 26.056,254.023 26.200,252.625 26.315 C 249.778 26.547,247.792 26.814,247.667 26.982 C 247.621 27.044,247.171 27.196,246.667 27.320 C 244.753 27.791,241.821 29.823,241.324 31.023 C 241.215 31.285,241.067 31.500,240.995 31.500 C 239.910 31.500,239.986 38.756,241.081 39.665 C 241.220 39.780,241.333 39.965,241.333 40.077 C 241.333 40.455,243.514 42.311,244.307 42.609 C 244.734 42.769,245.121 42.951,245.167 43.015 C 245.751 43.821,254.274 43.837,254.822 43.033 C 254.874 42.956,255.254 42.761,255.667 42.598 C 256.079 42.436,256.529 42.205,256.667 42.085 C 257.397 41.449,258.792 40.012,259.081 39.598 L 259.411 39.125 259.522 39.521 C 259.583 39.739,259.642 40.517,259.652 41.250 C 259.684 43.484,259.506 43.333,262.116 43.333 L 264.360 43.333 264.305 32.389 C 264.262 23.821,264.205 21.429,264.042 21.375 C 263.927 21.337,263.833 21.139,263.833 20.935 C 263.833 20.430,263.170 18.500,262.996 18.500 C 262.919 18.500,262.803 18.331,262.740 18.125 C 262.595 17.657,260.256 15.333,259.930 15.333 C 259.798 15.333,259.583 15.226,259.452 15.095 C 259.177 14.819,257.281 14.167,256.756 14.167 C 256.560 14.167,256.319 14.086,256.220 13.987 C 256.029 13.796,252.074 13.641,250.919 13.779 M283.583 13.769 C 283.308 13.811,282.933 13.908,282.750 13.985 C 282.567 14.062,281.967 14.254,281.417 14.412 C 280.135 14.780,278.971 15.511,277.900 16.620 C 276.723 17.838,276.667 17.802,276.667 15.833 L 276.667 14.167 274.500 14.167 L 272.333 14.167 272.333 28.750 L 272.333 43.333 274.583 43.333 L 276.833 43.333 276.833 35.010 C 276.833 29.641,276.892 26.650,277.000 26.583 C 277.092 26.527,277.167 26.181,277.167 25.815 C 277.167 22.697,279.241 19.538,281.923 18.573 C 283.698 17.934,288.065 18.286,288.550 19.107 C 288.623 19.232,288.777 19.333,288.891 19.333 C 289.132 19.333,290.146 20.452,290.768 21.403 C 291.262 22.159,291.833 24.231,291.833 25.267 C 291.833 25.659,291.908 26.027,292.000 26.083 C 292.108 26.150,292.167 29.224,292.167 34.760 L 292.167 43.333 294.417 43.333 L 296.667 43.333 296.667 33.688 C 296.667 24.141,296.542 21.643,296.028 20.926 C 295.958 20.829,295.721 20.300,295.501 19.750 C 295.281 19.200,294.966 18.605,294.800 18.427 C 294.635 18.249,294.500 18.031,294.500 17.942 C 294.500 17.254,291.261 14.850,289.750 14.417 C 289.200 14.259,288.612 14.059,288.443 13.971 C 288.112 13.799,284.403 13.645,283.583 13.769 M315.000 13.770 C 314.679 13.810,314.267 13.912,314.083 13.995 C 313.900 14.079,313.341 14.229,312.841 14.329 C 311.856 14.526,309.167 15.758,309.167 16.011 C 309.167 16.097,309.073 16.167,308.958 16.168 C 308.704 16.170,306.912 17.685,306.435 18.303 C 306.244 18.549,305.962 18.889,305.807 19.059 C 305.653 19.229,305.436 19.585,305.326 19.851 C 305.216 20.116,305.069 20.333,305.000 20.333 C 304.931 20.333,304.701 20.802,304.489 21.375 C 304.278 21.948,304.054 22.454,303.991 22.500 C 303.794 22.645,303.316 24.812,303.215 26.017 C 303.161 26.655,303.053 27.217,302.975 27.265 C 302.790 27.380,302.790 30.287,302.976 30.402 C 303.054 30.450,303.162 31.036,303.216 31.703 C 303.324 33.052,303.810 35.167,304.011 35.167 C 304.082 35.167,304.188 35.385,304.247 35.652 C 304.350 36.120,305.486 38.153,305.932 38.667 C 306.946 39.834,307.762 40.667,307.892 40.667 C 307.978 40.667,308.206 40.823,308.399 41.013 C 308.983 41.590,310.201 42.311,311.083 42.602 C 311.542 42.754,312.002 42.944,312.106 43.026 C 313.148 43.848,322.184 43.818,322.472 42.993 C 322.503 42.905,322.624 42.833,322.743 42.833 C 322.984 42.833,324.537 42.175,324.667 42.018 C 324.713 41.962,325.059 41.752,325.435 41.551 C 326.353 41.059,328.328 39.337,328.336 39.022 C 328.337 38.964,328.556 38.670,328.822 38.368 C 329.088 38.066,329.443 37.485,329.611 37.077 C 329.779 36.669,329.973 36.334,330.042 36.334 C 330.732 36.331,330.008 35.693,329.000 35.417 C 328.358 35.241,327.833 35.047,327.833 34.985 C 327.833 34.857,326.511 34.500,326.036 34.500 C 325.853 34.500,325.632 34.693,325.512 34.958 C 325.397 35.210,325.179 35.556,325.027 35.727 C 324.415 36.413,323.075 37.665,322.952 37.666 C 322.879 37.666,322.617 37.812,322.368 37.990 C 322.120 38.168,321.504 38.438,321.000 38.589 C 320.496 38.740,319.903 38.950,319.683 39.057 C 319.139 39.319,315.507 39.312,314.984 39.048 C 314.763 38.936,314.157 38.700,313.635 38.522 C 312.517 38.141,312.455 38.097,310.921 36.578 C 308.902 34.580,308.175 32.553,308.170 28.906 C 308.166 26.530,308.563 24.056,309.011 23.667 C 309.063 23.621,309.278 23.225,309.487 22.786 C 310.159 21.380,311.337 20.168,312.719 19.459 C 313.103 19.262,313.454 19.050,313.500 18.987 C 314.091 18.178,320.846 18.195,321.500 19.007 C 321.546 19.064,321.924 19.278,322.340 19.484 C 323.593 20.103,325.166 21.737,325.509 22.777 C 325.686 23.312,326.340 23.440,326.667 23.004 C 326.712 22.943,327.237 22.759,327.833 22.597 C 328.689 22.363,329.800 21.952,330.124 21.749 C 330.209 21.696,329.139 19.615,328.908 19.384 C 328.775 19.251,328.667 19.070,328.667 18.980 C 328.667 18.720,326.260 16.385,325.862 16.259 C 325.663 16.196,325.500 16.087,325.500 16.017 C 325.500 15.947,325.106 15.710,324.625 15.489 C 324.144 15.268,323.712 15.041,323.667 14.985 C 323.547 14.838,322.034 14.370,321.250 14.236 C 320.883 14.174,320.496 14.054,320.389 13.970 C 320.181 13.805,315.963 13.648,315.000 13.770 M379.585 13.779 C 379.220 13.822,378.845 13.918,378.752 13.991 C 378.659 14.064,378.286 14.177,377.922 14.243 C 377.147 14.383,375.787 14.826,375.667 14.978 C 375.621 15.036,375.291 15.219,374.934 15.384 C 373.345 16.120,370.857 18.422,370.306 19.669 C 370.184 19.943,370.032 20.167,369.967 20.167 C 369.729 20.167,368.655 22.699,368.394 23.875 C 368.246 24.540,368.041 25.263,367.938 25.484 C 367.706 25.978,367.697 31.473,367.928 31.637 C 368.016 31.699,368.209 32.354,368.358 33.092 C 368.847 35.516,370.362 38.230,372.167 39.915 C 373.510 41.169,373.913 41.492,374.361 41.678 C 374.621 41.786,374.833 41.934,374.833 42.008 C 374.833 42.082,375.264 42.304,375.790 42.501 C 376.316 42.697,376.832 42.930,376.937 43.017 C 378.017 43.913,385.502 43.851,387.250 42.932 C 387.525 42.787,387.853 42.668,387.979 42.668 C 388.336 42.666,390.681 41.324,390.780 41.065 C 390.829 40.938,390.962 40.833,391.076 40.833 C 391.423 40.833,393.667 38.416,393.667 38.041 C 393.667 37.955,393.805 37.760,393.974 37.607 C 394.366 37.252,394.777 36.039,394.570 35.849 C 394.486 35.771,394.004 35.575,393.500 35.413 C 392.996 35.250,392.546 35.066,392.500 35.002 C 392.353 34.798,390.884 34.365,390.714 34.476 C 390.624 34.535,390.454 34.766,390.336 34.990 C 389.865 35.882,388.423 37.422,387.827 37.669 C 387.555 37.782,387.333 37.930,387.333 37.999 C 387.333 38.068,386.790 38.291,386.125 38.495 C 385.460 38.698,384.737 38.952,384.516 39.057 C 384.002 39.305,379.703 39.321,379.536 39.075 C 379.470 38.979,379.079 38.804,378.667 38.687 C 377.222 38.276,375.214 36.631,374.489 35.264 C 374.266 34.844,374.034 34.500,373.972 34.500 C 373.823 34.500,373.370 33.095,373.233 32.205 C 373.172 31.813,373.058 31.452,372.978 31.403 C 372.898 31.354,372.833 31.131,372.833 30.907 L 372.833 30.500 384.098 30.500 L 395.363 30.500 395.306 27.125 C 395.268 24.912,395.180 23.635,395.050 23.417 C 394.941 23.233,394.691 22.558,394.494 21.917 C 394.297 21.275,394.078 20.713,394.007 20.667 C 393.936 20.621,393.717 20.265,393.519 19.875 C 393.321 19.485,393.086 19.167,392.997 19.167 C 392.907 19.167,392.833 19.066,392.833 18.942 C 392.833 18.675,391.035 16.888,390.064 16.190 C 388.618 15.151,386.225 14.167,385.146 14.167 C 384.989 14.167,384.835 14.089,384.804 13.994 C 384.742 13.809,380.723 13.642,379.585 13.779 M384.323 18.606 C 384.924 18.756,385.454 18.928,385.500 18.990 C 385.546 19.051,385.897 19.262,386.281 19.459 C 386.973 19.814,387.690 20.353,388.108 20.833 C 388.228 20.971,388.503 21.281,388.719 21.522 C 388.935 21.763,389.280 22.401,389.486 22.939 C 389.692 23.476,389.922 24.036,389.998 24.182 C 390.074 24.327,390.189 24.871,390.254 25.390 L 390.372 26.333 381.582 26.333 C 374.576 26.333,372.825 26.291,372.952 26.125 C 373.040 26.010,373.205 25.467,373.320 24.917 C 373.435 24.367,373.785 23.480,374.098 22.946 C 374.411 22.413,374.667 21.935,374.667 21.885 C 374.667 21.660,376.669 19.856,377.448 19.379 C 379.169 18.325,381.941 18.013,384.323 18.606 M143.738 20.981 C 143.789 21.062,144.109 21.181,144.451 21.245 C 146.211 21.576,148.203 23.718,148.647 25.761 C 148.766 26.305,148.931 26.880,149.015 27.039 C 149.224 27.438,149.211 30.500,149.000 30.500 C 148.908 30.500,148.833 30.685,148.833 30.911 C 148.833 32.394,146.900 35.359,145.680 35.746 C 145.489 35.806,145.333 35.916,145.333 35.990 C 145.333 36.844,140.552 36.694,139.603 35.810 C 139.420 35.639,139.204 35.500,139.122 35.500 C 138.929 35.500,137.500 34.071,137.500 33.878 C 137.500 33.796,137.347 33.565,137.160 33.364 C 135.930 32.045,135.827 26.085,137.005 24.465 C 137.186 24.217,137.333 23.968,137.333 23.912 C 137.333 23.312,139.376 21.642,140.500 21.323 C 140.912 21.206,141.321 21.048,141.408 20.972 C 141.621 20.786,143.623 20.794,143.738 20.981 M178.333 21.000 C 178.333 21.092,178.477 21.167,178.653 21.167 C 182.990 21.167,185.393 30.797,181.922 34.269 C 181.786 34.405,181.579 34.647,181.462 34.807 C 181.345 34.968,180.950 35.279,180.583 35.499 C 180.217 35.719,179.873 35.961,179.820 36.038 C 179.566 36.405,177.178 36.699,176.025 36.504 C 174.083 36.177,172.025 34.493,171.332 32.667 C 171.210 32.346,171.045 31.997,170.965 31.891 C 170.301 31.016,170.479 26.610,171.241 25.042 C 171.475 24.562,171.667 24.103,171.667 24.022 C 171.667 23.534,173.893 21.687,174.835 21.394 C 175.382 21.223,175.831 21.027,175.832 20.958 C 175.833 20.890,176.396 20.833,177.083 20.833 C 177.806 20.833,178.333 20.904,178.333 21.000 M215.767 31.042 C 215.646 32.502,215.238 34.511,215.031 34.660 C 214.963 34.710,214.775 35.051,214.612 35.420 C 214.272 36.192,212.304 38.333,211.934 38.333 C 211.878 38.333,211.442 38.521,210.966 38.751 C 209.291 39.559,205.430 39.757,204.175 39.100 C 203.895 38.953,203.441 38.715,203.166 38.571 C 202.890 38.426,202.591 38.170,202.500 38.000 C 202.410 37.831,202.240 37.593,202.124 37.471 C 200.358 35.622,202.449 31.167,205.083 31.167 C 205.206 31.167,205.331 31.093,205.361 31.003 C 205.418 30.836,208.373 30.443,211.137 30.234 C 211.978 30.171,212.667 30.058,212.667 29.984 C 212.667 29.863,213.308 29.792,215.232 29.698 L 215.881 29.667 215.767 31.042 M259.499 30.458 C 259.497 31.441,259.210 33.260,258.997 33.636 C 258.909 33.790,258.698 34.298,258.529 34.763 C 257.736 36.939,255.348 38.857,252.838 39.332 C 251.206 39.642,247.667 39.411,247.667 38.995 C 247.667 38.926,247.481 38.823,247.254 38.766 C 246.591 38.600,245.576 37.449,245.336 36.591 C 244.698 34.314,245.754 32.224,247.961 31.396 C 248.395 31.234,248.789 31.045,248.836 30.978 C 248.921 30.858,252.161 30.450,254.750 30.234 C 255.483 30.173,256.160 30.062,256.254 29.989 C 256.418 29.860,257.281 29.761,258.792 29.697 L 259.500 29.667 259.499 30.458 "
              stroke="none" fill="#043c74" fill-rule="evenodd"/>
        <path id="path1" d="" stroke="none" fill="#083c74" fill-rule="evenodd"/>
        <path id="path2" d="" stroke="none" fill="#083c74" fill-rule="evenodd"/>
        <path id="path3" d="" stroke="none" fill="#083c74" fill-rule="evenodd"/>
        <path id="path4" d="" stroke="none" fill="#083c74" fill-rule="evenodd"/>
    </g>
</svg>