<svg id="svg" version="1.1" xmlns="http://www.w3.org/2000/svg" xmlns:xlink="http://www.w3.org/1999/xlink" width="400" height="66.2" viewBox="0, 0, 400,66.2"><g id="svgg"><path id="path0" d="M45.319 0.955 C 45.224 1.205,45.090 1.449,45.022 1.497 C 44.955 1.544,44.725 1.996,44.512 2.500 C 44.299 3.004,44.074 3.454,44.012 3.500 C 43.950 3.546,43.725 3.996,43.512 4.500 C 43.299 5.004,43.074 5.454,43.012 5.500 C 42.950 5.546,42.725 5.996,42.512 6.500 C 42.299 7.004,42.074 7.454,42.012 7.500 C 41.950 7.546,41.725 7.996,41.512 8.500 C 41.299 9.004,41.074 9.454,41.012 9.500 C 40.950 9.546,40.725 9.996,40.512 10.500 C 40.299 11.004,40.072 11.454,40.008 11.500 C 39.944 11.546,39.714 12.015,39.498 12.542 C 39.282 13.069,39.053 13.500,38.990 13.500 C 38.926 13.500,38.706 13.950,38.500 14.500 C 38.294 15.050,38.069 15.500,38.000 15.500 C 37.931 15.500,37.706 15.950,37.500 16.500 C 37.294 17.050,37.069 17.500,37.000 17.500 C 36.931 17.500,36.706 17.950,36.500 18.500 C 36.294 19.050,36.069 19.500,36.000 19.500 C 35.931 19.500,35.706 19.950,35.500 20.500 C 35.294 21.050,35.069 21.500,35.000 21.500 C 34.931 21.500,34.706 21.950,34.500 22.500 C 34.294 23.050,34.069 23.500,34.000 23.500 C 33.931 23.500,33.706 23.950,33.500 24.500 C 33.294 25.050,33.069 25.500,33.000 25.500 C 32.931 25.500,32.706 25.950,32.500 26.500 C 32.294 27.050,32.069 27.500,32.000 27.500 C 31.931 27.500,31.706 27.950,31.500 28.500 C 31.294 29.050,31.069 29.500,31.000 29.500 C 30.931 29.500,30.706 29.950,30.500 30.500 C 30.294 31.050,30.069 31.500,30.000 31.500 C 29.931 31.500,29.706 31.950,29.500 32.500 C 29.294 33.050,29.069 33.500,29.000 33.500 C 28.931 33.500,28.706 33.950,28.500 34.500 C 28.294 35.050,28.069 35.500,28.000 35.500 C 27.931 35.500,27.706 35.950,27.500 36.500 C 27.294 37.050,27.069 37.500,27.000 37.500 C 26.931 37.500,26.706 37.950,26.500 38.500 C 26.294 39.050,26.069 39.500,26.000 39.500 C 25.931 39.500,25.706 39.950,25.500 40.500 C 25.294 41.050,25.062 41.500,24.983 41.500 C 24.904 41.500,24.790 41.697,24.730 41.937 L 24.620 42.374 24.386 41.817 C 24.258 41.511,24.095 41.221,24.024 41.172 C 23.954 41.123,23.723 40.652,23.512 40.125 C 23.301 39.598,23.080 39.167,23.021 39.167 C 22.963 39.167,22.740 38.717,22.527 38.167 C 22.314 37.617,22.085 37.167,22.019 37.167 C 21.953 37.167,21.763 36.788,21.597 36.326 C 21.430 35.863,21.206 35.395,21.098 35.284 C 20.990 35.174,20.727 34.652,20.515 34.125 C 20.302 33.598,20.062 33.167,19.981 33.167 C 19.900 33.167,19.833 33.069,19.833 32.949 C 19.833 31.863,18.998 32.082,18.499 33.299 C 18.284 33.822,18.056 34.287,17.992 34.333 C 17.928 34.379,17.701 34.829,17.488 35.333 C 17.275 35.837,17.050 36.287,16.988 36.333 C 16.926 36.379,16.701 36.829,16.488 37.333 C 16.275 37.837,16.050 38.287,15.988 38.333 C 15.926 38.379,15.701 38.829,15.488 39.333 C 15.275 39.837,15.050 40.287,14.988 40.333 C 14.926 40.379,14.701 40.829,14.488 41.333 C 14.275 41.837,14.050 42.287,13.988 42.333 C 13.926 42.379,13.701 42.829,13.488 43.333 C 13.275 43.837,13.050 44.288,12.988 44.333 C 12.926 44.379,12.701 44.829,12.488 45.333 C 12.275 45.837,12.050 46.288,11.988 46.333 C 11.926 46.379,11.701 46.829,11.488 47.333 C 11.275 47.837,11.050 48.288,10.988 48.333 C 10.926 48.379,10.701 48.829,10.488 49.333 C 10.275 49.837,10.050 50.288,9.988 50.333 C 9.926 50.379,9.701 50.829,9.488 51.333 C 9.275 51.837,9.050 52.288,8.988 52.333 C 8.926 52.379,8.701 52.829,8.488 53.333 C 8.275 53.837,8.050 54.288,7.988 54.333 C 7.926 54.379,7.701 54.829,7.488 55.333 C 7.275 55.837,7.050 56.288,6.988 56.333 C 6.926 56.379,6.701 56.829,6.488 57.333 C 6.275 57.837,6.050 58.288,5.988 58.333 C 5.926 58.379,5.701 58.829,5.488 59.333 C 5.275 59.837,5.050 60.288,4.988 60.333 C 4.926 60.379,4.700 60.829,4.486 61.333 C 4.271 61.837,4.000 62.349,3.881 62.470 C 3.763 62.591,3.667 62.754,3.667 62.832 C 3.667 62.909,3.621 63.091,3.566 63.236 C 3.473 63.476,7.331 63.500,46.566 63.500 C 74.179 63.500,89.667 63.442,89.667 63.339 C 89.667 63.140,89.122 61.948,88.979 61.833 C 88.922 61.788,88.701 61.337,88.488 60.833 C 88.275 60.329,88.050 59.879,87.988 59.833 C 87.926 59.788,87.701 59.337,87.488 58.833 C 87.275 58.329,87.050 57.879,86.988 57.833 C 86.926 57.788,86.701 57.337,86.488 56.833 C 86.275 56.329,86.050 55.879,85.988 55.833 C 85.926 55.788,85.701 55.337,85.488 54.833 C 85.275 54.329,85.050 53.879,84.988 53.833 C 84.926 53.788,84.701 53.337,84.488 52.833 C 84.275 52.329,84.050 51.879,83.988 51.833 C 83.926 51.788,83.701 51.337,83.488 50.833 C 83.275 50.329,83.050 49.879,82.988 49.833 C 82.926 49.788,82.700 49.337,82.486 48.833 C 82.271 48.329,82.000 47.818,81.881 47.696 C 81.763 47.575,81.667 47.396,81.667 47.297 C 81.667 47.199,80.204 44.173,78.417 40.573 C 76.629 36.973,75.167 33.946,75.167 33.847 C 75.167 33.748,75.105 33.667,75.031 33.667 C 74.956 33.667,74.718 33.235,74.502 32.708 C 74.286 32.181,74.056 31.712,73.992 31.667 C 73.928 31.621,73.701 31.171,73.488 30.667 C 73.275 30.162,73.050 29.712,72.988 29.667 C 72.926 29.621,72.701 29.171,72.488 28.667 C 72.275 28.162,72.050 27.712,71.988 27.667 C 71.926 27.621,71.701 27.171,71.488 26.667 C 71.275 26.162,71.050 25.712,70.988 25.667 C 70.926 25.621,70.701 25.171,70.488 24.667 C 70.275 24.162,70.050 23.712,69.988 23.667 C 69.926 23.621,69.701 23.171,69.488 22.667 C 69.275 22.162,69.050 21.712,68.988 21.667 C 68.926 21.621,68.700 21.171,68.487 20.667 C 68.273 20.162,68.049 19.728,67.988 19.702 C 67.928 19.676,67.700 19.205,67.482 18.656 C 67.023 17.501,66.750 17.442,66.365 18.417 C 66.220 18.783,66.012 19.174,65.903 19.284 C 65.795 19.395,65.570 19.863,65.403 20.326 C 65.237 20.788,65.047 21.167,64.981 21.167 C 64.915 21.167,64.686 21.617,64.473 22.167 C 64.260 22.717,64.037 23.167,63.979 23.167 C 63.920 23.167,63.698 23.598,63.485 24.125 C 63.273 24.652,63.010 25.174,62.902 25.284 C 62.794 25.395,62.570 25.863,62.403 26.326 C 62.237 26.788,62.049 27.167,61.986 27.167 C 61.924 27.167,61.699 27.598,61.488 28.125 C 61.277 28.652,61.055 29.121,60.996 29.167 C 60.937 29.212,60.812 29.390,60.719 29.560 C 60.561 29.850,53.167 15.446,53.167 14.849 C 53.167 14.749,53.105 14.667,53.031 14.667 C 52.956 14.667,52.718 14.235,52.502 13.708 C 52.286 13.181,52.056 12.713,51.992 12.667 C 51.928 12.621,51.701 12.171,51.488 11.667 C 51.275 11.162,51.050 10.713,50.988 10.667 C 50.926 10.621,50.701 10.171,50.488 9.667 C 50.275 9.162,50.050 8.712,49.988 8.667 C 49.926 8.621,49.701 8.171,49.488 7.667 C 49.275 7.162,49.050 6.712,48.988 6.667 C 48.926 6.621,48.701 6.171,48.488 5.667 C 48.275 5.162,48.050 4.712,47.988 4.667 C 47.926 4.621,47.701 4.171,47.488 3.667 C 47.275 3.163,47.050 2.712,46.988 2.667 C 46.926 2.621,46.701 2.171,46.488 1.667 C 45.947 0.385,45.613 0.182,45.319 0.955 M233.910 9.875 C 233.867 9.990,233.850 19.458,233.874 30.917 L 233.917 51.750 236.375 51.796 L 238.833 51.842 238.833 30.754 L 238.833 9.667 236.411 9.667 C 234.627 9.667,233.969 9.722,233.910 9.875 M338.333 30.750 L 338.333 51.833 340.833 51.833 L 343.333 51.833 343.333 42.855 C 343.333 33.865,343.451 31.692,343.994 30.703 C 344.081 30.546,344.297 30.068,344.476 29.642 C 344.801 28.863,345.000 28.582,345.811 27.757 C 346.574 26.981,346.719 26.892,348.167 26.315 C 350.158 25.521,353.330 25.471,354.880 26.208 C 355.409 26.460,355.887 26.667,355.941 26.667 C 356.344 26.667,357.833 28.753,357.833 29.317 C 357.833 29.418,357.897 29.500,357.976 29.500 C 358.386 29.500,358.500 32.183,358.500 41.824 L 358.500 51.833 360.925 51.833 L 363.351 51.833 363.300 40.609 C 363.266 32.869,363.194 29.312,363.069 29.150 C 362.970 29.022,362.792 28.469,362.674 27.922 C 362.439 26.832,362.180 26.167,361.991 26.167 C 361.924 26.167,361.826 25.992,361.772 25.778 C 361.509 24.730,359.207 22.848,357.654 22.412 C 357.157 22.272,356.614 22.082,356.449 21.988 C 355.585 21.502,349.543 21.494,348.936 21.978 C 348.834 22.060,348.300 22.255,347.750 22.411 C 347.200 22.568,346.625 22.809,346.472 22.945 C 346.318 23.082,345.969 23.319,345.695 23.472 C 345.125 23.790,344.074 24.723,343.581 25.351 L 343.246 25.777 343.309 17.722 L 343.371 9.667 340.852 9.667 L 338.333 9.667 338.333 30.750 M105.167 12.403 C 105.167 12.533,105.109 12.664,105.038 12.694 C 104.968 12.725,104.728 13.350,104.507 14.083 C 104.285 14.817,104.051 15.492,103.986 15.583 C 103.921 15.675,103.702 16.313,103.500 17.000 C 103.298 17.688,103.072 18.325,102.998 18.417 C 102.924 18.508,102.693 19.183,102.483 19.917 C 102.273 20.650,102.047 21.288,101.980 21.335 C 101.913 21.382,101.686 22.020,101.474 22.752 C 101.262 23.484,101.039 24.121,100.978 24.167 C 100.917 24.212,100.699 24.813,100.494 25.500 C 100.289 26.188,100.066 26.825,100.000 26.917 C 99.934 27.008,99.712 27.646,99.507 28.333 C 99.302 29.021,99.072 29.660,98.995 29.754 C 98.918 29.847,98.703 30.474,98.517 31.146 C 98.331 31.819,98.107 32.455,98.021 32.559 C 97.935 32.664,97.693 33.350,97.483 34.083 C 97.273 34.817,97.055 35.454,96.999 35.500 C 96.876 35.600,96.167 37.841,96.167 38.130 C 96.167 38.242,96.106 38.333,96.031 38.333 C 95.957 38.333,95.718 38.952,95.502 39.708 C 95.286 40.465,95.058 41.121,94.997 41.167 C 94.935 41.212,94.716 41.813,94.510 42.500 C 94.303 43.188,94.074 43.825,94.000 43.917 C 93.926 44.008,93.697 44.702,93.490 45.458 C 93.283 46.215,93.062 46.833,92.997 46.833 C 92.932 46.833,92.705 47.452,92.493 48.208 C 92.280 48.965,92.061 49.621,92.006 49.667 C 91.909 49.749,91.333 51.508,91.333 51.723 C 91.333 51.784,93.435 51.833,96.004 51.833 L 100.675 51.833 100.775 51.333 C 100.830 51.058,100.932 50.833,101.002 50.833 C 101.072 50.833,101.164 50.627,101.206 50.375 C 101.336 49.600,101.905 47.588,102.019 47.500 C 102.078 47.454,102.291 46.759,102.492 45.955 C 102.692 45.151,102.963 44.289,103.094 44.038 C 103.224 43.788,103.332 43.458,103.332 43.305 C 103.335 42.465,103.023 42.500,110.500 42.500 C 117.941 42.500,117.667 42.470,117.667 43.273 C 117.667 43.408,117.807 43.833,117.978 44.217 C 118.149 44.602,118.423 45.479,118.587 46.167 C 118.750 46.854,118.933 47.454,118.994 47.500 C 119.054 47.546,119.277 48.258,119.490 49.083 C 119.703 49.908,119.932 50.658,119.999 50.750 C 120.066 50.842,120.170 51.123,120.230 51.375 L 120.340 51.833 125.003 51.833 C 127.598 51.833,129.667 51.768,129.667 51.686 C 129.667 51.442,129.108 49.756,128.997 49.667 C 128.941 49.621,128.720 48.965,128.507 48.208 C 128.295 47.452,128.068 46.833,128.003 46.833 C 127.938 46.833,127.718 46.222,127.513 45.474 C 127.308 44.727,127.044 43.958,126.926 43.766 C 126.808 43.574,126.581 42.929,126.420 42.333 C 126.259 41.737,126.076 41.212,126.013 41.167 C 125.949 41.121,125.722 40.483,125.508 39.750 C 125.295 39.017,125.071 38.379,125.013 38.333 C 124.954 38.287,124.722 37.650,124.498 36.917 C 124.274 36.183,124.032 35.558,123.962 35.528 C 123.891 35.497,123.833 35.387,123.833 35.282 C 123.833 34.978,123.115 32.758,122.987 32.667 C 122.923 32.621,122.704 31.965,122.500 31.208 C 122.297 30.452,122.074 29.833,122.006 29.833 C 121.938 29.833,121.748 29.327,121.584 28.708 C 121.419 28.090,121.158 27.321,121.002 27.000 C 120.847 26.679,120.586 25.929,120.424 25.333 C 120.261 24.738,120.076 24.212,120.013 24.167 C 119.949 24.121,119.722 23.483,119.508 22.750 C 119.295 22.017,119.071 21.379,119.013 21.333 C 118.954 21.287,118.722 20.650,118.498 19.917 C 118.274 19.183,118.032 18.558,117.962 18.528 C 117.891 18.497,117.833 18.387,117.833 18.282 C 117.833 17.978,117.115 15.758,116.987 15.667 C 116.923 15.621,116.704 14.965,116.500 14.208 C 116.297 13.452,116.072 12.833,116.001 12.833 C 115.930 12.833,115.833 12.683,115.785 12.500 C 115.670 12.061,105.167 11.965,105.167 12.403 M110.667 19.933 C 110.667 20.080,110.776 20.436,110.909 20.725 C 111.042 21.014,111.311 21.887,111.506 22.667 C 111.702 23.446,111.923 24.158,111.997 24.250 C 112.072 24.342,112.302 25.110,112.509 25.958 C 112.717 26.806,112.949 27.500,113.026 27.500 C 113.103 27.500,113.167 27.623,113.167 27.774 C 113.167 28.093,113.778 30.264,114.005 30.750 C 114.090 30.933,114.320 31.683,114.515 32.417 C 114.711 33.150,114.929 33.825,114.999 33.917 C 115.070 34.008,115.180 34.327,115.244 34.625 L 115.360 35.167 110.518 35.167 C 105.143 35.167,105.570 35.271,106.087 34.083 C 106.206 33.808,106.439 33.002,106.603 32.292 C 106.767 31.581,106.953 31.000,107.015 31.000 C 107.078 31.000,107.299 30.306,107.507 29.458 C 107.715 28.610,107.936 27.879,107.997 27.833 C 108.058 27.787,108.288 27.037,108.507 26.167 C 108.726 25.296,108.953 24.546,109.010 24.500 C 109.068 24.454,109.288 23.708,109.501 22.843 C 109.713 21.977,109.987 21.077,110.109 20.843 C 110.231 20.608,110.332 20.248,110.332 20.042 C 110.333 19.835,110.408 19.667,110.500 19.667 C 110.592 19.667,110.667 19.787,110.667 19.933 M148.917 21.000 C 148.860 21.092,148.563 21.167,148.258 21.167 C 147.630 21.167,145.561 21.766,145.425 21.987 C 145.375 22.067,145.049 22.281,144.699 22.464 C 144.043 22.806,142.952 23.829,142.196 24.811 L 141.765 25.372 141.562 24.811 C 141.450 24.502,141.353 24.100,141.345 23.917 C 141.337 23.733,141.222 23.374,141.089 23.118 C 140.955 22.862,140.797 22.393,140.738 22.076 L 140.630 21.500 137.065 21.500 L 133.500 21.500 133.500 43.250 L 133.500 65.000 137.833 65.000 L 142.167 65.000 142.167 57.667 C 142.167 53.411,142.103 50.333,142.016 50.333 C 141.933 50.333,141.840 49.958,141.808 49.500 C 141.776 49.042,141.759 48.667,141.769 48.667 C 141.780 48.667,142.230 49.086,142.769 49.598 C 143.309 50.110,143.975 50.646,144.250 50.788 C 144.525 50.930,144.787 51.103,144.833 51.173 C 144.941 51.335,146.963 52.000,147.351 52.000 C 147.514 52.000,147.693 52.075,147.750 52.167 C 147.810 52.264,148.776 52.333,150.083 52.333 C 151.390 52.333,152.356 52.264,152.417 52.167 C 152.473 52.075,152.668 52.000,152.848 52.000 C 153.345 52.000,155.175 51.349,155.449 51.075 C 155.582 50.942,155.787 50.833,155.904 50.833 C 156.022 50.833,156.300 50.665,156.523 50.458 C 156.746 50.252,157.126 49.954,157.367 49.797 C 157.871 49.468,159.143 47.861,159.582 47.000 C 159.746 46.679,159.934 46.379,160.001 46.333 C 160.068 46.288,160.289 45.762,160.492 45.167 C 160.696 44.571,160.927 43.959,161.006 43.807 C 162.038 41.829,162.033 31.089,161.000 29.193 C 160.917 29.041,160.685 28.429,160.485 27.833 C 160.284 27.238,160.071 26.712,160.011 26.667 C 159.951 26.621,159.746 26.314,159.556 25.986 C 158.777 24.640,156.464 22.333,155.893 22.333 C 155.781 22.333,155.585 22.228,155.457 22.099 C 155.143 21.786,153.770 21.331,152.787 21.214 C 152.349 21.162,151.951 21.055,151.902 20.976 C 151.778 20.775,149.042 20.797,148.917 21.000 M183.583 21.000 C 183.527 21.092,183.278 21.167,183.031 21.167 C 182.500 21.167,180.316 21.770,180.179 21.955 C 180.126 22.026,179.821 22.228,179.500 22.405 C 178.944 22.712,178.187 23.326,177.774 23.805 C 177.669 23.926,177.377 24.256,177.125 24.538 C 176.873 24.819,176.667 25.118,176.667 25.201 C 176.667 25.634,176.362 25.078,176.264 24.467 C 176.202 24.078,176.091 23.720,176.018 23.672 C 175.944 23.623,175.776 23.133,175.643 22.583 L 175.402 21.583 171.868 21.538 L 168.333 21.493 168.333 43.247 L 168.333 65.000 172.583 65.000 L 176.833 65.000 176.828 58.042 C 176.825 54.215,176.755 50.559,176.673 49.919 C 176.486 48.470,176.395 48.484,177.725 49.756 C 178.344 50.349,178.954 50.833,179.080 50.833 C 179.206 50.833,179.418 50.942,179.551 51.075 C 179.828 51.352,181.657 52.000,182.161 52.000 C 182.348 52.000,182.500 52.075,182.500 52.167 C 182.500 52.270,183.386 52.333,184.823 52.333 C 186.193 52.333,187.189 52.265,187.250 52.167 C 187.307 52.075,187.486 52.000,187.649 52.000 C 188.037 52.000,190.059 51.335,190.167 51.173 C 190.213 51.103,190.510 50.913,190.828 50.750 C 192.642 49.820,195.092 46.371,195.681 43.917 C 195.791 43.458,195.943 43.004,196.018 42.907 C 196.787 41.913,196.782 30.717,196.013 30.167 C 195.949 30.121,195.805 29.669,195.695 29.163 C 195.511 28.323,194.461 26.006,194.023 25.472 C 192.820 24.005,192.395 23.551,192.061 23.370 C 191.844 23.252,191.667 23.085,191.667 22.998 C 191.667 22.911,191.348 22.679,190.958 22.481 C 190.569 22.283,190.213 22.066,190.167 21.997 C 190.023 21.783,188.536 21.341,187.581 21.228 C 187.078 21.169,186.667 21.056,186.667 20.977 C 186.667 20.775,183.709 20.797,183.583 21.000 M212.335 21.680 C 211.282 21.758,210.394 21.900,210.363 21.995 C 210.331 22.089,210.176 22.167,210.018 22.167 C 209.564 22.167,207.252 22.803,206.726 23.073 C 206.464 23.207,205.895 23.452,205.461 23.617 C 205.026 23.782,204.634 24.014,204.588 24.134 C 204.496 24.372,204.855 25.667,205.013 25.667 C 205.067 25.667,205.254 26.116,205.430 26.665 C 205.821 27.888,205.932 27.935,207.129 27.394 C 215.420 23.646,220.494 25.600,220.499 32.542 L 220.500 33.833 219.031 33.833 C 216.322 33.833,208.846 34.654,208.417 34.999 C 208.325 35.072,207.851 35.250,207.363 35.394 C 205.479 35.950,203.145 37.730,202.416 39.167 C 202.253 39.487,202.064 39.787,201.995 39.833 C 201.521 40.150,201.184 43.903,201.468 45.707 C 201.786 47.734,203.425 50.237,204.846 50.865 C 205.114 50.984,205.333 51.135,205.333 51.201 C 205.333 51.358,207.423 52.000,207.934 52.000 C 208.154 52.000,208.333 52.075,208.333 52.167 C 208.333 52.271,209.306 52.333,210.917 52.333 C 212.338 52.333,213.500 52.268,213.500 52.188 C 213.500 52.108,213.872 51.994,214.326 51.933 C 215.194 51.818,216.507 51.408,216.660 51.203 C 216.709 51.137,217.045 50.933,217.405 50.750 C 217.765 50.567,218.647 49.835,219.365 49.125 C 220.852 47.653,220.833 47.662,220.833 48.333 C 220.833 48.608,220.897 48.833,220.976 48.833 C 221.054 48.833,221.215 49.508,221.333 50.333 L 221.548 51.833 223.454 51.833 L 225.360 51.833 225.305 40.542 C 225.266 32.622,225.194 29.150,225.064 28.917 C 224.961 28.733,224.753 28.062,224.601 27.425 C 224.242 25.919,222.674 23.500,222.056 23.500 C 221.968 23.500,221.747 23.361,221.565 23.191 C 221.191 22.843,219.493 22.167,218.994 22.167 C 218.814 22.167,218.667 22.099,218.667 22.016 C 218.667 21.697,214.843 21.493,212.335 21.680 M256.840 21.681 C 255.881 21.754,254.944 21.886,254.757 21.973 C 254.570 22.061,253.742 22.301,252.917 22.507 C 252.092 22.713,251.379 22.935,251.333 23.000 C 251.287 23.064,250.872 23.242,250.409 23.394 C 249.221 23.785,248.216 24.667,248.959 24.667 C 249.029 24.667,249.184 24.985,249.304 25.375 C 249.424 25.765,249.708 26.481,249.936 26.967 C 250.401 27.956,250.372 27.952,251.917 27.231 C 256.467 25.109,262.001 25.113,263.395 27.241 C 263.532 27.449,263.755 27.731,263.891 27.867 C 264.329 28.305,264.678 29.867,264.781 31.848 L 264.882 33.780 262.399 33.884 C 258.497 34.049,253.350 34.652,252.917 34.994 C 252.825 35.067,252.300 35.255,251.750 35.412 C 249.258 36.123,247.143 38.024,246.220 40.384 C 245.706 41.695,245.509 45.807,245.933 46.349 C 246.033 46.478,246.247 46.996,246.407 47.500 C 246.568 48.004,246.797 48.529,246.918 48.667 C 247.686 49.545,249.011 50.833,249.148 50.833 C 249.237 50.833,249.417 50.941,249.548 51.072 C 249.830 51.353,251.724 52.000,252.268 52.000 C 252.476 52.000,252.693 52.075,252.750 52.167 C 252.878 52.373,257.833 52.394,257.833 52.188 C 257.833 52.108,258.217 51.992,258.685 51.930 C 259.604 51.808,261.032 51.371,261.167 51.170 C 261.212 51.102,261.512 50.914,261.833 50.752 C 262.154 50.590,263.004 49.866,263.722 49.144 C 265.295 47.563,265.227 47.534,265.587 49.920 L 265.878 51.844 267.731 51.797 L 269.583 51.750 269.631 42.333 C 269.681 32.502,269.533 28.393,269.095 27.458 C 268.956 27.160,268.726 26.584,268.584 26.177 C 268.442 25.771,268.218 25.321,268.087 25.177 C 267.955 25.034,267.587 24.613,267.269 24.243 C 266.950 23.872,266.479 23.460,266.220 23.326 C 265.962 23.193,265.663 23.002,265.558 22.903 C 265.452 22.804,264.927 22.593,264.391 22.435 C 263.855 22.277,263.285 22.076,263.124 21.988 C 262.873 21.852,259.223 21.466,258.750 21.526 C 258.658 21.538,257.799 21.608,256.840 21.681 M290.277 21.668 C 289.742 21.736,289.142 21.871,288.944 21.968 C 288.746 22.064,288.171 22.270,287.667 22.426 C 287.162 22.582,286.625 22.819,286.472 22.952 C 286.318 23.085,285.963 23.319,285.682 23.472 C 285.022 23.831,283.376 25.436,283.245 25.848 C 283.034 26.512,282.888 26.105,282.656 24.208 L 282.417 22.250 280.375 22.203 L 278.333 22.156 278.333 36.995 L 278.333 51.833 280.833 51.833 L 283.333 51.833 283.333 42.855 C 283.333 33.904,283.470 31.388,283.993 30.759 C 284.073 30.662,284.301 30.170,284.500 29.666 C 284.698 29.162,284.967 28.690,285.097 28.617 C 285.227 28.543,285.333 28.384,285.333 28.262 C 285.333 27.846,286.804 26.834,288.195 26.291 C 290.167 25.522,293.355 25.483,294.880 26.208 C 295.409 26.460,295.887 26.667,295.941 26.667 C 296.344 26.667,297.833 28.753,297.833 29.317 C 297.833 29.418,297.897 29.500,297.976 29.500 C 298.386 29.500,298.500 32.183,298.500 41.824 L 298.500 51.833 300.925 51.833 L 303.351 51.833 303.300 40.625 C 303.262 32.195,303.200 29.334,303.047 29.083 C 302.936 28.900,302.765 28.335,302.668 27.828 C 302.571 27.321,302.231 26.473,301.912 25.945 C 301.594 25.416,301.333 24.947,301.333 24.903 C 301.333 24.425,298.700 22.648,297.500 22.316 C 297.087 22.202,296.673 22.051,296.578 21.981 C 296.064 21.599,292.283 21.412,290.277 21.668 M321.667 21.698 C 320.979 21.784,320.392 21.924,320.361 22.010 C 320.331 22.096,320.176 22.167,320.018 22.167 C 319.672 22.167,317.618 22.841,317.500 22.994 C 317.454 23.053,317.103 23.262,316.719 23.459 C 315.237 24.219,312.333 27.294,312.333 28.104 C 312.333 28.217,312.226 28.417,312.095 28.547 C 311.965 28.678,311.698 29.340,311.502 30.018 C 311.307 30.695,311.079 31.375,310.997 31.528 C 310.367 32.700,310.360 42.043,310.989 42.500 C 311.052 42.546,311.197 43.010,311.311 43.531 C 311.941 46.403,315.063 50.235,317.333 50.919 C 317.563 50.988,317.791 51.109,317.842 51.188 C 317.953 51.358,320.394 52.000,320.933 52.000 C 321.143 52.000,321.360 52.075,321.417 52.167 C 321.479 52.267,322.637 52.333,324.333 52.333 C 326.029 52.333,327.188 52.267,327.250 52.167 C 327.307 52.075,327.558 52.000,327.808 52.000 C 328.470 52.000,330.127 51.551,331.042 51.124 L 331.833 50.755 331.833 48.627 C 331.833 46.934,331.787 46.500,331.604 46.500 C 331.350 46.500,330.101 46.912,329.583 47.166 C 327.297 48.290,320.856 48.189,319.677 47.011 C 319.488 46.821,319.264 46.667,319.180 46.667 C 318.923 46.667,317.728 45.435,317.434 44.867 C 317.282 44.574,317.095 44.333,317.019 44.333 C 316.882 44.333,316.167 42.267,316.167 41.870 C 316.167 41.758,316.101 41.667,316.020 41.667 C 315.386 41.667,315.357 33.081,315.989 32.250 C 316.059 32.158,316.244 31.671,316.401 31.167 C 316.558 30.662,316.832 30.047,317.010 29.798 C 317.188 29.550,317.335 29.288,317.336 29.215 C 317.348 28.588,319.677 26.808,321.000 26.415 C 321.504 26.265,322.047 26.073,322.206 25.988 C 322.586 25.785,326.088 25.788,326.461 25.991 C 326.620 26.078,327.350 26.273,328.083 26.425 C 328.817 26.576,329.669 26.818,329.978 26.962 C 330.741 27.317,331.015 27.111,331.384 25.901 C 331.550 25.360,331.831 24.608,332.009 24.232 C 332.549 23.090,332.356 22.870,330.417 22.413 C 329.775 22.262,329.100 22.070,328.917 21.987 C 327.980 21.561,324.035 21.404,321.667 21.698 M381.167 21.682 C 380.571 21.759,379.933 21.897,379.750 21.988 C 379.567 22.080,378.972 22.307,378.428 22.492 C 377.884 22.678,377.396 22.887,377.344 22.957 C 377.292 23.026,376.962 23.230,376.610 23.409 C 375.280 24.087,372.993 26.682,372.381 28.208 C 372.243 28.552,372.077 28.833,372.012 28.833 C 371.887 28.833,371.438 30.197,371.244 31.167 C 371.181 31.488,371.068 31.825,370.995 31.917 C 370.363 32.710,370.360 41.442,370.993 42.250 C 371.064 42.342,371.220 42.828,371.338 43.331 C 371.567 44.309,372.767 46.833,373.003 46.833 C 373.081 46.833,373.191 46.979,373.247 47.158 C 373.382 47.583,375.635 49.833,375.926 49.833 C 376.049 49.833,376.210 49.937,376.283 50.063 C 376.630 50.659,380.154 52.000,381.376 52.000 C 381.617 52.000,381.860 52.075,381.917 52.167 C 382.044 52.373,388.109 52.395,388.235 52.190 C 388.284 52.111,388.757 51.997,389.287 51.936 C 390.381 51.809,392.333 51.355,392.583 51.168 C 392.675 51.100,393.144 50.916,393.625 50.759 L 394.500 50.473 394.500 48.320 C 394.500 47.136,394.444 46.167,394.375 46.168 C 394.199 46.169,391.819 46.971,391.417 47.164 C 389.860 47.911,384.103 48.270,381.954 47.754 C 380.302 47.357,377.500 45.536,377.500 44.858 C 377.500 44.787,377.366 44.584,377.201 44.406 C 377.037 44.229,376.730 43.633,376.519 43.083 C 376.307 42.533,376.069 41.933,375.990 41.750 C 375.769 41.238,375.500 39.531,375.500 38.636 L 375.500 37.833 385.583 37.833 L 395.667 37.833 395.666 35.375 C 395.665 33.010,395.309 29.864,395.019 29.672 C 394.945 29.623,394.748 29.145,394.581 28.609 C 394.414 28.073,394.196 27.547,394.097 27.440 C 393.998 27.333,393.768 26.954,393.585 26.598 C 393.186 25.817,391.191 23.774,390.459 23.395 C 390.170 23.246,389.837 23.027,389.719 22.909 C 389.601 22.791,389.110 22.572,388.627 22.422 C 388.145 22.272,387.625 22.081,387.472 21.998 C 386.702 21.581,383.281 21.409,381.167 21.682 M384.839 25.664 C 386.825 25.952,388.790 27.384,389.512 29.068 C 389.712 29.535,389.938 29.957,390.014 30.006 C 390.155 30.096,390.665 32.928,390.666 33.625 L 390.667 34.000 383.072 34.000 C 375.920 34.000,375.482 33.983,375.558 33.708 C 375.602 33.548,375.690 33.042,375.752 32.583 C 375.815 32.125,375.917 31.712,375.979 31.667 C 376.041 31.621,376.225 31.154,376.386 30.630 C 376.548 30.106,376.790 29.567,376.924 29.434 C 377.057 29.300,377.167 29.145,377.167 29.088 C 377.167 28.421,379.822 26.167,380.609 26.167 C 380.717 26.167,380.831 26.095,380.861 26.008 C 380.892 25.920,381.404 25.780,382.000 25.695 C 383.475 25.486,383.595 25.484,384.839 25.664 M149.749 28.242 C 150.637 28.662,151.833 29.740,151.833 30.120 C 151.833 30.237,151.902 30.333,151.987 30.333 C 152.175 30.333,152.617 31.650,152.771 32.667 C 152.833 33.079,152.950 33.460,153.030 33.513 C 153.229 33.643,153.216 39.081,153.017 39.453 C 152.929 39.616,152.776 40.200,152.677 40.750 C 152.168 43.564,150.287 45.333,147.804 45.333 C 145.923 45.333,144.004 44.303,143.402 42.969 C 143.245 42.619,143.063 42.333,142.999 42.333 C 141.977 42.333,142.047 31.596,143.075 30.568 C 143.217 30.426,143.333 30.216,143.333 30.101 C 143.333 28.522,147.679 27.263,149.749 28.242 M184.545 28.311 C 187.093 29.482,187.946 31.838,187.785 37.250 C 187.699 40.125,187.383 41.975,186.893 42.465 C 186.768 42.589,186.667 42.783,186.667 42.897 C 186.667 43.144,185.349 44.667,185.134 44.667 C 185.052 44.667,184.673 44.817,184.294 45.000 C 183.574 45.348,181.399 45.479,181.075 45.194 C 180.988 45.118,180.565 44.926,180.136 44.768 C 178.686 44.235,177.651 42.665,177.322 40.500 C 177.217 39.813,177.064 39.120,176.982 38.961 C 176.773 38.554,176.789 33.833,177.000 33.833 C 177.092 33.833,177.168 33.590,177.169 33.292 C 177.189 29.253,180.999 26.680,184.545 28.311 M220.495 38.458 C 220.489 40.037,220.220 42.648,220.039 42.885 C 219.956 42.994,219.723 43.496,219.521 44.000 C 218.787 45.832,216.572 47.567,214.526 47.912 C 214.146 47.977,213.793 48.097,213.741 48.181 C 213.619 48.379,210.417 48.379,210.039 48.181 C 209.880 48.098,209.393 47.904,208.957 47.751 C 206.865 47.014,205.713 43.956,206.665 41.667 C 207.356 40.007,209.582 38.333,211.100 38.333 C 211.213 38.333,211.331 38.264,211.361 38.179 C 211.448 37.937,213.976 37.646,217.167 37.510 C 218.771 37.441,220.177 37.374,220.292 37.359 C 220.441 37.341,220.499 37.653,220.495 38.458 M264.775 39.493 C 264.527 44.408,262.746 47.045,259.125 47.860 C 258.598 47.979,258.167 48.134,258.167 48.205 C 258.167 48.361,254.601 48.379,254.445 48.223 C 254.384 48.162,253.944 47.975,253.468 47.807 C 251.637 47.162,250.744 45.725,250.760 43.446 C 250.766 42.637,250.846 41.924,250.939 41.862 C 251.031 41.801,251.279 41.390,251.489 40.949 C 252.056 39.764,254.156 38.346,255.361 38.336 C 255.514 38.334,255.664 38.264,255.694 38.179 C 255.781 37.937,258.309 37.646,261.500 37.510 C 263.104 37.441,264.522 37.374,264.651 37.359 C 264.846 37.338,264.867 37.692,264.775 39.493 " stroke="none" fill="#343434" fill-rule="evenodd"></path><path id="path1" d="" stroke="none" fill="#383434" fill-rule="evenodd"></path><path id="path2" d="" stroke="none" fill="#383434" fill-rule="evenodd"></path><path id="path3" d="" stroke="none" fill="#383434" fill-rule="evenodd"></path><path id="path4" d="" stroke="none" fill="#383434" fill-rule="evenodd"></path></g></svg>