<?xml version="1.0" encoding="UTF-8"?>
<svg version="1.1" xmlns="http://www.w3.org/2000/svg" width="2000" height="331">
    <path d="M0 0 C2.89889676 2.52767608 4.3457848 5.31679691 6.05619812 8.73817444 C6.34869361 9.31919102 6.6411891 9.90020759 6.9425481 10.49883074 C7.92014348 12.44440508 8.88911084 14.39414793 9.8581543 16.34399414 C10.55759174 17.74044093 11.25754561 19.13662915 11.95797729 20.53257751 C13.8579156 24.32304602 15.75030075 28.11723949 17.64114738 31.9122498 C19.61923126 35.8797264 21.60347817 39.84411893 23.58686829 43.8089447 C26.91568051 50.4656862 30.23969849 57.12480445 33.56079102 63.78540039 C37.40442972 71.49386274 41.25513493 79.19876202 45.10974377 86.90174395 C48.81422639 94.30502226 52.51417807 101.71055551 56.21189308 109.11721611 C57.78745191 112.27298687 59.36452394 115.42799461 60.94278526 118.58241463 C62.79901379 122.29299331 64.65125295 126.00553617 66.50037766 129.71965981 C67.18109708 131.08535445 67.86318847 132.4503662 68.5467205 133.8146553 C69.47643819 135.67088704 70.40123043 137.5294893 71.32475281 139.3888092 C71.84443477 140.43022599 72.36411673 141.47164278 72.89954662 142.54461765 C74 145 74 145 74 147 C74.66 147 75.32 147 76 147 C76.27485229 146.12596024 76.54970459 145.25192047 76.83288574 144.35139465 C77.9263652 141.21144396 79.19414975 138.35157292 80.67382812 135.37768555 C81.20778198 134.30024582 81.74173584 133.22280609 82.29187012 132.11271667 C82.86586548 130.96563736 83.43986084 129.81855804 84.03125 128.63671875 C84.62912213 127.43708376 85.22681627 126.23736004 85.82434082 125.03755188 C87.07239871 122.53400312 88.32351572 120.03201217 89.57666016 117.53100586 C91.18412434 114.32190127 92.78239553 111.10831449 94.37827301 107.89343548 C95.60770667 105.41986918 96.84264242 102.94908182 98.07920837 100.47907448 C98.9590361 98.71865499 99.83361364 96.95561474 100.70812988 95.19255066 C101.24208374 94.13087173 101.7760376 93.06919281 102.32617188 91.9753418 C102.79535034 91.03635544 103.26452881 90.09736908 103.7479248 89.12992859 C105 87 105 87 107 86 C116.98244375 105.94140474 126.96252272 125.88399141 136.93987751 145.82794285 C141.57381088 155.09067901 146.20848334 164.3530439 150.8449707 173.61450195 C154.89166466 181.6978431 158.93689568 189.78191446 162.98045605 197.86682361 C165.11649773 202.13761662 167.25321274 206.40806938 169.39168739 210.67764473 C177.65604064 227.17892597 185.88429134 243.68743853 193.79328918 260.36296082 C196.55616584 266.18674447 199.42093409 271.95582614 202.32421875 277.7109375 C202.84135941 278.74143219 203.35850006 279.77192688 203.89131165 280.83364868 C205.48799696 284.01513125 207.087389 287.19523916 208.6875 290.375 C210.83952234 294.6525038 212.98888728 298.93132817 215.13671875 303.2109375 C215.62718185 304.18356537 216.11764496 305.15619324 216.62297058 306.15829468 C217.06796402 307.04497833 217.51295746 307.93166199 217.97143555 308.84521484 C218.36461472 309.62633636 218.75779388 310.40745789 219.16288757 311.21224976 C220 313 220 313 220 314 C78.1 314 -63.8 314 -210 314 C-204.66269858 302.73236368 -199.32319009 291.49871395 -193.73608398 280.35864258 C-193.06464186 279.01604181 -192.3933781 277.67335182 -191.72227478 276.33058167 C-189.93539667 272.75654375 -188.14609155 269.18372634 -186.35627627 265.61115861 C-184.47303583 261.85101809 -182.59212932 258.08971035 -180.71095276 254.32853699 C-177.16418563 247.23808505 -173.61538441 240.14865331 -170.06581217 233.0596053 C-166.01812068 224.97548089 -161.97275762 216.8901921 -157.92756927 208.80481493 C-149.620931 192.20193244 -141.31143629 175.60048108 -133 159 C-132.01 159 -131.02 159 -130 159 C-126.57645472 165.79652171 -123.1590971 172.59612762 -119.74609375 179.39794922 C-118.58346705 181.71312393 -117.41940765 184.02757973 -116.25390625 186.34130859 C-114.58219305 189.66056907 -112.91559182 192.98235201 -111.25 196.3046875 C-110.7250293 197.34430634 -110.20005859 198.38392517 -109.65917969 199.45504761 C-109.17868164 200.41589264 -108.69818359 201.37673767 -108.203125 202.36669922 C-107.77676758 203.21497284 -107.35041016 204.06324646 -106.91113281 204.93722534 C-106 207 -106 207 -106 209 C-105.34 209 -104.68 209 -104 209 C-103.75390519 208.18290967 -103.50781038 207.36581934 -103.25425816 206.5239687 C-101.77721742 202.37406917 -99.90992167 198.54627966 -97.93186951 194.61650085 C-97.51842743 193.78720229 -97.10498536 192.95790373 -96.67901474 192.10347492 C-95.2955832 189.33098547 -93.90646179 186.56138727 -92.51733398 183.79174805 C-91.52326244 181.80253186 -90.52953733 179.81314252 -89.53613281 177.82359314 C-86.83951979 172.42552161 -84.1379159 167.02996205 -81.43530536 161.63489127 C-78.61041693 155.99389522 -75.78974412 150.35079188 -72.96852112 144.70796204 C-68.23247351 135.23680315 -63.49335166 125.7671871 -58.75219727 116.29858398 C-53.87103471 106.550362 -48.99268888 96.80073726 -44.11743164 87.04956055 C-43.81683594 86.44832918 -43.51624023 85.84709782 -43.20653557 85.22764733 C-42.90646448 84.62746479 -42.60639339 84.02728225 -42.29722923 83.40891236 C-37.02924736 72.87229443 -31.75894854 62.33683695 -26.48738289 51.80201149 C-24.24075476 47.31229398 -21.99481232 42.82223444 -19.74938774 38.3319149 C-17.10916808 33.05247662 -14.46692046 27.77405826 -11.82306671 22.49643898 C-10.85041664 20.55407093 -9.87845239 18.61135929 -8.90720558 16.66828918 C-7.58703289 14.02745658 -6.26442497 11.38785848 -4.94114685 8.74858093 C-4.35808381 7.58013194 -4.35808381 7.58013194 -3.76324171 6.38807791 C-1.1141791 1.1141791 -1.1141791 1.1141791 0 0 Z "
          fill="#9E0610" transform="translate(228,3)"/>
    <path d="M0 0 C16.32880105 12.14862798 22.46404042 30.05714919 25.55859375 49.51171875 C28.74505274 76.29718912 26.44623287 106.20775995 10.12109375 128.57421875 C1.84883333 138.41737307 -8.4699376 144.2943886 -21 147 C-24.70501302 147.24805321 -28.41250804 147.23120257 -32.125 147.25 C-33.61773438 147.2809375 -33.61773438 147.2809375 -35.140625 147.3125 C-51.08415216 147.39575602 -61.74420223 140.78582709 -73 130 C-73.33 130.33 -73.66 130.66 -74 131 C-73.67524403 133.33454259 -73.34011807 135.66764598 -73 138 C-72.91687625 140.49752018 -72.88214376 142.99695028 -72.88647461 145.49584961 C-72.88632858 146.20888245 -72.88618256 146.92191528 -72.8860321 147.65655518 C-72.88672287 149.9885168 -72.8944757 152.32039626 -72.90234375 154.65234375 C-72.9042109 156.27901669 -72.9056334 157.90569019 -72.90663147 159.53236389 C-72.91043323 163.79515154 -72.92024332 168.05790463 -72.93133545 172.32067871 C-72.94340767 177.44527726 -72.94796296 182.56988743 -72.95378876 187.69449615 C-72.96345649 195.4630214 -72.98262938 203.23147096 -73 211 C-86.86 211 -100.72 211 -115 211 C-115 139.39 -115 67.78 -115 -6 C-103.45 -6 -91.9 -6 -80 -6 C-79.175 -3.23625 -78.35 -0.4725 -77.5 2.375 C-77.23896484 3.24431152 -76.97792969 4.11362305 -76.70898438 5.00927734 C-76.40444336 6.03722412 -76.40444336 6.03722412 -76.09375 7.0859375 C-75.77954102 8.1385376 -75.77954102 8.1385376 -75.45898438 9.21240234 C-75 11 -75 11 -75 13 C-74.34 13 -73.68 13 -73 13 C-72.7525 12.443125 -72.505 11.88625 -72.25 11.3125 C-67.26209458 2.08487497 -58.06683625 -3.53507059 -48.390625 -6.91015625 C-31.72403841 -11.75247533 -14.50709392 -9.62049386 0 0 Z M-64.8125 32.4375 C-75.28956548 45.41836535 -73.94246597 66.16549067 -72.69140625 81.875 C-71.39015876 91.4558665 -69.1828956 101.15119256 -62 108 C-54.10358944 113.51325963 -46.42011844 113.73924696 -37 113 C-30.72433348 111.36201157 -26.52668589 107.31102102 -23 102 C-13.52774768 85.2366061 -14.74390725 62.84846486 -18.74609375 44.59765625 C-21.26908513 36.60257688 -26.13454008 30.60326893 -33.0625 25.9375 C-44.12640184 22.22409846 -56.57835056 24.23802066 -64.8125 32.4375 Z "
          fill="#9F0610" transform="translate(783,114)"/>
    <path d="M0 0 C14.88288505 12.11198322 21.33352827 31.43946743 23.46875 49.90625 C25.6522776 76.73066882 24.07111426 103.99366969 7.78515625 126.40625 C7.02203125 127.47875 6.25890625 128.55125 5.47265625 129.65625 C-3.2307312 138.5620418 -15.63956188 145.41001274 -28.28515625 145.609375 C-30.30333409 145.63061898 -32.32157997 145.64603094 -34.33984375 145.65625 C-35.83257813 145.6871875 -35.83257813 145.6871875 -37.35546875 145.71875 C-52.83566978 145.79958656 -63.29166404 139.92336355 -74.21484375 129.40625 C-75.20484375 128.41625 -75.20484375 128.41625 -76.21484375 127.40625 C-76.14378922 128.00766312 -76.07273468 128.60907623 -75.99952698 129.22871399 C-75.0919698 137.82831158 -75.08679613 146.37843797 -75.1171875 155.01171875 C-75.11905683 156.58783422 -75.1204783 158.16395027 -75.12147522 159.74006653 C-75.12525988 163.85154883 -75.13505466 167.96299477 -75.1461792 172.07446289 C-75.15829848 177.02728779 -75.16281488 181.98012497 -75.16863251 186.93296051 C-75.17826931 194.42408215 -75.19745398 201.9151243 -75.21484375 209.40625 C-89.07484375 209.40625 -102.93484375 209.40625 -117.21484375 209.40625 C-117.21484375 137.79625 -117.21484375 66.18625 -117.21484375 -7.59375 C-105.99484375 -7.59375 -94.77484375 -7.59375 -83.21484375 -7.59375 C-80.89266998 -2.17534453 -79.31946571 2.51476683 -77.9609375 8.1484375 C-77.71472656 8.89351562 -77.46851563 9.63859375 -77.21484375 10.40625 C-76.55484375 10.73625 -75.89484375 11.06625 -75.21484375 11.40625 C-74.93511719 10.81457031 -74.65539062 10.22289063 -74.3671875 9.61328125 C-69.68085778 0.63776839 -60.8007197 -5.19836918 -51.40234375 -8.46875 C-33.69404564 -13.88057031 -14.90712728 -10.72682174 0 0 Z M-64.90234375 28.59375 C-77.19525969 43.54459371 -76.54787548 62.40678358 -75.00390625 80.93798828 C-73.86820119 91.00231403 -71.0523117 99.56878205 -63.77734375 106.84375 C-55.62052504 111.81741995 -48.8012848 112.32122485 -39.21484375 111.40625 C-32.96610558 109.79119152 -28.65509598 105.76116642 -25.21484375 100.40625 C-19.78204044 89.77296721 -18.86921951 78.86610543 -18.90234375 67.09375 C-18.88623047 65.96001953 -18.87011719 64.82628906 -18.85351562 63.65820312 C-18.84666912 51.64258674 -20.43097531 38.77794779 -28.8828125 29.59375 C-35.47342735 23.54144144 -42.07213907 23.00915224 -50.796875 23.15625 C-56.53142192 23.57569115 -60.36833128 24.90327474 -64.90234375 28.59375 Z "
          fill="#9F0610" transform="translate(959.21484375,115.59375)"/>
    <path d="M0 0 C17.16 0 34.32 0 52 0 C56.49956887 10.12402997 56.49956887 10.12402997 58.11206055 14.76782227 C58.66096703 16.33913155 58.66096703 16.33913155 59.22096252 17.94218445 C59.79801186 19.61242424 59.79801186 19.61242424 60.38671875 21.31640625 C60.80078476 22.50446365 61.21485077 23.69252106 61.64146423 24.9165802 C62.53038399 27.46822532 63.41797677 30.02028493 64.30328369 32.57318115 C66.4242973 38.68875746 68.5573775 44.80013053 70.6889267 50.91204071 C71.41161226 52.98464447 72.133846 55.05740526 72.85601807 57.13018799 C77.0716668 69.22625363 81.33824413 81.30395446 85.625 93.375 C90.08652637 105.94354882 94.53810848 118.51542815 98.9609375 131.09765625 C99.38146393 132.29390625 99.80199036 133.49015625 100.23526001 134.72265625 C102.26463194 140.49670432 104.29259027 146.27124499 106.31884766 152.04638672 C107.06656625 154.17551386 107.81444786 156.30458377 108.5625 158.43359375 C108.92330658 159.4611377 109.28411316 160.48868164 109.65585327 161.54736328 C111.59927775 167.06850358 113.56664151 172.58010073 115.5625 178.08251953 C116.18983032 179.81321434 116.18983032 179.81321434 116.82983398 181.57887268 C117.63626501 183.79914347 118.44555862 186.01837715 119.25805664 188.23643494 C119.61762451 189.22583572 119.97719238 190.21523651 120.34765625 191.23461914 C120.82730835 192.54590538 120.82730835 192.54590538 121.31665039 193.88368225 C122 196 122 196 122 198 C106.82 198 91.64 198 76 198 C72.39448676 187.18346029 68.83481046 176.42834299 65.625 165.5 C65.27050781 164.31019531 64.91601562 163.12039062 64.55078125 161.89453125 C62 153.25732987 62 153.25732987 62 151 C38.57 151 15.14 151 -9 151 C-9.66 153.97 -10.32 156.94 -11 160 C-11.82674644 162.90807772 -12.6737989 165.79642618 -13.56640625 168.68359375 C-13.80536118 169.46517349 -14.0443161 170.24675323 -14.29051208 171.05201721 C-14.79059159 172.68516328 -15.29232143 174.31780485 -15.7956543 175.94995117 C-16.56769188 178.45434178 -17.33403764 180.96042302 -18.09960938 183.46679688 C-18.58821182 185.05999703 -19.07713251 186.65309962 -19.56640625 188.24609375 C-19.79558243 188.99499374 -20.02475861 189.74389374 -20.26087952 190.51548767 C-21.88394039 195.76788078 -21.88394039 195.76788078 -23 198 C-38.18 198 -53.36 198 -69 198 C-66.980168 191.26722665 -64.89615762 184.62199827 -62.5859375 177.9921875 C-62.0963002 176.57961418 -62.0963002 176.57961418 -61.59677124 175.13850403 C-60.52519175 172.04984946 -59.45026504 168.96237327 -58.375 165.875 C-57.610998 163.67684079 -56.84700069 161.47867996 -56.08300781 159.28051758 C-50.68312 143.76026971 -45.21711601 128.26396496 -39.71691895 112.77902222 C-33.467061 95.18343975 -27.28568141 77.56444079 -21.125 59.9375 C-14.13529767 39.93946395 -7.11163781 19.9550434 0 0 Z M26 34 C25.66379639 35.14436523 25.32759277 36.28873047 24.98120117 37.46777344 C23.38566697 42.89587987 21.78721064 48.32312304 20.1875 53.75 C19.89743073 54.73408844 19.60736145 55.71817688 19.3085022 56.73208618 C14.71697773 72.2975013 10.03590889 87.83326315 5.25268555 103.34082031 C5.03165161 104.05887344 4.81061768 104.77692657 4.58288574 105.51673889 C3.99109426 107.43825142 3.39735457 109.35916364 2.8034668 111.2800293 C1.95278434 113.68714564 1.95278434 113.68714564 2 115 C18.17 115 34.34 115 51 115 C49.74340673 108.71703366 48.49841577 102.8937753 46.53125 96.87109375 C46.29452576 96.13030075 46.05780151 95.38950775 45.81390381 94.62626648 C45.30824585 93.04514457 44.80028317 91.4647581 44.29016113 89.8850708 C42.93713252 85.69398473 41.60188056 81.49723938 40.265625 77.30078125 C39.99369324 76.44800598 39.72176147 75.59523071 39.44158936 74.71661377 C36.62956939 65.87737596 33.92735952 57.00580747 31.25 48.125 C31.03190674 47.40214813 30.81381348 46.67929626 30.58911133 45.93453979 C29.38958181 41.95730552 28.1931826 37.97914385 27 34 C26.67 34 26.34 34 26 34 Z "
          fill="#9F0610" transform="translate(526,61)"/>
    <path d="M0 0 C7.92 0 15.84 0 24 0 C24 26.73 24 53.46 24 81 C26.31 78.36 28.62 75.72 31 73 C41.84919918 62.44037019 56.68774794 58.83130586 71.5 59.00390625 C85.90300662 59.44022422 100.44211236 62.08044155 111.41015625 72.22265625 C121.79732357 83.83484576 124.16874659 98.6359886 124.11352539 113.61694336 C124.11367142 114.6615976 124.11381744 115.70625183 124.1139679 116.78256226 C124.11327401 120.21834424 124.10550616 123.65407129 124.09765625 127.08984375 C124.09579021 129.47880524 124.09436718 131.86776712 124.09336853 134.25672913 C124.089558 140.53175928 124.07974023 146.80676613 124.06866455 153.08178711 C124.05841893 159.49006841 124.05386416 165.89835349 124.04882812 172.30664062 C124.03811663 184.87110561 124.0205317 197.43554722 124 210 C116.41 210 108.82 210 101 210 C100.98541748 206.9374292 100.97083496 203.8748584 100.95581055 200.71948242 C100.90535604 190.57333357 100.83874183 180.42733645 100.76428509 170.28133678 C100.71965707 164.1329652 100.6803842 157.98465874 100.65356445 151.83618164 C100.62745611 145.8967839 100.58700031 139.95763774 100.53681374 134.01839638 C100.52019592 131.75836644 100.50865011 129.49829303 100.50238609 127.23821068 C100.49268967 124.05982792 100.46456404 120.88208147 100.43237305 117.70385742 C100.43380814 116.78027939 100.43524323 115.85670135 100.4367218 114.90513611 C100.28066696 103.93015603 97.66342742 93.51438985 89.625 85.6875 C79.19433408 78.98207191 66.77023719 78.7394787 54.79296875 80.4609375 C44.87532915 82.87295285 37.02538643 87.47274571 31.46875 96.1484375 C26.27143268 106.23897378 24.87266587 116.95904469 24.79467773 128.14819336 C24.77982834 129.48108902 24.77982834 129.48108902 24.76467896 130.84091187 C24.73327129 133.75719605 24.70838911 136.67349649 24.68359375 139.58984375 C24.66300629 141.62008572 24.64200936 143.65032357 24.62062073 145.68055725 C24.56558511 151.00860246 24.51609462 156.33668515 24.46777344 161.66479492 C24.41742279 167.10794386 24.3618077 172.55103875 24.30664062 177.99414062 C24.19928562 188.66271584 24.09827772 199.3313373 24 210 C16.08 210 8.16 210 0 210 C0 140.7 0 71.4 0 0 Z "
          fill="#9E0611" transform="translate(1692,49)"/>
    <path d="M0 0 C11.82454948 11.25720999 17.85917949 26.38925642 20.125 42.25 C20.125 50.83 20.125 59.41 20.125 68.25 C-13.205 68.25 -46.535 68.25 -80.875 68.25 C-77.98723043 92.18441613 -77.98723043 92.18441613 -63.85546875 110.94140625 C-48.37256929 121.17172444 -29.19818148 121.56845272 -11.35302734 118.06787109 C-4.07465216 116.41695759 2.83363571 114.08930927 9.71875 111.203125 C12.125 110.25 12.125 110.25 14.125 110.25 C14.125 117.18 14.125 124.11 14.125 131.25 C-8.14323769 141.05862851 -36.89782917 144.91409036 -60.64453125 137.5078125 C-77.93468118 130.77573478 -90.53218446 120.42215815 -98.55859375 103.47265625 C-106.94102771 82.95186095 -108.30777828 56.5447143 -101.875 35.25 C-101.5965625 34.30125 -101.318125 33.3525 -101.03125 32.375 C-95.42073864 15.35 -85.91738158 2.1743827 -69.96875 -6.29296875 C-47.64953302 -16.74743715 -19.83234762 -15.47999984 0 0 Z M-67.92578125 17.09765625 C-75.78162585 25.77214597 -80.875 38.43100649 -80.875 50.25 C-55.465 50.25 -30.055 50.25 -3.875 50.25 C-4.97690735 35.9252045 -6.49193145 23.96307499 -17.1875 13.875 C-31.94264016 1.688078 -54.31559807 4.45007935 -67.92578125 17.09765625 Z "
          fill="#9F0610" transform="translate(1957.875,120.75)"/>
    <path d="M0 0 C7.65572168 7.81342382 10.67213209 17.31140364 11.83154297 28.01708984 C11.91534147 28.78933584 11.99913998 29.56158184 12.08547783 30.35722923 C13.11075743 40.85681657 12.95870943 51.38024072 12.90625 61.91796875 C12.90250961 64.15668612 12.8996675 66.39540515 12.89767456 68.63412476 C12.89011878 74.46350806 12.87054166 80.29278819 12.8482666 86.12213135 C12.82763241 92.09572963 12.81863565 98.06934494 12.80859375 104.04296875 C12.78728639 115.71750003 12.75217214 127.39192833 12.7109375 139.06640625 C6.7709375 139.06640625 0.8309375 139.06640625 -5.2890625 139.06640625 C-6.6090625 132.79640625 -7.9290625 126.52640625 -9.2890625 120.06640625 C-9.9490625 120.06640625 -10.6090625 120.06640625 -11.2890625 120.06640625 C-11.9490625 120.89140625 -12.6090625 121.71640625 -13.2890625 122.56640625 C-21.61505809 132.86434817 -33.30924473 139.0664836 -46.2890625 141.06640625 C-63.7430555 142.41831851 -80.10708494 142.02651369 -94.15234375 130.54296875 C-101.95295851 123.42720453 -106.10453595 113.41568271 -106.58984375 102.91796875 C-106.60924724 101.50924279 -106.61283946 100.1002207 -106.6015625 98.69140625 C-106.59592285 97.94753662 -106.5902832 97.20366699 -106.58447266 96.43725586 C-106.34516373 85.55817718 -102.88004953 75.66720203 -95.0625 67.8359375 C-72.22408087 48.51390989 -38.56299491 49.78429384 -10.2890625 50.06640625 C-10.51244272 46.60582889 -10.77275817 43.14892414 -11.0390625 39.69140625 C-11.1009375 38.72589844 -11.1628125 37.76039063 -11.2265625 36.765625 C-11.88549936 28.58382565 -13.36751047 20.48002853 -19.5390625 14.62890625 C-28.78068801 7.74146324 -40.13676502 7.18636665 -51.27392578 8.67016602 C-62.47762488 10.46986715 -72.85236359 14.74326768 -83.2890625 19.06640625 C-90.2890625 5.31220457 -90.2890625 5.31220457 -90.2890625 0.06640625 C-63.39562797 -11.23335616 -25.03564508 -21.1478572 0 0 Z M-76.1953125 80.65234375 C-81.37404303 86.62334276 -82.64515389 92.99415507 -82.4921875 100.66796875 C-81.85876421 108.14723604 -79.3935415 112.69113853 -73.71484375 117.55859375 C-67.3855049 121.49277216 -61.41957318 122.59850893 -54.0390625 122.50390625 C-52.79116943 122.49254639 -52.79116943 122.49254639 -51.51806641 122.48095703 C-39.79423466 122.16950368 -29.90416432 118.27462681 -21.3203125 110.21875 C-9.8634984 98.00947565 -9.84760828 81.98328336 -10.2890625 66.06640625 C-45.7041543 65.54728189 -45.7041543 65.54728189 -76.1953125 80.65234375 Z "
          fill="#9F0610" transform="translate(1335.2890625,119.93359375)"/>
    <path d="M0 0 C15.27058291 16.17383366 12.82304419 38.98956817 12.7734375 59.62890625 C12.77156959 61.92104054 12.77014745 64.21317523 12.76914978 66.50531006 C12.76535399 72.50243251 12.75554916 78.49953028 12.7444458 84.49664307 C12.73416815 90.63057115 12.72963861 96.76450327 12.72460938 102.8984375 C12.71392393 114.90756286 12.69688328 126.91666999 12.67578125 138.92578125 C6.73578125 138.92578125 0.79578125 138.92578125 -5.32421875 138.92578125 C-7.30421875 129.02578125 -7.30421875 129.02578125 -9.32421875 118.92578125 C-12.81470534 122.41386583 -12.81470534 122.41386583 -16.2890625 125.91796875 C-30.54078167 139.52059972 -46.38152902 141.54084711 -65.24609375 141.23828125 C-78.31320524 140.75875422 -88.56537774 136.13065322 -97.63671875 126.67578125 C-106.47673324 116.23329401 -106.85265229 104.06708897 -106.32421875 90.92578125 C-105.3614712 81.55962295 -100.58369362 72.23354162 -93.2734375 66.24609375 C-69.95466343 48.91507506 -38.11317551 49.31652276 -10.32421875 49.92578125 C-10.60916815 30.70625579 -10.60916815 30.70625579 -19.71484375 14.56640625 C-27.49670556 8.14448146 -37.48950062 7.3991231 -47.18701172 8.14624023 C-59.92536593 9.44061652 -71.64113165 13.95425482 -83.32421875 18.92578125 C-84.3101403 16.86650169 -85.28769369 14.80321437 -86.26171875 12.73828125 C-86.80699219 11.58972656 -87.35226562 10.44117188 -87.9140625 9.2578125 C-89.11882006 6.41111389 -89.87198146 3.9655028 -90.32421875 0.92578125 C-65.41517367 -13.04056195 -23.40458165 -20.88711404 0 0 Z M-76.21875 80.3671875 C-81.01763622 86.19885814 -83.0560336 93.28713187 -82.640625 100.8046875 C-81.61063033 107.70946656 -78.67966716 113.38629172 -73.32421875 117.92578125 C-65.02207828 123.57723832 -53.92704142 122.90454664 -44.32421875 121.92578125 C-32.74752412 119.67616155 -23.14865321 113.54041417 -16.32421875 103.92578125 C-9.39524355 92.7311557 -10.00368547 78.64026784 -10.32421875 65.92578125 C-45.76966376 65.25790946 -45.76966376 65.25790946 -76.21875 80.3671875 Z "
          fill="#9F0610" transform="translate(1113.32421875,120.07421875)"/>
    <path d="M0 0 C15.05829642 15.90268687 13.96486137 37.18955088 13.8203125 57.64453125 C13.81470495 59.99820686 13.81044035 62.35188602 13.80744934 64.70556641 C13.79609175 70.84739146 13.76670444 76.98899767 13.7333374 83.1307373 C13.70243882 89.41915936 13.68890204 95.70761738 13.67382812 101.99609375 C13.64182465 114.29568366 13.58913265 126.59505487 13.52734375 138.89453125 C5.93734375 138.89453125 -1.65265625 138.89453125 -9.47265625 138.89453125 C-9.48723877 135.83196045 -9.50182129 132.76938965 -9.5168457 129.61401367 C-9.56730021 119.46786482 -9.63391442 109.3218677 -9.70837116 99.17586803 C-9.75299918 93.02749645 -9.79227205 86.87918999 -9.8190918 80.73071289 C-9.84520014 74.79131515 -9.88565594 68.85216899 -9.93584251 62.91292763 C-9.95246033 60.65289769 -9.96400614 58.39282428 -9.97027016 56.13274193 C-9.97996658 52.95435917 -10.00809221 49.77661272 -10.0402832 46.59838867 C-10.03884811 45.67481064 -10.03741302 44.7512326 -10.03593445 43.79966736 C-10.19198929 32.82468728 -12.80922883 22.4089211 -20.84765625 14.58203125 C-31.15799973 7.9539533 -43.00528903 7.73407906 -54.8359375 9.35546875 C-63.58615411 11.28482909 -71.55266741 14.65212205 -76.84765625 22.14453125 C-85.63948137 36.99625843 -85.78828298 52.10975832 -85.88671875 68.875 C-85.90545597 70.89952867 -85.92503123 72.92404975 -85.94540405 74.94856262 C-85.9964616 80.24365737 -86.03622758 85.53877736 -86.07354736 90.83398438 C-86.11375346 96.25071319 -86.16476958 101.66733939 -86.21484375 107.08398438 C-86.3112903 117.68743464 -86.39479331 128.29092822 -86.47265625 138.89453125 C-94.39265625 138.89453125 -102.31265625 138.89453125 -110.47265625 138.89453125 C-110.47265625 90.05453125 -110.47265625 41.21453125 -110.47265625 -9.10546875 C-104.20265625 -9.10546875 -97.93265625 -9.10546875 -91.47265625 -9.10546875 C-90.01069981 -3.98862121 -89.16566441 -0.30910071 -88.84765625 4.83203125 C-88.77289062 5.97542969 -88.698125 7.11882812 -88.62109375 8.296875 C-88.57210938 9.15410156 -88.523125 10.01132813 -88.47265625 10.89453125 C-87.79203125 10.21390625 -87.11140625 9.53328125 -86.41015625 8.83203125 C-85.94867187 8.37570313 -85.4871875 7.919375 -85.01171875 7.44921875 C-83.9646417 6.39151148 -82.93906131 5.31218144 -81.93359375 4.21484375 C-62.31703355 -16.70328916 -22.03343598 -18.76148814 0 0 Z "
          fill="#9E0610" transform="translate(1502.47265625,120.10546875)"/>
    <path d="M0 0 C1.09880153 3.29640458 0.95777646 3.85718098 -0.14453125 6.9765625 C-0.40943359 7.729375 -0.67433594 8.4821875 -0.94726562 9.2578125 C-1.23279297 10.03898437 -1.51832031 10.82015625 -1.8125 11.625 C-2.08642578 12.41390625 -2.36035156 13.2028125 -2.64257812 14.015625 C-4.73986951 19.86993475 -4.73986951 19.86993475 -7 21 C-9.64683815 20.27733387 -12.21447499 19.49486412 -14.8125 18.625 C-28.04551896 14.26588787 -44.58251683 11.76386843 -57.71875 17.75 C-58.4715625 18.1625 -59.224375 18.575 -60 19 C-60.7940625 19.4125 -61.588125 19.825 -62.40625 20.25 C-72.05242133 25.90908718 -77.21122315 35.41322154 -80 46 C-81.82372152 53.96521351 -82.35340814 61.65493493 -82.3125 69.8125 C-82.30831055 70.95525391 -82.30412109 72.09800781 -82.29980469 73.27539062 C-82.18904831 81.55619744 -81.53090204 89.067649 -79 97 C-78.73316406 97.89203125 -78.46632813 98.7840625 -78.19140625 99.703125 C-75.18074494 108.42735245 -69.37835505 116.58015168 -61.15625 121.0390625 C-45.13328786 128.17973041 -25.97757007 126.21985256 -9.84130859 120.19384766 C-9.13441895 119.91976074 -8.4275293 119.64567383 -7.69921875 119.36328125 C-4 118 -4 118 -1 118 C-1 124.93 -1 131.86 -1 139 C-21.65439749 147.34965005 -46.78498369 150.64215766 -68 142 C-69.05703125 141.57589844 -70.1140625 141.15179688 -71.203125 140.71484375 C-85.58798488 134.22719966 -95.85475241 122.23073423 -101.97265625 107.83203125 C-106.35469198 95.75227495 -107.2389333 83.80777309 -107.25 71.0625 C-107.25067474 70.36780609 -107.25134949 69.67311218 -107.25204468 68.95736694 C-107.21819463 47.05448602 -102.94142955 26.30373477 -87 10 C-65.1277294 -8.1186136 -25.91857888 -14.7178569 0 0 Z "
          fill="#9F0610" transform="translate(1660,115)"/>
    <path d="M0 0 C7.92 0 15.84 0 24 0 C24 69.3 24 138.6 24 210 C16.08 210 8.16 210 0 210 C0 140.7 0 71.4 0 0 Z "
          fill="#9F0710" transform="translate(1170,49)"/>
</svg>
