<svg id="svg" version="1.1" xmlns="http://www.w3.org/2000/svg" width="400"
     height="56" viewBox="0, 0, 400,56">
    <g id="svgg">
        <path id="path0"
              d="M36.336 1.074 C 36.229 1.400,36.072 1.667,35.987 1.667 C 35.903 1.667,35.845 1.723,35.859 1.792 C 35.898 1.977,35.145 3.567,34.962 3.685 C 34.876 3.741,34.808 3.834,34.811 3.890 C 34.824 4.091,34.117 5.585,33.962 5.685 C 33.876 5.741,33.799 5.854,33.791 5.935 C 33.765 6.218,33.118 7.584,32.962 7.685 C 32.876 7.741,32.799 7.854,32.791 7.935 C 32.765 8.218,32.118 9.584,31.962 9.685 C 31.876 9.741,31.808 9.834,31.811 9.890 C 31.824 10.091,31.117 11.585,30.962 11.685 C 30.876 11.741,30.799 11.854,30.791 11.935 C 30.765 12.218,30.118 13.584,29.962 13.685 C 29.876 13.741,29.815 13.816,29.828 13.852 C 29.874 13.980,29.116 15.586,28.962 15.685 C 28.876 15.741,28.808 15.834,28.811 15.890 C 28.824 16.091,28.117 17.585,27.962 17.685 C 27.876 17.741,27.808 17.834,27.811 17.890 C 27.824 18.091,27.117 19.585,26.962 19.685 C 26.876 19.741,26.808 19.834,26.811 19.890 C 26.824 20.091,26.117 21.585,25.962 21.685 C 25.876 21.741,25.808 21.834,25.811 21.890 C 25.824 22.091,25.117 23.585,24.962 23.685 C 24.876 23.741,24.808 23.834,24.811 23.890 C 24.824 24.091,24.117 25.585,23.962 25.685 C 23.876 25.741,23.808 25.834,23.811 25.890 C 23.824 26.091,23.117 27.585,22.962 27.685 C 22.876 27.741,22.808 27.834,22.811 27.890 C 22.824 28.091,22.117 29.585,21.962 29.685 C 21.876 29.741,21.808 29.834,21.811 29.890 C 21.824 30.091,21.117 31.585,20.962 31.685 C 20.876 31.741,20.818 31.816,20.835 31.852 C 20.851 31.888,20.774 32.115,20.664 32.357 C 20.452 32.821,19.833 32.520,19.833 31.954 C 19.833 31.837,19.717 31.574,19.574 31.370 C 19.431 31.166,19.283 30.836,19.244 30.637 C 19.206 30.438,19.079 30.215,18.962 30.143 C 18.846 30.071,18.744 29.953,18.736 29.881 C 18.706 29.610,18.440 29.072,18.183 28.763 C 18.037 28.587,18.010 28.497,18.123 28.563 C 18.262 28.645,18.297 28.600,18.231 28.426 C 18.176 28.285,18.077 28.202,18.011 28.243 C 17.944 28.285,17.719 27.834,17.510 27.242 C 17.301 26.651,17.065 26.167,16.985 26.167 C 16.905 26.167,16.794 25.985,16.738 25.762 C 16.620 25.293,16.259 25.098,16.038 25.385 C 15.663 25.870,4.167 49.089,4.167 49.362 C 4.167 49.656,5.315 49.667,37.422 49.667 C 74.094 49.667,71.225 49.757,70.528 48.629 C 70.343 48.329,70.184 48.028,70.176 47.960 C 70.145 47.694,68.968 45.333,68.822 45.243 C 68.736 45.190,68.667 45.028,68.667 44.884 C 68.667 44.739,68.442 44.255,68.167 43.808 C 67.892 43.361,67.667 42.889,67.667 42.759 C 67.667 42.630,67.573 42.425,67.458 42.304 C 67.344 42.182,67.148 41.858,67.024 41.583 C 66.900 41.308,66.675 40.825,66.524 40.509 C 66.373 40.193,66.271 39.869,66.296 39.788 C 66.321 39.708,66.265 39.689,66.171 39.747 C 66.077 39.806,66.000 39.752,66.000 39.628 C 66.000 39.505,65.858 39.126,65.685 38.786 C 65.511 38.446,65.322 37.977,65.263 37.744 C 65.205 37.510,65.084 37.365,64.995 37.420 C 64.906 37.475,64.833 37.370,64.833 37.186 C 64.833 37.003,64.764 36.810,64.679 36.758 C 64.595 36.706,64.476 36.438,64.416 36.163 C 64.355 35.888,64.181 35.538,64.028 35.385 C 63.875 35.232,63.747 35.064,63.743 35.012 C 63.712 34.619,63.241 33.704,63.111 33.785 C 63.016 33.843,63.003 33.797,63.079 33.674 C 63.151 33.558,63.144 33.415,63.063 33.356 C 62.910 33.246,62.265 32.045,62.229 31.805 C 62.218 31.729,62.199 31.587,62.188 31.490 C 62.176 31.393,62.092 31.360,62.000 31.417 C 61.908 31.473,61.833 31.423,61.833 31.305 C 61.833 30.962,61.119 29.333,60.969 29.333 C 60.895 29.333,60.833 29.221,60.833 29.083 C 60.833 28.946,60.767 28.833,60.685 28.833 C 60.604 28.833,60.487 28.569,60.427 28.245 C 60.358 27.877,60.248 27.700,60.132 27.771 C 60.016 27.843,59.996 27.808,60.079 27.674 C 60.151 27.558,60.144 27.415,60.063 27.356 C 59.781 27.151,59.009 25.546,59.129 25.414 C 59.195 25.340,59.156 25.334,59.042 25.400 C 58.920 25.470,58.832 25.428,58.830 25.302 C 58.828 25.182,58.673 24.746,58.486 24.333 C 58.299 23.921,58.157 23.554,58.170 23.519 C 58.184 23.483,58.126 23.408,58.041 23.352 C 57.956 23.296,57.307 22.050,56.598 20.583 C 55.890 19.117,55.210 17.729,55.087 17.500 C 54.538 16.471,54.310 16.011,53.825 14.949 C 53.278 13.750,53.024 13.628,52.750 14.432 C 52.658 14.701,52.377 15.271,52.125 15.699 C 51.873 16.126,51.667 16.555,51.667 16.652 C 51.667 16.749,51.442 17.194,51.167 17.641 C 50.892 18.088,50.667 18.538,50.667 18.641 C 50.667 18.744,50.442 19.194,50.167 19.641 C 49.892 20.088,49.667 20.538,49.667 20.641 C 49.667 20.744,49.442 21.194,49.167 21.641 C 48.892 22.088,48.664 22.558,48.661 22.685 C 48.653 23.031,48.172 23.629,48.147 23.324 C 48.136 23.191,48.136 23.027,48.147 22.958 C 48.158 22.890,48.100 22.833,48.019 22.833 C 47.876 22.833,47.612 22.210,47.649 21.958 C 47.659 21.890,47.598 21.833,47.513 21.833 C 47.429 21.833,47.312 21.614,47.253 21.345 C 47.194 21.076,47.038 20.767,46.906 20.658 C 46.774 20.549,46.667 20.385,46.667 20.295 C 46.667 20.045,45.448 17.601,45.253 17.461 C 45.160 17.394,45.149 17.337,45.229 17.336 C 45.309 17.334,45.281 17.221,45.167 17.083 C 45.053 16.946,45.025 16.831,45.105 16.828 C 45.185 16.825,45.119 16.747,44.958 16.653 C 44.798 16.560,44.667 16.348,44.667 16.182 C 44.667 16.016,44.495 15.626,44.286 15.315 C 44.077 15.004,43.771 14.394,43.606 13.958 C 43.441 13.523,43.233 13.167,43.143 13.167 C 43.054 13.167,43.030 13.087,43.090 12.989 C 43.151 12.891,43.076 12.720,42.924 12.609 C 42.772 12.498,42.630 12.297,42.608 12.162 C 42.585 12.027,42.461 11.729,42.332 11.500 C 42.202 11.271,42.116 11.015,42.140 10.932 C 42.164 10.849,42.115 10.736,42.030 10.682 C 41.853 10.569,41.167 9.106,41.167 8.842 C 41.167 8.746,41.098 8.667,41.014 8.667 C 40.929 8.667,40.686 8.217,40.473 7.667 C 40.260 7.117,40.037 6.667,39.979 6.667 C 39.920 6.667,39.699 6.235,39.488 5.708 C 39.277 5.181,39.062 4.712,39.010 4.667 C 38.802 4.482,38.167 3.188,38.167 2.950 C 38.167 2.809,38.110 2.669,38.042 2.639 C 37.900 2.576,37.110 1.004,37.094 0.752 C 37.064 0.291,36.518 0.523,36.336 1.074 M228.667 22.417 L 228.667 43.333 231.000 43.333 L 233.333 43.333 233.333 22.417 L 233.333 1.500 231.000 1.500 L 228.667 1.500 228.667 22.417 M336.958 22.375 L 336.999 43.250 339.208 43.250 L 341.417 43.250 341.520 34.167 C 341.621 25.390,341.734 23.508,342.169 23.361 C 342.259 23.331,342.333 23.173,342.333 23.012 C 342.333 22.620,342.833 21.617,343.111 21.450 C 343.233 21.377,343.333 21.208,343.333 21.074 C 343.333 20.762,344.777 19.333,345.093 19.333 C 345.225 19.333,345.333 19.266,345.333 19.185 C 345.333 18.980,346.387 18.579,347.558 18.338 C 348.610 18.120,350.500 18.021,350.500 18.183 C 350.500 18.238,350.736 18.289,351.024 18.297 C 351.674 18.316,352.426 18.612,353.098 19.114 C 353.381 19.325,353.655 19.456,353.707 19.404 C 353.758 19.353,353.939 19.508,354.109 19.750 C 354.278 19.992,354.588 20.371,354.796 20.592 C 355.139 20.955,355.849 22.330,355.910 22.750 C 355.924 22.842,356.023 23.123,356.130 23.374 C 356.522 24.295,356.684 28.294,356.634 35.776 L 356.583 43.303 359.049 43.325 L 361.515 43.347 361.466 33.199 C 361.429 25.574,361.367 22.991,361.215 22.808 C 361.105 22.675,361.060 22.389,361.117 22.174 C 361.182 21.924,361.156 21.820,361.047 21.888 C 360.945 21.951,360.832 21.728,360.770 21.340 C 360.713 20.980,360.579 20.476,360.472 20.218 C 360.365 19.961,360.269 19.712,360.258 19.667 C 360.248 19.621,360.035 19.266,359.786 18.878 C 359.537 18.491,359.332 18.116,359.330 18.045 C 359.329 17.974,359.141 17.740,358.914 17.524 C 358.686 17.308,358.500 17.060,358.500 16.973 C 358.500 16.885,358.425 16.860,358.333 16.917 C 358.242 16.973,358.167 16.903,358.167 16.760 C 358.167 16.617,358.105 16.500,358.030 16.500 C 357.955 16.500,357.599 16.236,357.239 15.912 C 356.878 15.589,356.415 15.281,356.208 15.227 C 356.002 15.174,355.833 15.051,355.833 14.954 C 355.833 14.857,355.783 14.828,355.722 14.889 C 355.661 14.951,355.492 14.898,355.347 14.772 C 355.202 14.646,354.671 14.448,354.167 14.333 C 353.662 14.217,353.175 14.068,353.083 14.001 C 352.776 13.776,348.833 13.613,348.833 13.826 C 348.833 13.899,348.590 13.938,348.292 13.912 C 347.994 13.886,347.672 13.929,347.577 14.007 C 347.481 14.086,347.174 14.190,346.894 14.239 C 346.613 14.289,346.091 14.456,345.734 14.612 C 345.376 14.767,344.982 14.876,344.858 14.853 C 344.734 14.830,344.677 14.883,344.731 14.970 C 344.815 15.105,344.424 15.317,343.945 15.394 C 343.869 15.407,343.719 15.532,343.612 15.674 C 343.504 15.815,343.137 16.101,342.795 16.310 C 342.454 16.519,342.191 16.765,342.212 16.858 C 342.233 16.951,342.081 17.142,341.875 17.284 L 341.500 17.541 341.500 9.520 L 341.500 1.500 339.208 1.500 L 336.917 1.500 336.958 22.375 M96.979 2.581 C 96.922 2.817,96.874 2.951,96.711 3.343 C 96.613 3.578,96.435 4.103,96.316 4.510 C 96.197 4.917,96.042 5.291,95.971 5.341 C 95.900 5.390,95.815 5.578,95.782 5.757 C 95.658 6.432,95.117 8.087,94.995 8.167 C 94.925 8.212,94.700 8.813,94.495 9.500 C 94.291 10.188,94.064 10.815,93.991 10.895 C 93.919 10.975,93.899 11.144,93.948 11.270 C 93.996 11.397,93.953 11.500,93.851 11.500 C 93.750 11.500,93.679 11.556,93.694 11.625 C 93.708 11.694,93.638 11.948,93.538 12.191 C 93.437 12.433,93.304 12.901,93.243 13.231 C 93.181 13.561,93.079 13.799,93.017 13.761 C 92.955 13.722,92.890 13.863,92.872 14.073 C 92.855 14.283,92.689 14.809,92.504 15.241 C 92.318 15.674,92.167 16.184,92.167 16.375 C 92.167 16.566,92.114 16.670,92.050 16.605 C 91.938 16.494,91.167 18.694,91.167 19.125 C 91.167 19.240,91.083 19.333,90.981 19.333 C 90.876 19.333,90.833 19.480,90.882 19.667 C 90.930 19.850,90.909 19.963,90.836 19.918 C 90.709 19.840,90.561 20.253,90.393 21.148 C 90.352 21.367,90.197 21.817,90.049 22.148 C 89.901 22.479,89.769 22.787,89.756 22.833 C 89.419 23.973,89.067 24.965,88.936 25.139 C 88.844 25.261,88.752 25.486,88.730 25.639 C 88.669 26.068,88.122 27.573,87.993 27.667 C 87.861 27.762,87.681 28.297,87.565 28.939 C 87.521 29.182,87.340 29.680,87.163 30.046 C 86.986 30.412,86.882 30.777,86.931 30.856 C 86.980 30.935,86.946 31.000,86.856 31.000 C 86.767 31.000,86.644 31.244,86.584 31.542 C 86.458 32.168,85.977 33.544,85.842 33.667 C 85.755 33.745,85.705 33.905,85.579 34.500 C 85.549 34.637,85.510 34.769,85.492 34.792 C 85.473 34.815,85.443 34.890,85.424 34.958 C 85.405 35.027,85.328 35.308,85.252 35.583 C 85.177 35.858,85.050 36.126,84.970 36.179 C 84.891 36.231,84.791 36.456,84.748 36.679 C 84.667 37.107,84.465 37.659,83.991 38.750 C 83.832 39.117,83.568 39.904,83.405 40.500 C 83.241 41.096,83.042 41.628,82.962 41.682 C 82.881 41.736,82.832 41.849,82.851 41.932 C 82.871 42.015,82.800 42.294,82.694 42.553 C 82.587 42.811,82.500 43.092,82.500 43.178 C 82.500 43.431,90.756 43.380,90.954 43.125 C 91.240 42.755,91.352 42.303,91.123 42.440 C 90.964 42.536,90.961 42.509,91.109 42.324 C 91.215 42.191,91.434 41.671,91.596 41.167 C 91.758 40.662,91.953 40.208,92.028 40.157 C 92.104 40.106,92.192 39.842,92.223 39.570 C 92.255 39.299,92.380 38.890,92.502 38.663 C 92.623 38.436,92.709 38.231,92.692 38.208 C 92.617 38.106,92.881 37.333,92.990 37.333 C 93.057 37.333,93.114 37.240,93.118 37.125 C 93.121 37.010,93.277 36.467,93.463 35.917 C 93.650 35.367,93.844 34.729,93.894 34.500 L 93.985 34.083 103.561 34.128 L 113.136 34.172 113.330 34.711 C 113.437 35.007,113.561 35.438,113.606 35.667 C 113.650 35.896,113.757 36.108,113.844 36.139 C 113.931 36.170,113.955 36.272,113.896 36.366 C 113.838 36.460,113.857 36.585,113.938 36.644 C 114.162 36.804,115.827 41.665,115.873 42.292 C 115.882 42.406,115.951 42.500,116.028 42.500 C 116.104 42.500,116.167 42.642,116.167 42.816 C 116.167 43.303,116.427 43.333,120.569 43.333 C 124.907 43.333,124.725 43.373,124.411 42.485 C 124.285 42.127,124.217 41.833,124.261 41.833 C 124.305 41.833,124.238 41.665,124.111 41.458 C 123.985 41.252,123.750 40.578,123.589 39.960 C 123.421 39.313,123.226 38.880,123.131 38.939 C 123.028 39.002,123.007 38.906,123.077 38.688 C 123.143 38.477,123.117 38.333,123.011 38.333 C 122.913 38.333,122.833 38.242,122.833 38.130 C 122.833 37.835,122.123 35.599,121.998 35.500 C 121.940 35.454,121.794 35.058,121.673 34.621 C 121.553 34.183,121.390 33.785,121.310 33.736 C 121.231 33.687,121.167 33.501,121.167 33.323 C 121.167 33.146,121.101 33.000,121.022 33.000 C 120.942 33.000,120.789 32.552,120.681 32.005 C 120.573 31.458,120.412 30.966,120.323 30.910 C 120.234 30.855,120.204 30.740,120.257 30.655 C 120.310 30.570,120.270 30.500,120.169 30.500 C 120.068 30.500,120.004 30.406,120.028 30.292 C 120.051 30.177,119.982 29.925,119.875 29.731 C 119.767 29.538,119.636 29.134,119.583 28.834 C 119.531 28.534,119.383 28.140,119.256 27.958 C 119.129 27.777,119.065 27.525,119.114 27.398 C 119.162 27.271,119.136 27.167,119.055 27.167 C 118.973 27.167,118.729 26.532,118.511 25.756 C 118.294 24.980,118.063 24.377,118.000 24.417 C 117.936 24.456,117.794 24.088,117.685 23.599 C 117.575 23.109,117.339 22.421,117.159 22.069 C 116.980 21.717,116.833 21.308,116.833 21.159 C 116.833 21.011,116.777 20.833,116.708 20.764 C 116.640 20.695,116.574 20.570,116.563 20.486 C 116.551 20.402,116.527 20.315,116.508 20.292 C 116.490 20.269,116.442 20.066,116.400 19.842 C 116.359 19.618,116.224 19.318,116.100 19.175 C 115.977 19.033,115.826 18.639,115.765 18.299 C 115.704 17.959,115.545 17.471,115.411 17.215 C 115.278 16.959,115.168 16.596,115.168 16.408 C 115.167 16.220,115.099 15.995,115.016 15.908 C 114.847 15.730,114.343 14.303,114.225 13.667 C 114.182 13.438,114.076 13.225,113.990 13.194 C 113.904 13.164,113.833 13.000,113.833 12.829 C 113.833 12.659,113.758 12.473,113.667 12.417 C 113.575 12.360,113.500 12.164,113.500 11.981 C 113.500 11.798,113.341 11.300,113.147 10.873 C 112.953 10.447,112.780 10.020,112.763 9.924 C 112.694 9.538,112.281 8.405,112.146 8.235 C 112.067 8.135,112.056 7.999,112.122 7.934 C 112.187 7.869,112.162 7.763,112.066 7.699 C 111.971 7.636,111.759 7.096,111.597 6.500 C 111.434 5.904,111.196 5.192,111.068 4.917 C 110.941 4.642,110.691 4.004,110.514 3.500 L 110.192 2.583 103.596 2.540 C 99.968 2.516,96.991 2.535,96.979 2.581 M104.667 9.923 C 104.667 10.155,104.773 10.511,104.903 10.714 C 105.033 10.917,105.308 11.702,105.513 12.458 C 105.718 13.215,105.938 13.833,106.002 13.833 C 106.067 13.833,106.290 14.469,106.499 15.246 C 106.708 16.023,106.938 16.622,107.010 16.577 C 107.083 16.532,107.231 16.928,107.339 17.456 C 107.447 17.984,107.602 18.499,107.683 18.599 C 107.764 18.699,107.781 18.830,107.721 18.890 C 107.660 18.951,107.696 19.000,107.800 19.000 C 107.909 19.000,107.945 19.124,107.885 19.292 C 107.825 19.458,107.844 19.525,107.929 19.447 C 108.056 19.331,108.294 19.978,108.583 21.225 C 108.622 21.395,108.738 21.636,108.841 21.760 C 108.944 21.884,108.980 22.064,108.921 22.159 C 108.862 22.255,108.888 22.333,108.978 22.333 C 109.069 22.333,109.225 22.728,109.325 23.211 C 109.425 23.694,109.618 24.302,109.753 24.562 C 109.888 24.822,109.957 25.102,109.906 25.184 C 109.855 25.266,109.878 25.333,109.957 25.333 C 110.088 25.333,110.301 25.832,110.580 26.792 L 110.689 27.167 103.659 27.167 L 96.630 27.167 96.747 26.542 C 96.811 26.199,96.936 25.873,97.024 25.818 C 97.112 25.764,97.164 25.651,97.140 25.568 C 97.116 25.485,97.183 25.260,97.290 25.067 C 97.397 24.875,97.518 24.538,97.560 24.317 C 97.602 24.097,97.733 23.692,97.851 23.417 C 97.969 23.142,98.073 22.842,98.083 22.750 C 98.122 22.375,98.721 20.723,98.949 20.361 C 99.083 20.146,99.152 19.930,99.101 19.879 C 99.050 19.828,99.112 19.591,99.238 19.352 C 99.500 18.854,99.911 17.484,99.860 17.279 C 99.841 17.204,99.892 17.183,99.974 17.234 C 100.056 17.284,100.296 16.709,100.509 15.955 C 100.721 15.200,100.967 14.535,101.055 14.475 C 101.143 14.416,101.171 14.252,101.117 14.111 C 101.063 13.970,101.094 13.830,101.185 13.799 C 101.277 13.769,101.370 13.633,101.394 13.497 C 101.528 12.706,101.910 11.527,102.010 11.590 C 102.076 11.630,102.168 11.514,102.216 11.331 C 102.263 11.149,102.241 11.037,102.166 11.084 C 102.091 11.130,102.173 10.871,102.348 10.509 C 102.523 10.146,102.667 9.771,102.667 9.675 C 102.667 9.572,103.080 9.500,103.667 9.500 C 104.626 9.500,104.667 9.517,104.667 9.923 M143.167 13.787 C 143.167 13.858,142.850 13.908,142.462 13.898 C 142.074 13.887,141.642 13.936,141.503 14.007 C 141.364 14.078,140.912 14.225,140.500 14.334 C 140.087 14.443,139.606 14.657,139.430 14.808 C 139.181 15.022,139.142 15.028,139.256 14.833 C 139.366 14.646,139.300 14.657,138.993 14.880 C 138.768 15.043,138.355 15.281,138.076 15.409 C 137.797 15.537,137.141 16.060,136.618 16.571 C 136.095 17.082,135.665 17.406,135.663 17.292 C 135.655 16.916,135.489 15.262,135.403 14.708 L 135.318 14.167 131.826 14.167 L 128.333 14.167 128.333 34.500 L 128.333 54.833 132.250 54.833 C 134.896 54.833,136.167 54.776,136.167 54.657 C 136.167 54.560,136.110 54.515,136.042 54.558 C 135.973 54.600,135.937 51.440,135.962 47.534 L 136.007 40.434 136.494 40.967 C 136.762 41.260,137.064 41.500,137.164 41.500 C 137.265 41.500,137.512 41.653,137.713 41.841 C 138.107 42.208,138.945 42.667,139.221 42.667 C 139.314 42.667,139.517 42.781,139.672 42.922 C 139.827 43.062,140.171 43.210,140.435 43.250 C 140.700 43.291,141.197 43.393,141.540 43.477 C 142.461 43.704,146.310 43.712,147.260 43.489 C 147.713 43.383,148.256 43.273,148.467 43.245 C 148.678 43.217,149.351 42.944,149.962 42.639 C 151.048 42.096,151.178 42.014,151.782 41.500 C 151.943 41.362,152.101 41.275,152.134 41.306 C 152.211 41.379,153.667 40.052,153.667 39.909 C 153.667 39.848,153.858 39.647,154.092 39.463 C 154.326 39.279,154.482 39.093,154.439 39.050 C 154.396 39.007,154.468 38.847,154.598 38.694 C 154.729 38.542,154.832 38.356,154.827 38.283 C 154.823 38.209,154.976 38.021,155.168 37.866 C 155.360 37.710,155.540 37.470,155.567 37.333 C 155.637 36.980,155.873 36.432,155.998 36.333 C 156.123 36.235,156.833 33.998,156.833 33.704 C 156.833 33.592,156.917 33.500,157.019 33.500 C 157.129 33.500,157.172 33.326,157.125 33.079 C 157.081 32.848,157.101 32.624,157.169 32.582 C 157.418 32.428,157.507 26.954,157.282 25.667 C 157.210 25.254,157.153 24.748,157.157 24.542 C 157.160 24.335,157.089 24.167,156.998 24.167 C 156.907 24.167,156.833 24.026,156.833 23.854 C 156.833 23.682,156.720 23.222,156.582 22.830 C 156.444 22.439,156.299 21.941,156.260 21.725 C 156.220 21.508,156.077 21.220,155.941 21.084 C 155.805 20.948,155.645 20.614,155.585 20.341 C 155.525 20.068,155.295 19.674,155.074 19.464 C 154.853 19.255,154.671 18.983,154.670 18.861 C 154.668 18.739,154.107 18.101,153.424 17.444 C 151.738 15.824,151.377 15.537,150.726 15.302 C 150.418 15.191,150.167 15.052,150.167 14.995 C 150.167 14.937,149.623 14.719,148.958 14.511 C 148.294 14.303,147.637 14.078,147.500 14.011 C 147.362 13.944,146.935 13.901,146.550 13.916 C 146.164 13.931,145.882 13.889,145.922 13.824 C 145.962 13.759,145.359 13.695,144.581 13.682 C 143.803 13.669,143.167 13.716,143.167 13.787 M177.333 13.823 C 177.104 13.883,176.748 13.919,176.542 13.905 C 176.335 13.891,176.167 13.944,176.167 14.023 C 176.167 14.102,175.998 14.170,175.792 14.174 C 175.585 14.178,175.117 14.293,174.750 14.431 C 174.383 14.568,173.937 14.713,173.758 14.753 C 173.580 14.794,173.369 14.943,173.290 15.084 C 173.211 15.225,173.076 15.297,172.990 15.244 C 172.904 15.190,172.833 15.218,172.833 15.305 C 172.833 15.393,172.643 15.512,172.410 15.570 C 172.177 15.629,172.031 15.748,172.085 15.836 C 172.140 15.925,172.069 15.952,171.925 15.897 C 171.783 15.842,171.667 15.873,171.667 15.966 C 171.667 16.058,171.400 16.291,171.074 16.484 C 170.747 16.676,170.522 16.901,170.573 16.983 C 170.623 17.065,170.567 17.169,170.447 17.215 C 170.297 17.273,170.218 17.112,170.192 16.691 C 170.149 16.000,170.094 15.691,169.950 15.333 C 169.895 15.196,169.827 14.896,169.800 14.667 L 169.750 14.250 166.583 14.203 C 164.842 14.177,163.247 14.197,163.040 14.248 L 162.664 14.340 162.668 34.587 L 162.672 54.833 166.586 54.833 L 170.500 54.833 170.500 47.744 L 170.500 40.655 170.875 40.854 C 171.081 40.963,171.348 41.191,171.468 41.360 C 171.588 41.529,171.782 41.667,171.900 41.667 C 172.018 41.667,172.240 41.805,172.393 41.974 C 172.546 42.142,173.078 42.419,173.576 42.588 C 174.074 42.757,174.443 42.957,174.397 43.031 C 174.351 43.106,174.449 43.175,174.615 43.186 C 174.931 43.206,175.192 43.255,175.333 43.322 C 175.929 43.601,180.994 43.699,182.233 43.455 C 183.409 43.224,183.665 43.133,183.572 42.982 C 183.522 42.900,183.626 42.833,183.803 42.833 C 184.267 42.833,185.393 42.338,185.550 42.065 C 185.623 41.938,185.792 41.833,185.925 41.833 C 186.058 41.833,186.167 41.763,186.167 41.678 C 186.167 41.592,186.312 41.476,186.489 41.420 C 186.926 41.281,188.833 39.320,188.833 39.009 C 188.833 38.923,188.972 38.754,189.141 38.634 C 189.310 38.515,189.588 38.117,189.759 37.750 C 189.931 37.383,190.167 36.984,190.285 36.863 C 190.403 36.742,190.546 36.442,190.603 36.197 C 190.660 35.951,190.808 35.587,190.932 35.388 C 191.056 35.189,191.200 34.776,191.251 34.471 C 191.303 34.166,191.383 33.791,191.430 33.638 C 191.607 33.053,191.673 32.529,191.777 30.869 C 191.836 29.926,191.948 29.115,192.026 29.067 C 192.103 29.020,192.167 28.905,192.167 28.814 C 192.167 28.722,192.108 28.683,192.036 28.728 C 191.964 28.772,191.899 28.683,191.892 28.529 C 191.885 28.376,191.860 27.688,191.837 27.000 C 191.813 26.313,191.723 25.375,191.637 24.917 C 191.550 24.458,191.447 23.859,191.409 23.584 C 191.370 23.310,191.271 23.062,191.187 23.035 C 191.104 23.007,191.077 22.826,191.127 22.633 C 191.190 22.393,191.158 22.319,191.026 22.400 C 190.901 22.478,190.833 22.383,190.833 22.130 C 190.833 21.916,190.703 21.555,190.545 21.329 C 190.386 21.102,190.284 20.917,190.319 20.917 C 190.354 20.917,190.329 20.748,190.263 20.542 C 190.198 20.335,190.086 20.167,190.014 20.167 C 189.943 20.167,189.749 19.867,189.583 19.500 C 189.418 19.133,189.207 18.833,189.114 18.833 C 189.021 18.833,188.987 18.790,189.040 18.738 C 189.134 18.644,187.339 16.774,186.462 16.051 C 185.763 15.474,183.251 14.339,182.425 14.225 C 182.012 14.169,181.707 14.069,181.747 14.005 C 181.787 13.940,181.523 13.895,181.160 13.906 C 180.797 13.916,180.500 13.865,180.500 13.791 C 180.500 13.637,177.953 13.662,177.333 13.823 M207.933 13.807 C 207.892 13.874,207.646 13.917,207.387 13.903 C 207.128 13.889,206.809 13.962,206.676 14.064 C 206.484 14.213,206.466 14.200,206.583 14.000 C 206.702 13.799,206.683 13.787,206.490 13.939 C 206.358 14.043,205.987 14.179,205.667 14.242 C 204.807 14.409,203.433 14.891,203.305 15.070 C 203.244 15.156,203.092 15.241,202.967 15.260 C 202.590 15.315,201.660 15.938,201.778 16.056 C 201.839 16.117,201.772 16.167,201.629 16.167 C 201.486 16.167,201.326 16.280,201.272 16.418 C 201.219 16.557,201.118 16.652,201.046 16.631 C 200.871 16.579,199.850 17.628,199.965 17.743 C 200.015 17.792,199.936 17.833,199.789 17.833 C 199.642 17.833,199.470 18.002,199.405 18.208 C 199.341 18.415,199.112 18.761,198.897 18.978 C 198.681 19.196,198.546 19.440,198.596 19.520 C 198.646 19.601,198.615 19.667,198.528 19.667 C 198.442 19.667,198.321 19.931,198.260 20.255 C 198.199 20.578,198.079 20.799,197.992 20.745 C 197.905 20.691,197.824 20.764,197.813 20.907 C 197.787 21.227,197.757 21.335,197.588 21.720 C 197.506 21.908,197.536 22.097,197.669 22.220 C 197.837 22.375,197.853 22.364,197.742 22.167 C 197.626 21.958,197.646 21.951,197.863 22.128 C 198.007 22.244,198.527 22.458,199.020 22.604 C 199.513 22.749,200.067 22.952,200.250 23.053 C 200.433 23.155,200.640 23.250,200.708 23.265 C 200.777 23.280,200.852 23.307,200.875 23.326 C 201.128 23.536,201.809 23.459,201.892 23.211 C 201.946 23.049,202.061 22.804,202.148 22.667 C 202.235 22.529,202.437 22.117,202.597 21.750 C 202.870 21.123,204.220 19.667,204.527 19.667 C 204.604 19.667,204.667 19.592,204.667 19.500 C 204.667 19.408,204.811 19.333,204.988 19.333 C 205.165 19.333,205.417 19.226,205.548 19.095 C 206.384 18.259,211.041 17.975,212.356 18.679 C 212.527 18.770,212.667 18.792,212.667 18.727 C 212.667 18.662,212.854 18.785,213.083 19.000 C 213.313 19.215,213.500 19.342,213.500 19.281 C 213.500 19.148,214.106 19.626,214.482 20.056 C 215.226 20.904,215.350 21.106,215.520 21.736 C 215.622 22.110,215.742 22.529,215.787 22.667 C 215.881 22.951,215.844 25.379,215.744 25.478 C 215.708 25.514,215.151 25.581,214.506 25.628 C 213.861 25.674,213.333 25.760,213.333 25.819 C 213.333 25.878,212.921 25.910,212.417 25.891 C 211.912 25.872,211.500 25.916,211.500 25.989 C 211.500 26.061,210.844 26.172,210.042 26.235 C 206.582 26.506,205.167 26.718,203.250 27.250 C 202.170 27.550,200.333 28.454,200.117 28.792 C 200.043 28.906,199.909 29.000,199.818 29.000 C 199.370 29.000,197.763 30.722,197.409 31.580 C 197.238 31.995,197.044 32.333,196.978 32.333 C 196.409 32.333,196.396 38.429,196.964 38.821 C 197.040 38.874,197.206 39.173,197.333 39.487 C 197.599 40.144,199.222 41.833,199.587 41.833 C 199.722 41.833,199.833 41.950,199.833 42.093 C 199.833 42.236,199.908 42.307,200.000 42.250 C 200.092 42.193,200.167 42.231,200.167 42.333 C 200.167 42.436,200.242 42.473,200.333 42.417 C 200.425 42.360,200.500 42.385,200.500 42.472 C 200.500 42.558,200.765 42.679,201.088 42.740 C 201.411 42.801,201.639 42.910,201.594 42.983 C 201.232 43.568,209.210 43.873,210.250 43.315 C 210.525 43.167,210.854 43.083,210.982 43.128 C 211.111 43.174,211.167 43.135,211.108 43.040 C 211.048 42.943,211.250 42.824,211.579 42.762 C 211.897 42.702,212.271 42.539,212.411 42.398 C 212.552 42.258,212.667 42.200,212.667 42.270 C 212.667 42.340,212.760 42.289,212.875 42.157 C 213.258 41.714,214.220 40.914,214.083 41.151 C 213.993 41.308,214.012 41.346,214.141 41.266 C 214.247 41.201,214.333 41.048,214.333 40.926 C 214.333 40.804,214.521 40.582,214.750 40.432 C 214.979 40.282,215.167 40.048,215.167 39.913 C 215.167 39.777,215.240 39.667,215.330 39.667 C 215.420 39.667,215.541 39.479,215.598 39.250 C 215.758 38.613,215.974 38.754,215.909 39.452 C 215.878 39.793,215.918 40.152,216.000 40.250 C 216.081 40.348,216.162 41.082,216.180 41.881 L 216.212 43.333 218.359 43.333 L 220.507 43.333 220.442 32.208 C 220.371 19.890,220.386 20.448,220.128 20.607 C 220.009 20.681,219.981 20.624,220.048 20.449 C 220.105 20.299,220.043 19.968,219.910 19.713 C 219.778 19.459,219.668 19.156,219.668 19.042 C 219.667 18.927,219.587 18.833,219.490 18.833 C 219.393 18.833,219.359 18.760,219.414 18.671 C 219.469 18.582,219.361 18.378,219.174 18.217 C 218.987 18.057,218.833 17.864,218.833 17.789 C 218.833 17.440,217.024 15.667,216.668 15.667 C 216.576 15.667,216.500 15.593,216.500 15.503 C 216.500 15.413,216.313 15.293,216.083 15.235 C 215.854 15.178,215.667 15.056,215.667 14.964 C 215.667 14.873,215.550 14.842,215.408 14.897 C 215.266 14.952,215.188 14.934,215.235 14.857 C 215.334 14.697,213.549 14.167,212.909 14.167 C 212.673 14.167,212.517 14.108,212.561 14.036 C 212.654 13.885,212.274 13.847,209.796 13.753 C 208.812 13.716,207.974 13.740,207.933 13.807 M251.588 13.841 C 251.622 13.896,251.316 13.923,250.908 13.900 C 250.500 13.876,250.167 13.915,250.167 13.984 C 250.167 14.054,249.735 14.199,249.208 14.306 C 248.681 14.413,248.175 14.526,248.083 14.558 C 246.881 14.977,245.491 15.722,245.315 16.042 C 245.227 16.202,245.076 16.333,244.980 16.333 C 244.747 16.333,243.167 17.915,243.167 18.149 C 243.167 18.250,243.087 18.333,242.991 18.333 C 242.894 18.333,242.665 18.671,242.483 19.083 C 242.300 19.496,242.072 19.833,241.974 19.833 C 241.877 19.833,241.839 19.940,241.889 20.071 C 241.939 20.202,241.881 20.391,241.760 20.492 C 241.639 20.592,241.499 20.879,241.448 21.129 C 241.398 21.379,241.312 21.699,241.257 21.840 C 241.166 22.077,242.306 22.639,243.150 22.774 C 243.278 22.794,243.437 22.898,243.502 23.003 C 243.567 23.109,243.669 23.186,243.729 23.175 C 243.788 23.164,244.131 23.242,244.489 23.350 C 245.345 23.606,245.601 23.486,245.737 22.763 C 245.798 22.435,245.920 22.167,246.008 22.167 C 246.095 22.167,246.167 22.025,246.167 21.851 C 246.167 21.678,246.279 21.492,246.417 21.440 C 246.554 21.387,246.667 21.258,246.667 21.152 C 246.667 20.956,247.961 19.584,248.147 19.583 C 248.204 19.582,248.600 19.376,249.028 19.125 C 250.260 18.402,253.224 18.034,254.917 18.394 C 255.943 18.612,256.667 18.866,256.667 19.006 C 256.667 19.095,256.817 19.167,257.000 19.167 C 257.183 19.167,257.333 19.243,257.333 19.337 C 257.333 19.431,257.502 19.584,257.708 19.678 C 258.084 19.850,258.937 20.974,258.869 21.208 C 258.850 21.277,258.899 21.333,258.980 21.333 C 259.235 21.333,259.500 22.764,259.500 24.141 L 259.500 25.469 258.708 25.570 C 258.273 25.626,257.617 25.714,257.250 25.766 C 256.883 25.817,256.265 25.862,255.875 25.865 C 255.485 25.868,255.167 25.923,255.167 25.988 C 255.167 26.053,254.023 26.200,252.625 26.316 C 251.227 26.432,249.633 26.601,249.083 26.693 C 248.533 26.784,247.993 26.866,247.882 26.874 C 247.772 26.882,247.720 26.951,247.767 27.028 C 247.814 27.104,247.680 27.167,247.468 27.168 C 245.922 27.176,241.500 29.881,241.500 30.820 C 241.500 30.884,241.346 31.102,241.158 31.304 C 240.970 31.506,240.869 31.757,240.934 31.861 C 240.999 31.966,240.980 32.007,240.892 31.953 C 240.041 31.427,239.990 37.396,240.832 39.083 C 241.316 40.055,242.778 41.833,243.093 41.833 C 243.141 41.833,243.343 41.985,243.541 42.170 C 243.740 42.354,244.187 42.582,244.535 42.676 C 244.882 42.770,245.167 42.910,245.167 42.987 C 245.167 43.064,245.317 43.167,245.500 43.215 C 245.700 43.267,245.792 43.235,245.730 43.134 C 245.673 43.042,245.804 43.065,246.022 43.184 C 247.239 43.854,254.283 43.707,254.833 43.001 C 254.879 42.942,255.225 42.772,255.601 42.624 C 255.978 42.476,256.516 42.144,256.796 41.886 C 257.077 41.628,257.614 41.154,257.989 40.833 C 258.364 40.512,258.716 40.082,258.770 39.876 C 258.824 39.671,258.936 39.544,259.018 39.594 C 259.100 39.645,259.167 39.569,259.167 39.427 C 259.167 39.284,259.246 39.167,259.343 39.167 C 259.440 39.167,259.466 39.073,259.400 38.958 C 259.334 38.844,259.338 38.802,259.409 38.867 C 259.547 38.991,259.635 39.779,259.696 41.458 C 259.717 42.031,259.799 42.500,259.877 42.500 C 259.956 42.500,259.997 42.669,259.969 42.875 C 259.917 43.246,259.938 43.250,262.125 43.279 L 264.333 43.307 264.333 33.404 C 264.333 27.957,264.273 23.500,264.200 23.500 C 264.126 23.500,264.075 23.087,264.087 22.583 C 264.098 22.079,264.046 21.667,263.970 21.667 C 263.895 21.667,263.831 21.423,263.828 21.125 C 263.821 20.458,263.263 18.792,263.101 18.955 C 263.036 19.020,263.032 18.944,263.092 18.787 C 263.153 18.629,263.124 18.500,263.029 18.500 C 262.934 18.500,262.804 18.337,262.741 18.137 C 262.599 17.691,260.663 15.670,260.375 15.668 C 260.260 15.667,260.167 15.587,260.167 15.490 C 260.167 15.393,260.103 15.353,260.025 15.401 C 259.947 15.449,259.721 15.337,259.523 15.152 C 259.325 14.968,259.095 14.858,259.012 14.909 C 258.929 14.960,258.836 14.925,258.805 14.831 C 258.773 14.736,258.530 14.620,258.265 14.572 C 257.999 14.524,257.648 14.413,257.485 14.325 C 257.322 14.238,257.001 14.167,256.771 14.167 C 256.541 14.167,256.311 14.098,256.259 14.014 C 256.207 13.930,255.865 13.881,255.499 13.904 C 255.133 13.927,254.833 13.893,254.833 13.827 C 254.833 13.761,254.089 13.714,253.179 13.723 C 252.270 13.732,251.554 13.785,251.588 13.841 M284.000 13.821 C 284.000 13.899,283.737 13.938,283.417 13.907 C 283.096 13.876,282.833 13.912,282.833 13.987 C 282.833 14.062,282.552 14.163,282.208 14.211 C 281.865 14.260,281.358 14.395,281.083 14.511 C 280.530 14.745,280.415 14.782,280.157 14.813 C 280.060 14.824,280.034 14.920,280.099 15.026 C 280.170 15.140,280.145 15.173,280.039 15.108 C 279.941 15.047,279.747 15.110,279.609 15.248 C 279.470 15.387,279.278 15.500,279.182 15.500 C 279.085 15.500,278.499 16.006,277.878 16.625 L 276.750 17.750 276.667 16.000 L 276.583 14.250 274.458 14.203 L 272.333 14.157 272.333 28.745 L 272.333 43.333 274.583 43.333 L 276.833 43.333 276.833 35.010 C 276.833 30.432,276.895 26.648,276.970 26.602 C 277.045 26.556,277.096 26.134,277.084 25.666 C 277.072 25.198,277.117 24.781,277.183 24.740 C 277.250 24.699,277.354 24.347,277.416 23.957 C 277.567 22.997,277.866 22.167,278.061 22.167 C 278.150 22.167,278.174 22.119,278.116 22.060 C 277.983 21.928,278.582 21.045,279.154 20.530 C 279.390 20.317,279.471 20.197,279.333 20.262 C 279.196 20.328,279.249 20.221,279.451 20.025 C 279.654 19.828,279.893 19.667,279.984 19.667 C 280.074 19.667,280.265 19.500,280.407 19.296 C 280.550 19.093,280.667 18.989,280.667 19.067 C 280.667 19.144,280.760 19.133,280.875 19.043 C 281.233 18.759,282.902 18.222,283.208 18.291 C 283.369 18.328,283.500 18.295,283.500 18.218 C 283.500 17.656,288.125 18.486,288.632 19.139 C 288.751 19.292,288.884 19.395,288.927 19.369 C 289.078 19.278,289.452 19.584,289.648 19.958 C 289.756 20.165,289.955 20.333,290.089 20.333 C 290.223 20.333,290.333 20.435,290.333 20.560 C 290.333 20.685,290.530 21.077,290.771 21.432 C 291.206 22.072,291.867 24.078,291.699 24.246 C 291.651 24.294,291.690 24.333,291.787 24.333 C 291.888 24.333,291.940 24.581,291.908 24.912 C 291.877 25.231,291.922 25.535,292.009 25.589 C 292.096 25.643,292.166 25.776,292.164 25.885 C 292.163 26.004,292.097 25.984,292.000 25.833 C 291.903 25.683,291.837 25.663,291.836 25.782 C 291.834 25.891,291.908 26.027,292.000 26.083 C 292.108 26.150,292.167 29.224,292.167 34.760 L 292.167 43.333 294.419 43.333 L 296.672 43.333 296.658 33.625 C 296.644 23.755,296.522 21.546,295.955 20.862 C 295.851 20.737,295.744 20.496,295.719 20.327 C 295.693 20.157,295.526 19.759,295.348 19.442 C 295.169 19.125,295.075 18.809,295.137 18.739 C 295.199 18.670,295.165 18.662,295.061 18.721 C 294.950 18.785,294.782 18.612,294.654 18.303 C 294.405 17.702,292.264 15.500,291.929 15.500 C 291.807 15.500,291.611 15.383,291.492 15.241 C 291.186 14.872,290.581 14.557,290.759 14.858 C 290.837 14.991,290.760 14.971,290.570 14.808 C 290.394 14.657,289.912 14.442,289.500 14.331 C 289.087 14.220,288.637 14.088,288.500 14.039 C 287.932 13.836,287.668 13.806,285.875 13.743 C 284.844 13.707,284.000 13.742,284.000 13.821 M315.500 13.809 C 315.500 13.868,315.219 13.907,314.875 13.895 C 314.531 13.884,314.175 13.931,314.083 14.002 C 313.992 14.072,313.579 14.184,313.167 14.250 C 312.754 14.317,312.342 14.417,312.250 14.473 C 312.158 14.528,311.937 14.596,311.759 14.624 C 311.580 14.652,311.318 14.771,311.175 14.889 C 311.033 15.007,310.579 15.246,310.167 15.420 C 309.754 15.594,309.240 15.905,309.025 16.112 C 308.809 16.319,308.489 16.534,308.314 16.589 C 308.139 16.645,308.038 16.760,308.091 16.845 C 308.143 16.930,308.094 17.000,307.982 17.000 C 307.870 17.000,307.659 17.109,307.514 17.242 C 306.396 18.268,305.937 18.802,305.444 19.649 C 305.251 19.980,304.998 20.349,304.880 20.470 C 304.763 20.591,304.667 20.831,304.667 21.002 C 304.667 21.173,304.600 21.355,304.519 21.405 C 304.438 21.455,304.321 21.762,304.260 22.086 C 304.200 22.411,304.090 22.639,304.017 22.594 C 303.840 22.484,303.342 24.590,303.220 25.972 C 303.165 26.583,303.067 27.158,303.002 27.250 C 302.861 27.446,302.892 30.136,303.039 30.500 C 303.094 30.637,303.179 31.200,303.227 31.750 C 303.276 32.300,303.365 32.938,303.426 33.167 C 303.487 33.396,303.574 33.826,303.620 34.124 C 303.666 34.421,303.769 34.623,303.850 34.573 C 303.930 34.523,303.949 34.607,303.890 34.758 C 303.832 34.910,303.856 35.082,303.943 35.142 C 304.029 35.201,304.235 35.608,304.399 36.045 C 304.562 36.482,304.802 36.945,304.932 37.074 C 305.061 37.204,305.167 37.371,305.167 37.446 C 305.167 37.522,305.464 37.918,305.827 38.326 C 306.189 38.735,306.458 39.098,306.423 39.132 C 306.305 39.250,306.907 39.833,307.148 39.833 C 307.281 39.833,307.345 39.877,307.292 39.931 C 307.175 40.047,307.766 40.667,307.994 40.667 C 308.083 40.667,308.239 40.823,308.341 41.014 C 308.443 41.205,308.569 41.320,308.620 41.269 C 308.671 41.218,309.001 41.404,309.354 41.683 C 309.706 41.962,310.071 42.142,310.165 42.084 C 310.259 42.026,310.376 42.085,310.426 42.215 C 310.476 42.345,311.001 42.590,311.592 42.759 C 312.183 42.928,312.667 43.110,312.667 43.164 C 312.667 43.218,312.798 43.273,312.958 43.287 C 313.119 43.300,313.558 43.379,313.934 43.462 C 315.689 43.849,321.564 43.602,321.857 43.129 C 321.917 43.031,322.086 42.998,322.233 43.054 C 322.380 43.110,322.500 43.084,322.500 42.995 C 322.500 42.906,322.620 42.833,322.766 42.833 C 322.912 42.833,323.231 42.727,323.474 42.596 C 323.718 42.466,324.029 42.313,324.167 42.255 C 324.304 42.198,324.717 41.967,325.083 41.742 C 325.450 41.517,325.881 41.286,326.042 41.230 C 326.202 41.174,326.333 41.068,326.333 40.994 C 326.333 40.921,326.596 40.698,326.918 40.499 C 327.239 40.301,327.467 40.081,327.423 40.011 C 327.380 39.941,327.528 39.785,327.753 39.665 C 327.977 39.545,328.199 39.327,328.245 39.182 C 328.292 39.036,328.501 38.729,328.710 38.500 C 328.919 38.271,329.275 37.690,329.501 37.208 C 329.727 36.727,329.965 36.333,330.029 36.333 C 330.218 36.333,330.117 35.724,329.925 35.703 C 329.413 35.647,327.669 35.054,327.756 34.966 C 327.813 34.909,327.443 34.770,326.935 34.656 C 325.968 34.440,325.500 34.583,325.500 35.094 C 325.500 35.215,325.342 35.425,325.149 35.561 C 324.927 35.716,324.844 35.888,324.925 36.028 C 324.996 36.150,325.003 36.206,324.942 36.151 C 324.880 36.097,324.401 36.448,323.877 36.932 C 323.353 37.417,322.890 37.779,322.849 37.738 C 322.808 37.697,322.609 37.820,322.405 38.011 C 322.202 38.201,321.934 38.378,321.810 38.404 C 321.685 38.430,321.396 38.528,321.167 38.622 C 320.938 38.717,320.682 38.754,320.599 38.705 C 320.516 38.655,320.506 38.708,320.576 38.822 C 320.666 38.967,320.587 39.017,320.310 38.990 C 320.094 38.968,319.767 39.018,319.583 39.100 C 319.049 39.340,315.241 39.269,314.933 39.013 C 314.789 38.894,314.554 38.841,314.410 38.896 C 314.267 38.951,314.186 38.936,314.231 38.863 C 314.277 38.790,313.988 38.643,313.591 38.537 C 313.193 38.431,312.750 38.226,312.606 38.083 C 312.463 37.939,312.312 37.843,312.272 37.869 C 312.165 37.939,311.367 37.190,310.444 36.155 C 309.564 35.167,308.793 33.682,308.494 32.401 C 308.389 31.951,308.264 31.471,308.216 31.333 C 308.077 30.937,308.070 26.500,308.208 26.500 C 308.277 26.500,308.333 26.256,308.333 25.958 C 308.332 25.338,308.815 23.857,309.125 23.530 C 309.239 23.409,309.333 23.170,309.333 23.000 C 309.333 22.830,309.449 22.575,309.589 22.435 C 309.730 22.294,309.845 22.139,309.844 22.091 C 309.840 21.829,310.055 21.514,310.184 21.594 C 310.266 21.645,310.333 21.593,310.333 21.480 C 310.333 21.248,311.457 20.167,311.697 20.167 C 311.783 20.167,311.813 20.102,311.764 20.023 C 311.716 19.944,312.011 19.741,312.421 19.572 C 312.831 19.403,313.167 19.201,313.167 19.123 C 313.167 19.044,313.235 19.023,313.319 19.075 C 313.403 19.126,313.497 19.093,313.528 18.999 C 313.589 18.817,313.802 18.758,315.583 18.432 C 316.710 18.225,318.024 18.221,319.417 18.419 C 320.416 18.561,321.689 18.922,321.580 19.031 C 321.505 19.106,322.437 19.530,322.624 19.506 C 322.647 19.504,322.835 19.646,323.041 19.824 C 323.248 20.001,323.597 20.301,323.817 20.490 C 324.037 20.679,324.286 20.833,324.369 20.833 C 324.452 20.833,324.476 20.903,324.424 20.989 C 324.371 21.074,324.479 21.249,324.663 21.379 C 324.847 21.508,324.948 21.663,324.888 21.723 C 324.827 21.784,324.860 21.833,324.961 21.833 C 325.062 21.833,325.240 22.096,325.356 22.417 C 325.472 22.738,325.631 23.000,325.710 23.000 C 325.789 23.000,325.805 23.078,325.746 23.173 C 325.631 23.360,326.514 23.203,326.667 23.010 C 326.712 22.951,327.200 22.764,327.750 22.593 C 328.300 22.422,328.986 22.181,329.275 22.057 C 329.564 21.934,329.883 21.833,329.984 21.833 C 330.244 21.833,330.210 21.577,329.919 21.335 C 329.782 21.222,329.706 21.071,329.749 21.001 C 329.793 20.930,329.644 20.601,329.419 20.270 C 329.194 19.938,329.064 19.664,329.130 19.662 C 329.196 19.659,329.119 19.580,328.958 19.487 C 328.798 19.393,328.667 19.216,328.667 19.093 C 328.667 18.811,327.207 17.250,326.944 17.250 C 326.837 17.250,326.750 17.145,326.750 17.016 C 326.750 16.888,326.469 16.637,326.125 16.458 C 325.781 16.280,325.500 16.062,325.500 15.974 C 325.500 15.886,325.430 15.857,325.345 15.910 C 325.260 15.962,325.146 15.934,325.092 15.847 C 324.961 15.636,324.011 15.167,323.715 15.167 C 323.586 15.167,323.527 15.092,323.583 15.000 C 323.640 14.908,323.569 14.824,323.427 14.813 C 323.098 14.786,323.011 14.761,322.500 14.549 C 322.271 14.453,321.746 14.320,321.333 14.252 C 320.921 14.184,320.508 14.082,320.417 14.024 C 320.325 13.967,319.985 13.915,319.660 13.909 C 319.336 13.902,318.994 13.849,318.900 13.791 C 318.677 13.653,315.500 13.670,315.500 13.809 M380.167 13.805 C 380.167 13.871,379.867 13.897,379.500 13.862 C 379.086 13.822,378.833 13.868,378.833 13.982 C 378.833 14.084,378.665 14.170,378.458 14.174 C 377.889 14.185,376.526 14.574,376.314 14.786 C 376.210 14.890,376.010 14.930,375.869 14.875 C 375.700 14.811,375.653 14.844,375.732 14.972 C 375.807 15.093,375.738 15.169,375.552 15.174 C 375.228 15.181,373.971 15.813,374.250 15.828 C 374.342 15.833,374.099 16.019,373.710 16.241 C 373.322 16.463,372.826 16.837,372.608 17.072 C 372.390 17.308,372.132 17.500,372.034 17.500 C 371.936 17.500,371.685 17.744,371.476 18.042 C 371.267 18.340,371.009 18.658,370.903 18.750 C 370.798 18.842,370.570 19.179,370.397 19.500 C 370.225 19.821,369.998 20.139,369.894 20.206 C 369.789 20.274,369.653 20.532,369.591 20.779 C 369.529 21.027,369.328 21.440,369.145 21.697 C 368.962 21.954,368.859 22.240,368.916 22.332 C 368.973 22.424,368.949 22.500,368.863 22.500 C 368.703 22.500,368.416 23.464,368.236 24.609 C 368.180 24.962,368.048 25.358,367.942 25.490 C 367.789 25.682,367.798 25.702,367.984 25.590 C 368.159 25.484,368.181 25.508,368.070 25.683 C 367.988 25.811,367.910 26.179,367.895 26.500 C 367.881 26.821,367.851 27.083,367.830 27.083 C 367.809 27.083,367.773 27.700,367.752 28.454 C 367.730 29.208,367.771 29.789,367.843 29.744 C 367.916 29.699,367.950 30.113,367.920 30.664 C 367.889 31.216,367.932 31.667,368.015 31.667 C 368.099 31.667,368.167 31.821,368.167 32.009 C 368.167 32.725,368.697 34.667,368.865 34.564 C 368.971 34.498,368.996 34.583,368.931 34.789 C 368.867 34.991,368.925 35.202,369.080 35.330 C 369.219 35.446,369.333 35.676,369.333 35.842 C 369.333 36.007,369.453 36.262,369.599 36.408 C 369.744 36.554,369.882 36.766,369.903 36.878 C 369.965 37.199,370.569 38.164,370.708 38.166 C 370.777 38.166,370.833 38.250,370.833 38.351 C 370.833 38.452,371.021 38.683,371.250 38.863 C 371.479 39.043,371.667 39.298,371.667 39.429 C 371.667 39.560,371.744 39.667,371.840 39.667 C 371.935 39.667,372.338 40.001,372.735 40.410 C 373.132 40.819,373.503 41.108,373.558 41.053 C 373.614 40.998,373.706 41.076,373.764 41.226 C 373.822 41.377,373.955 41.500,374.059 41.500 C 374.164 41.500,374.466 41.686,374.730 41.913 C 374.994 42.140,375.275 42.286,375.355 42.237 C 375.435 42.187,375.500 42.226,375.500 42.323 C 375.500 42.421,375.631 42.500,375.792 42.501 C 375.952 42.501,376.336 42.655,376.645 42.844 C 376.955 43.032,377.315 43.146,377.446 43.095 C 377.586 43.041,377.639 43.076,377.575 43.180 C 377.515 43.276,377.568 43.336,377.692 43.313 C 377.815 43.289,378.328 43.362,378.830 43.475 C 379.918 43.719,384.170 43.710,385.201 43.463 C 385.594 43.368,386.048 43.295,386.208 43.301 C 386.369 43.308,386.500 43.250,386.500 43.173 C 386.500 43.096,386.894 42.941,387.375 42.828 C 387.856 42.715,388.328 42.562,388.423 42.487 C 388.518 42.413,389.065 42.119,389.640 41.834 C 390.214 41.549,390.726 41.207,390.776 41.074 C 390.827 40.942,390.955 40.831,391.059 40.828 C 391.287 40.822,392.166 40.073,392.168 39.883 C 392.169 39.810,392.394 39.573,392.668 39.356 C 392.942 39.140,393.167 38.866,393.167 38.749 C 393.167 38.632,393.279 38.492,393.417 38.440 C 393.554 38.387,393.667 38.241,393.667 38.114 C 393.667 37.988,393.817 37.749,394.000 37.583 C 394.183 37.417,394.333 37.148,394.333 36.984 C 394.333 36.820,394.408 36.640,394.500 36.583 C 395.031 36.255,393.994 35.333,393.094 35.333 C 392.964 35.333,392.739 35.215,392.595 35.071 C 392.451 34.927,392.333 34.862,392.333 34.925 C 392.333 34.989,392.234 34.958,392.112 34.857 C 391.990 34.756,391.746 34.651,391.570 34.623 C 391.394 34.596,391.162 34.519,391.055 34.452 C 390.828 34.310,390.402 34.689,390.250 35.168 C 390.192 35.350,390.070 35.500,389.979 35.500 C 389.888 35.500,389.860 35.575,389.917 35.667 C 389.973 35.758,389.928 35.833,389.815 35.833 C 389.703 35.833,389.656 35.878,389.711 35.933 C 389.846 36.068,387.850 37.833,387.562 37.833 C 387.436 37.833,387.333 37.890,387.333 37.959 C 387.333 38.029,387.090 38.184,386.792 38.304 C 386.494 38.424,386.116 38.594,385.952 38.683 C 385.787 38.772,385.581 38.800,385.493 38.746 C 385.405 38.691,385.333 38.734,385.333 38.841 C 385.333 38.952,385.217 38.991,385.062 38.932 C 384.913 38.874,384.676 38.923,384.536 39.039 C 384.187 39.328,379.641 39.340,379.545 39.051 C 379.508 38.942,379.389 38.886,379.279 38.928 C 379.170 38.971,378.784 38.854,378.421 38.669 C 378.059 38.484,377.666 38.333,377.548 38.333 C 377.430 38.333,377.333 38.264,377.333 38.180 C 377.333 38.096,377.052 37.857,376.708 37.649 C 375.998 37.220,375.006 36.218,374.670 35.590 C 374.546 35.357,374.377 35.167,374.295 35.167 C 374.214 35.167,374.190 35.098,374.242 35.013 C 374.294 34.929,374.219 34.743,374.076 34.599 C 373.932 34.456,373.696 33.981,373.551 33.544 C 373.405 33.107,373.235 32.675,373.172 32.583 C 373.110 32.492,373.078 32.210,373.103 31.958 C 373.127 31.706,373.076 31.500,372.990 31.500 C 372.904 31.500,372.833 31.275,372.833 31.000 L 372.833 30.500 384.125 30.497 C 391.477 30.496,395.329 30.439,395.167 30.333 C 395.015 30.236,394.995 30.171,395.116 30.169 C 395.265 30.167,395.302 29.419,395.263 27.208 C 395.211 24.272,395.180 23.892,394.930 23.250 C 394.493 22.123,394.346 21.667,394.424 21.667 C 394.472 21.667,394.418 21.498,394.304 21.292 C 394.189 21.085,394.112 20.860,394.131 20.792 C 394.151 20.723,394.101 20.667,394.020 20.667 C 393.940 20.667,393.781 20.442,393.667 20.167 C 393.553 19.892,393.389 19.667,393.303 19.667 C 393.217 19.667,393.188 19.600,393.239 19.517 C 393.290 19.435,393.219 19.325,393.082 19.273 C 392.945 19.220,392.833 19.079,392.833 18.959 C 392.833 18.839,392.683 18.632,392.500 18.500 C 392.317 18.368,392.167 18.164,392.167 18.047 C 392.167 17.929,392.097 17.833,392.012 17.833 C 391.928 17.833,391.479 17.458,391.016 17.000 C 390.553 16.542,390.060 16.167,389.920 16.167 C 389.781 16.167,389.667 16.092,389.667 16.000 C 389.667 15.908,389.554 15.833,389.417 15.833 C 389.279 15.833,389.167 15.763,389.167 15.678 C 389.167 15.592,388.998 15.471,388.792 15.408 C 388.585 15.345,388.290 15.183,388.136 15.047 C 387.981 14.912,387.775 14.850,387.677 14.910 C 387.580 14.970,387.500 14.955,387.500 14.877 C 387.500 14.798,386.919 14.591,386.208 14.417 C 385.498 14.243,384.879 14.059,384.833 14.008 C 384.661 13.818,380.167 13.622,380.167 13.805 M384.364 18.620 C 385.069 18.774,385.608 18.961,385.562 19.035 C 385.516 19.110,385.708 19.217,385.989 19.273 C 386.270 19.329,386.500 19.432,386.500 19.503 C 386.500 19.573,386.691 19.678,386.923 19.737 C 387.156 19.795,387.302 19.916,387.247 20.005 C 387.192 20.094,387.245 20.168,387.365 20.170 C 387.485 20.171,387.771 20.395,388.000 20.668 C 388.229 20.940,388.567 21.337,388.750 21.549 C 389.219 22.093,389.411 22.469,389.672 23.364 C 389.797 23.794,389.947 24.116,390.005 24.080 C 390.064 24.044,390.113 24.105,390.116 24.216 C 390.119 24.326,390.178 24.848,390.247 25.375 L 390.372 26.333 381.582 26.333 C 374.574 26.333,372.826 26.291,372.957 26.125 C 373.047 26.010,373.127 25.804,373.134 25.667 C 373.164 25.057,373.742 23.237,373.944 23.117 C 374.066 23.043,374.167 22.845,374.167 22.676 C 374.167 22.507,374.284 22.324,374.427 22.269 C 374.571 22.214,374.643 22.097,374.589 22.008 C 374.534 21.920,374.679 21.724,374.911 21.571 C 375.143 21.419,375.333 21.193,375.333 21.068 C 375.333 20.943,375.540 20.713,375.792 20.556 C 376.044 20.399,376.408 20.099,376.600 19.888 C 376.793 19.678,376.999 19.555,377.059 19.614 C 377.118 19.674,377.167 19.652,377.167 19.566 C 377.167 19.363,378.319 18.777,379.167 18.549 C 380.662 18.148,382.301 18.170,384.364 18.620 M143.824 21.042 C 144.005 21.210,144.024 21.206,143.921 21.025 C 143.814 20.838,143.859 20.836,144.188 21.017 C 144.406 21.136,144.668 21.248,144.771 21.266 C 145.168 21.333,146.167 21.879,146.167 22.029 C 146.167 22.115,146.253 22.133,146.359 22.067 C 146.471 21.998,146.507 22.021,146.444 22.123 C 146.385 22.218,146.542 22.430,146.793 22.593 C 147.286 22.914,147.772 23.506,147.707 23.708 C 147.685 23.777,147.736 23.833,147.821 23.833 C 148.024 23.833,148.483 24.763,148.595 25.400 C 148.644 25.677,148.754 25.988,148.840 26.092 C 148.927 26.196,148.950 26.328,148.891 26.386 C 148.833 26.444,148.890 26.621,149.018 26.778 C 149.219 27.026,149.217 27.045,149.000 26.924 C 148.797 26.811,148.789 26.826,148.958 27.009 C 149.205 27.274,149.254 30.500,149.012 30.500 C 148.927 30.500,148.886 30.725,148.921 31.000 C 148.956 31.275,148.925 31.500,148.853 31.500 C 148.781 31.500,148.715 31.594,148.707 31.708 C 148.679 32.079,148.247 33.120,147.995 33.422 C 147.860 33.584,147.584 33.987,147.380 34.317 C 147.177 34.647,147.008 34.855,147.005 34.780 C 147.002 34.705,146.747 34.911,146.439 35.238 C 146.130 35.565,145.750 35.833,145.595 35.833 C 145.440 35.833,145.355 35.901,145.406 35.983 C 145.928 36.828,140.458 36.690,139.541 35.836 C 139.343 35.651,139.134 35.500,139.077 35.500 C 138.939 35.500,137.417 33.973,137.417 33.835 C 137.417 33.775,137.287 33.597,137.129 33.439 C 136.883 33.193,136.687 32.687,136.379 31.500 C 136.343 31.363,136.308 31.137,136.301 31.000 C 136.294 30.863,136.237 30.675,136.174 30.583 C 136.048 30.398,136.089 27.156,136.226 26.500 C 136.478 25.293,136.672 24.766,136.986 24.431 C 137.177 24.228,137.333 23.973,137.333 23.864 C 137.333 23.508,138.926 21.833,139.264 21.833 C 139.394 21.833,139.500 21.758,139.500 21.667 C 139.500 21.575,139.633 21.500,139.796 21.500 C 139.959 21.500,140.253 21.388,140.449 21.250 C 140.646 21.113,140.917 21.043,141.053 21.095 C 141.189 21.147,141.349 21.109,141.410 21.011 C 141.564 20.761,143.549 20.786,143.824 21.042 M178.333 21.010 C 178.333 21.107,178.406 21.141,178.495 21.087 C 178.583 21.032,178.992 21.140,179.402 21.327 C 179.813 21.514,180.202 21.667,180.267 21.667 C 180.482 21.667,182.500 23.870,182.500 24.105 C 182.500 24.230,182.575 24.333,182.667 24.333 C 182.758 24.333,182.833 24.446,182.833 24.583 C 182.833 24.721,182.899 24.833,182.979 24.833 C 183.059 24.833,183.182 25.152,183.252 25.542 C 183.322 25.931,183.412 26.363,183.451 26.500 C 183.810 27.768,183.421 32.222,182.905 32.738 C 182.774 32.869,182.667 33.094,182.667 33.238 C 182.667 33.382,182.587 33.500,182.490 33.500 C 182.393 33.500,182.355 33.566,182.405 33.647 C 182.455 33.728,182.122 34.181,181.665 34.653 C 181.207 35.125,180.833 35.462,180.833 35.404 C 180.833 35.345,180.678 35.473,180.487 35.690 C 180.297 35.906,180.188 35.990,180.246 35.877 C 180.315 35.741,180.262 35.704,180.092 35.770 C 179.950 35.824,179.833 35.928,179.833 36.000 C 179.833 36.313,178.307 36.592,176.733 36.567 C 175.737 36.552,174.000 36.064,174.000 35.800 C 174.000 35.727,173.896 35.667,173.768 35.667 C 173.640 35.667,173.491 35.549,173.436 35.406 C 173.381 35.263,173.274 35.184,173.198 35.231 C 173.123 35.277,172.953 35.160,172.822 34.971 C 172.691 34.781,172.506 34.541,172.411 34.438 C 172.046 34.041,171.309 33.015,171.324 32.924 C 171.333 32.872,171.228 32.614,171.092 32.350 C 170.583 31.366,170.357 27.362,170.747 26.250 C 171.215 24.914,171.792 23.754,172.148 23.433 C 172.342 23.258,172.500 23.014,172.500 22.891 C 172.500 22.768,172.576 22.667,172.668 22.667 C 172.761 22.667,173.072 22.441,173.361 22.166 C 173.649 21.890,174.171 21.579,174.520 21.474 C 174.870 21.370,175.123 21.231,175.083 21.166 C 175.043 21.101,175.195 21.084,175.422 21.127 C 175.661 21.173,175.833 21.127,175.833 21.019 C 175.833 20.899,176.274 20.833,177.083 20.833 C 177.852 20.833,178.333 20.901,178.333 21.010 M215.891 30.292 C 215.877 30.727,215.816 31.207,215.755 31.358 C 215.694 31.509,215.664 31.734,215.689 31.858 C 215.764 32.241,215.154 34.667,214.981 34.667 C 214.892 34.667,214.838 34.760,214.863 34.875 C 214.951 35.295,212.978 37.833,212.563 37.833 C 212.437 37.833,212.333 37.911,212.333 38.006 C 212.333 38.100,211.752 38.453,211.042 38.790 L 209.750 39.402 207.250 39.403 C 205.808 39.403,204.574 39.327,204.333 39.222 C 204.104 39.122,203.855 39.050,203.780 39.062 C 203.705 39.074,203.570 38.952,203.480 38.792 C 203.390 38.631,203.213 38.500,203.086 38.500 C 202.960 38.500,202.686 38.256,202.478 37.958 C 202.270 37.660,202.054 37.379,201.999 37.333 C 201.488 36.911,201.284 35.212,201.619 34.167 C 201.751 33.754,201.865 33.326,201.874 33.216 C 201.882 33.105,201.951 33.053,202.028 33.101 C 202.104 33.148,202.167 33.109,202.167 33.015 C 202.167 32.689,203.316 31.697,203.823 31.585 C 204.104 31.524,204.333 31.400,204.333 31.310 C 204.333 31.220,204.403 31.190,204.488 31.243 C 204.574 31.296,204.694 31.257,204.755 31.158 C 204.817 31.059,204.972 31.018,205.100 31.067 C 205.228 31.116,205.333 31.091,205.333 31.012 C 205.333 30.933,205.952 30.786,206.708 30.687 C 210.109 30.239,210.972 30.148,211.797 30.149 C 212.312 30.150,212.636 30.085,212.578 29.992 C 212.523 29.902,212.757 29.831,213.115 29.827 C 213.937 29.820,215.730 29.644,215.819 29.563 C 215.858 29.528,215.895 29.500,215.903 29.500 C 215.910 29.500,215.905 29.856,215.891 30.292 M259.500 30.553 C 259.500 31.040,259.415 31.884,259.311 32.428 C 259.207 32.972,259.120 33.507,259.117 33.618 C 259.114 33.728,259.056 33.785,258.989 33.743 C 258.921 33.701,258.780 34.026,258.675 34.463 C 258.507 35.164,257.009 37.638,256.994 37.238 C 256.991 37.153,256.856 37.233,256.695 37.417 C 256.063 38.133,254.101 39.103,252.815 39.337 C 251.040 39.659,247.667 39.409,247.667 38.956 C 247.667 38.878,247.590 38.861,247.497 38.919 C 247.403 38.977,247.097 38.831,246.817 38.595 C 246.537 38.360,246.240 38.167,246.158 38.167 C 245.955 38.167,245.321 36.746,245.238 36.103 C 245.024 34.443,245.036 34.284,245.431 33.540 C 245.842 32.768,246.700 31.833,246.998 31.833 C 247.091 31.833,247.167 31.758,247.167 31.667 C 247.167 31.575,247.223 31.512,247.292 31.527 C 247.360 31.542,247.604 31.476,247.833 31.380 C 248.063 31.285,248.295 31.216,248.349 31.228 C 248.404 31.240,248.554 31.165,248.683 31.061 C 248.906 30.879,249.456 30.765,250.917 30.596 C 251.738 30.501,254.023 30.265,254.250 30.251 C 254.342 30.246,254.492 30.201,254.583 30.151 C 254.675 30.101,255.069 30.071,255.458 30.083 C 255.848 30.096,256.167 30.048,256.167 29.978 C 256.167 29.856,257.002 29.764,258.708 29.697 L 259.500 29.667 259.500 30.553 "
              stroke="none" fill="#343434" fill-rule="evenodd"/>
        <path id="path1"
              d="M336.914 22.417 C 336.914 33.783,336.934 38.409,336.958 32.695 C 336.983 26.982,336.983 17.682,336.958 12.029 C 336.934 6.375,336.914 11.050,336.914 22.417 M356.577 35.000 C 356.577 39.446,356.599 41.265,356.625 39.042 C 356.651 36.819,356.651 33.181,356.625 30.958 C 356.599 28.735,356.577 30.554,356.577 35.000 M136.042 28.750 C 136.044 29.117,136.078 29.247,136.118 29.040 C 136.158 28.832,136.156 28.532,136.115 28.373 C 136.073 28.214,136.040 28.383,136.042 28.750 M136.000 47.533 C 135.954 51.448,135.974 54.593,136.044 54.523 C 136.113 54.453,136.151 51.251,136.127 47.406 L 136.083 40.417 136.000 47.533 "
              stroke="none" fill="#383434" fill-rule="evenodd"/>
        <path id="path2"
              d="M336.914 22.417 C 336.914 33.783,336.934 38.409,336.958 32.695 C 336.983 26.982,336.983 17.682,336.958 12.029 C 336.934 6.375,336.914 11.050,336.914 22.417 M356.577 35.000 C 356.577 39.446,356.599 41.265,356.625 39.042 C 356.651 36.819,356.651 33.181,356.625 30.958 C 356.599 28.735,356.577 30.554,356.577 35.000 M136.042 28.750 C 136.044 29.117,136.078 29.247,136.118 29.040 C 136.158 28.832,136.156 28.532,136.115 28.373 C 136.073 28.214,136.040 28.383,136.042 28.750 M136.000 47.533 C 135.954 51.448,135.974 54.593,136.044 54.523 C 136.113 54.453,136.151 51.251,136.127 47.406 L 136.083 40.417 136.000 47.533 "
              stroke="none" fill="#383434" fill-rule="evenodd"/>
        <path id="path3"
              d="M336.914 22.417 C 336.914 33.783,336.934 38.409,336.958 32.695 C 336.983 26.982,336.983 17.682,336.958 12.029 C 336.934 6.375,336.914 11.050,336.914 22.417 M356.577 35.000 C 356.577 39.446,356.599 41.265,356.625 39.042 C 356.651 36.819,356.651 33.181,356.625 30.958 C 356.599 28.735,356.577 30.554,356.577 35.000 M136.042 28.750 C 136.044 29.117,136.078 29.247,136.118 29.040 C 136.158 28.832,136.156 28.532,136.115 28.373 C 136.073 28.214,136.040 28.383,136.042 28.750 M136.000 47.533 C 135.954 51.448,135.974 54.593,136.044 54.523 C 136.113 54.453,136.151 51.251,136.127 47.406 L 136.083 40.417 136.000 47.533 "
              stroke="none" fill="#383434" fill-rule="evenodd"/>
        <path id="path4"
              d="M336.914 22.417 C 336.914 33.783,336.934 38.409,336.958 32.695 C 336.983 26.982,336.983 17.682,336.958 12.029 C 336.934 6.375,336.914 11.050,336.914 22.417 M356.577 35.000 C 356.577 39.446,356.599 41.265,356.625 39.042 C 356.651 36.819,356.651 33.181,356.625 30.958 C 356.599 28.735,356.577 30.554,356.577 35.000 M136.042 28.750 C 136.044 29.117,136.078 29.247,136.118 29.040 C 136.158 28.832,136.156 28.532,136.115 28.373 C 136.073 28.214,136.040 28.383,136.042 28.750 M136.000 47.533 C 135.954 51.448,135.974 54.593,136.044 54.523 C 136.113 54.453,136.151 51.251,136.127 47.406 L 136.083 40.417 136.000 47.533 "
              stroke="none" fill="#383434" fill-rule="evenodd"/>
    </g>
</svg>