<svg id="svg" version="1.1" xmlns="http://www.w3.org/2000/svg" width="400"
     height="308.4" viewBox="0, 0, 400,308.4">
    <g id="svgg">
        <path id="path0"
              d="M188.063 3.804 C 154.813 5.683,122.754 23.453,93.894 56.000 C 56.141 98.576,39.247 149.211,45.214 201.900 C 45.438 203.880,45.684 205.659,45.761 205.853 C 45.859 206.101,50.125 197.755,60.099 177.803 C 67.909 162.181,74.344 149.402,74.399 149.404 C 74.455 149.405,79.945 160.384,86.600 173.799 L 98.700 198.192 147.333 100.946 L 195.965 3.700 202.258 16.400 C 219.052 50.292,264.030 140.710,264.160 140.840 C 264.241 140.921,270.785 128.030,278.703 112.194 C 286.621 96.357,293.151 83.400,293.215 83.400 C 293.279 83.400,305.606 108.105,320.607 138.300 C 344.309 186.007,348.200 193.732,348.200 193.085 C 348.200 193.022,348.508 191.470,348.885 189.635 C 355.051 159.625,350.551 127.428,336.184 98.767 C 308.232 43.008,242.303 0.739,188.063 3.804 M122.417 292.875 C 122.688 293.120,130.640 296.129,133.500 297.069 C 163.947 307.078,199.192 307.255,233.950 297.572 C 238.094 296.418,246.665 293.699,248.032 293.106 C 248.618 292.851,240.916 292.815,185.517 292.808 C 150.766 292.804,122.371 292.834,122.417 292.875 "
              stroke="none" fill="#fbfbfb" fill-rule="evenodd"/>
        <path id="path1"
              d="M147.342 101.116 C 120.639 154.522,98.726 198.176,98.646 198.124 C 98.565 198.072,93.100 187.137,86.500 173.822 C 79.900 160.508,74.455 149.612,74.400 149.609 C 74.345 149.606,58.169 181.805,38.454 221.163 L 2.607 292.722 200.004 292.736 C 308.572 292.743,397.400 292.733,397.400 292.712 C 397.400 292.561,348.156 193.625,347.949 193.361 C 347.803 193.174,335.452 168.402,320.502 138.311 C 305.553 108.220,293.271 83.600,293.210 83.600 C 293.149 83.600,286.623 96.554,278.707 112.386 C 270.792 128.218,264.259 141.137,264.191 141.094 C 264.122 141.052,248.785 110.256,230.108 72.659 C 211.431 35.061,196.092 4.235,196.022 4.157 C 195.951 4.078,174.045 47.709,147.342 101.116 "
              stroke="none" fill="#343434" fill-rule="evenodd"/>
        <path id="path2"
              d="M153.950 292.750 C 171.358 292.778,199.843 292.778,217.250 292.750 C 234.658 292.722,220.415 292.699,185.600 292.699 C 150.785 292.699,136.543 292.722,153.950 292.750 "
              stroke="none" fill="#9c9c9c" fill-rule="evenodd"/>
        <path id="path3" d="" stroke="none" fill="#8c8c8c" fill-rule="evenodd"/>
        <path id="path4" d="" stroke="none" fill="#7e7e7e" fill-rule="evenodd"/>
    </g>
</svg>