<svg id="svg" version="1.1" xmlns="http://www.w3.org/2000/svg" width="400" height="93.39999999999999"
     viewBox="0, 0, 400,93.39999999999999">
    <g id="svgg">
        <path id="path0"
              d="M48.000 0.877 C 46.188 1.864,46.167 1.941,46.167 7.420 L 46.167 11.833 45.583 11.833 C 45.262 11.833,45.000 11.908,45.000 12.000 C 45.000 12.092,44.782 12.167,44.517 12.167 C 43.784 12.167,40.139 12.816,39.932 12.984 C 39.832 13.065,39.278 13.251,38.701 13.397 C 38.124 13.544,37.262 13.838,36.785 14.050 C 36.307 14.263,35.598 14.539,35.208 14.662 C 34.819 14.786,34.500 14.941,34.500 15.006 C 34.500 15.072,34.050 15.294,33.500 15.500 C 32.950 15.706,32.500 15.938,32.500 16.016 C 32.500 16.094,32.125 16.319,31.667 16.516 C 31.208 16.713,30.833 16.928,30.833 16.994 C 30.833 17.060,30.496 17.288,30.083 17.500 C 29.671 17.712,29.333 17.951,29.333 18.030 C 29.333 18.110,29.165 18.239,28.958 18.318 C 27.729 18.787,21.736 24.819,21.285 26.042 C 21.226 26.202,21.112 26.333,21.031 26.333 C 20.951 26.333,20.712 26.671,20.500 27.083 C 20.288 27.496,20.060 27.833,19.994 27.833 C 19.928 27.833,19.713 28.208,19.516 28.667 C 19.319 29.125,19.096 29.500,19.020 29.500 C 18.945 29.500,18.705 29.950,18.486 30.500 C 18.268 31.050,18.038 31.500,17.975 31.500 C 17.912 31.500,17.693 32.006,17.489 32.625 C 17.284 33.244,17.068 33.787,17.008 33.833 C 16.948 33.879,16.727 34.554,16.516 35.333 C 16.306 36.112,16.070 36.828,15.992 36.924 C 15.816 37.138,15.167 40.690,15.167 41.436 C 15.167 41.735,15.092 42.027,15.000 42.083 C 14.908 42.140,14.833 42.369,14.833 42.593 L 14.833 43.000 10.458 43.004 L 6.083 43.008 5.269 43.462 C 3.932 44.209,3.046 47.008,3.945 47.646 C 4.025 47.703,4.217 47.948,4.370 48.189 C 5.022 49.215,5.654 49.333,10.469 49.333 L 14.833 49.333 14.833 49.740 C 14.833 49.964,14.908 50.193,15.000 50.250 C 15.092 50.307,15.167 50.598,15.167 50.897 C 15.167 51.661,15.818 55.198,16.000 55.416 C 16.082 55.515,16.224 55.894,16.315 56.257 C 16.689 57.750,16.894 58.421,17.003 58.500 C 17.066 58.546,17.284 59.090,17.489 59.708 C 17.693 60.327,17.912 60.833,17.975 60.833 C 18.038 60.833,18.268 61.283,18.486 61.833 C 18.705 62.383,18.941 62.833,19.010 62.833 C 19.080 62.833,19.307 63.190,19.515 63.625 C 19.723 64.060,19.946 64.454,20.011 64.500 C 20.075 64.546,20.288 64.869,20.483 65.218 C 20.679 65.568,20.911 65.943,20.999 66.052 C 21.087 66.161,21.607 66.818,22.153 67.512 C 23.072 68.680,26.741 72.500,26.943 72.500 C 26.992 72.500,27.381 72.808,27.808 73.185 C 28.234 73.562,28.752 73.935,28.958 74.014 C 29.165 74.094,29.333 74.223,29.333 74.303 C 29.333 74.383,29.671 74.621,30.083 74.833 C 30.496 75.045,30.833 75.269,30.833 75.331 C 30.833 75.393,31.208 75.619,31.667 75.833 C 32.125 76.048,32.500 76.276,32.500 76.339 C 32.500 76.403,32.856 76.587,33.292 76.749 C 33.727 76.911,34.308 77.178,34.583 77.343 C 34.858 77.508,35.458 77.769,35.917 77.924 C 36.375 78.079,36.789 78.267,36.836 78.342 C 36.884 78.416,37.559 78.641,38.336 78.841 C 39.114 79.041,39.825 79.261,39.917 79.331 C 40.085 79.458,41.997 79.854,44.000 80.176 C 44.596 80.272,45.327 80.392,45.625 80.443 L 46.167 80.536 46.167 84.932 C 46.167 89.225,46.329 90.667,46.811 90.667 C 46.871 90.667,47.130 90.862,47.388 91.100 C 48.391 92.031,50.877 91.701,51.621 90.538 C 51.781 90.288,52.007 89.984,52.123 89.863 C 52.282 89.697,52.333 88.526,52.333 85.071 L 52.333 80.500 52.836 80.500 C 53.112 80.500,53.468 80.432,53.627 80.349 C 53.786 80.266,54.911 80.041,56.126 79.850 C 57.341 79.658,58.466 79.428,58.626 79.337 C 58.786 79.247,59.348 79.054,59.875 78.908 C 60.402 78.762,60.833 78.588,60.833 78.521 C 60.833 78.396,63.230 77.368,63.779 77.258 C 64.189 77.175,65.721 76.508,65.830 76.364 C 65.878 76.302,66.292 76.063,66.750 75.833 C 67.208 75.604,67.607 75.363,67.637 75.297 C 67.666 75.232,68.023 75.012,68.429 74.809 C 68.835 74.607,69.167 74.385,69.167 74.317 C 69.167 74.249,69.448 74.022,69.792 73.813 C 70.135 73.603,70.515 73.297,70.634 73.133 C 70.754 72.968,70.932 72.833,71.030 72.833 C 71.213 72.833,72.440 71.700,73.806 70.269 C 74.234 69.822,74.827 69.227,75.125 68.947 C 75.423 68.667,75.667 68.349,75.667 68.239 C 75.667 68.128,75.854 67.915,76.083 67.765 C 76.313 67.615,76.500 67.386,76.500 67.256 C 76.500 67.125,76.635 66.921,76.799 66.801 C 76.964 66.681,77.279 66.283,77.499 65.917 C 77.719 65.550,77.953 65.212,78.018 65.166 C 78.161 65.065,78.800 63.954,79.504 62.583 C 79.787 62.033,80.086 61.471,80.170 61.333 C 80.535 60.734,81.464 58.513,81.668 57.750 C 81.791 57.292,81.944 56.879,82.007 56.833 C 82.142 56.736,82.605 54.912,82.770 53.833 C 82.832 53.421,82.942 53.045,83.014 52.997 C 83.086 52.950,83.238 52.106,83.352 51.122 L 83.560 49.333 88.113 49.333 C 91.038 49.333,92.667 49.274,92.667 49.167 C 92.667 49.075,92.773 49.000,92.904 49.000 C 94.527 49.000,95.273 45.448,93.947 44.026 C 93.054 43.069,92.648 43.000,87.915 43.000 L 83.559 43.000 83.341 41.167 C 83.221 40.158,83.058 39.333,82.978 39.333 C 82.898 39.333,82.833 39.179,82.833 38.990 C 82.833 38.399,82.118 35.500,81.972 35.500 C 81.896 35.500,81.833 35.400,81.833 35.278 C 81.833 34.961,81.155 32.933,81.016 32.833 C 80.952 32.787,80.762 32.375,80.593 31.917 C 80.424 31.458,80.204 30.979,80.104 30.852 C 80.003 30.724,79.727 30.237,79.489 29.768 C 78.757 28.322,78.171 27.314,77.909 27.052 C 77.772 26.914,77.544 26.580,77.404 26.309 C 77.133 25.785,76.862 25.439,76.125 24.675 C 75.873 24.413,75.667 24.140,75.667 24.068 C 75.667 23.995,75.273 23.548,74.792 23.075 C 74.310 22.602,73.837 22.078,73.739 21.910 C 73.641 21.743,73.430 21.526,73.269 21.428 C 73.108 21.330,72.566 20.875,72.064 20.417 C 70.397 18.894,68.474 17.446,67.875 17.260 C 67.669 17.196,67.500 17.080,67.500 17.000 C 67.500 16.921,67.144 16.683,66.708 16.470 C 66.273 16.258,65.879 16.037,65.833 15.979 C 65.787 15.922,65.337 15.701,64.833 15.488 C 64.329 15.275,63.878 15.047,63.832 14.980 C 63.785 14.914,63.335 14.701,62.832 14.506 C 62.328 14.311,61.692 14.049,61.417 13.923 C 61.142 13.797,60.392 13.558,59.750 13.391 C 59.108 13.225,58.546 13.040,58.500 12.981 C 58.398 12.849,54.592 12.167,53.958 12.167 C 53.706 12.167,53.500 12.092,53.500 12.000 C 53.500 11.908,53.444 11.842,53.375 11.853 C 53.306 11.864,53.044 11.864,52.792 11.853 L 52.333 11.833 52.333 7.262 C 52.333 3.421,52.293 2.651,52.083 2.440 C 51.946 2.303,51.833 2.123,51.833 2.041 C 51.833 1.835,51.103 1.167,50.878 1.167 C 50.777 1.167,50.665 1.077,50.628 0.968 C 50.529 0.670,48.509 0.600,48.000 0.877 M188.333 45.000 L 188.333 73.167 193.583 73.167 C 198.139 73.167,198.833 73.134,198.833 72.917 C 198.833 72.779,198.894 72.667,198.969 72.667 C 199.044 72.667,199.200 71.780,199.317 70.696 L 199.528 68.725 200.639 69.839 C 201.250 70.451,201.919 71.006,202.125 71.071 C 202.331 71.136,202.500 71.252,202.500 71.330 C 202.500 71.407,202.856 71.641,203.292 71.849 C 203.727 72.057,204.121 72.280,204.167 72.345 C 204.275 72.499,206.446 73.167,206.837 73.167 C 207.003 73.167,207.170 73.260,207.208 73.375 C 207.261 73.533,208.154 73.583,210.917 73.583 C 213.680 73.583,214.572 73.533,214.625 73.375 C 214.663 73.260,214.830 73.167,214.996 73.167 C 215.404 73.167,217.562 72.495,217.667 72.336 C 217.713 72.266,218.144 72.040,218.625 71.834 C 219.106 71.628,219.500 71.398,219.500 71.324 C 219.500 71.250,219.656 71.140,219.847 71.079 C 220.517 70.866,223.833 67.669,223.833 67.235 C 223.833 67.106,223.897 67.000,223.974 67.000 C 224.341 67.000,226.219 63.298,226.680 61.667 C 226.796 61.254,226.951 60.837,227.023 60.740 C 227.976 59.462,227.966 47.119,227.012 46.333 C 226.956 46.288,226.738 45.651,226.526 44.919 C 226.314 44.186,226.089 43.549,226.024 43.502 C 225.960 43.455,225.764 43.079,225.590 42.667 C 225.415 42.254,225.136 41.762,224.969 41.573 C 224.803 41.383,224.667 41.153,224.667 41.060 C 224.667 40.900,223.488 39.306,222.987 38.789 C 222.856 38.654,222.594 38.366,222.403 38.147 C 221.727 37.374,219.246 35.500,218.898 35.500 C 218.784 35.500,218.588 35.398,218.464 35.273 C 218.208 35.018,216.376 34.333,215.947 34.333 C 215.793 34.333,215.667 34.273,215.667 34.200 C 215.667 33.420,207.584 33.330,205.917 34.091 C 205.642 34.217,205.058 34.439,204.620 34.585 C 203.834 34.846,203.203 35.206,201.932 36.117 C 201.574 36.373,201.140 36.667,200.967 36.769 C 200.795 36.870,200.547 37.095,200.416 37.269 C 200.208 37.543,200.177 36.263,200.172 27.375 C 200.168 20.305,200.112 17.167,199.990 17.167 C 199.893 17.167,199.860 17.092,199.917 17.000 C 199.985 16.890,198.030 16.833,194.177 16.833 L 188.333 16.833 188.333 45.000 M46.197 20.708 C 46.274 23.370,46.406 23.790,47.439 24.641 C 48.576 25.579,50.137 25.477,51.343 24.388 C 51.704 24.062,52.005 23.860,52.012 23.939 C 52.018 24.018,52.088 23.933,52.167 23.750 C 52.245 23.567,52.315 22.273,52.322 20.875 C 52.333 18.398,52.342 18.333,52.688 18.333 C 53.373 18.333,56.252 18.875,56.462 19.044 C 56.579 19.137,56.722 19.167,56.780 19.109 C 56.838 19.050,56.968 19.068,57.068 19.148 C 57.168 19.228,57.700 19.421,58.250 19.576 C 58.800 19.732,59.400 19.954,59.583 20.069 C 59.767 20.185,60.292 20.418,60.750 20.586 C 61.208 20.755,61.780 21.028,62.020 21.192 C 62.260 21.357,62.673 21.573,62.937 21.673 C 63.359 21.832,65.109 22.929,65.333 23.175 C 65.379 23.225,65.657 23.434,65.951 23.639 C 67.120 24.455,70.667 27.781,70.667 28.061 C 70.667 28.144,70.835 28.386,71.042 28.600 C 71.847 29.433,73.500 31.813,73.500 32.140 C 73.500 32.211,73.686 32.521,73.914 32.829 C 74.141 33.138,74.456 33.734,74.614 34.153 C 74.771 34.573,74.952 34.954,75.016 35.000 C 75.152 35.097,75.833 37.124,75.833 37.430 C 75.833 37.545,75.903 37.664,75.987 37.694 C 76.072 37.725,76.304 38.575,76.503 39.583 C 76.701 40.592,76.932 41.547,77.015 41.706 C 77.099 41.865,77.167 42.221,77.167 42.498 L 77.167 43.000 74.667 43.000 C 73.111 43.000,72.167 43.063,72.167 43.167 C 72.167 43.258,72.050 43.333,71.908 43.333 C 71.169 43.333,70.167 44.356,70.167 45.109 C 70.167 45.232,70.092 45.333,70.000 45.333 C 69.908 45.333,69.833 45.708,69.833 46.167 C 69.833 46.625,69.908 47.000,70.000 47.000 C 70.092 47.000,70.167 47.116,70.167 47.258 C 70.167 48.684,71.599 49.333,74.744 49.333 L 77.167 49.333 77.167 49.836 C 77.167 50.112,77.096 50.468,77.010 50.627 C 76.925 50.786,76.727 51.629,76.571 52.500 C 76.416 53.371,76.158 54.383,75.999 54.750 C 75.839 55.117,75.615 55.717,75.499 56.083 C 75.384 56.450,75.037 57.295,74.728 57.962 C 74.419 58.629,74.167 59.247,74.167 59.337 C 74.167 59.427,74.090 59.500,73.996 59.500 C 73.903 59.500,73.735 59.706,73.624 59.958 C 73.331 60.626,72.066 62.571,71.761 62.824 C 71.617 62.943,71.500 63.123,71.500 63.223 C 71.500 63.323,71.360 63.558,71.189 63.744 C 70.477 64.520,67.356 67.614,66.905 67.992 C 65.934 68.804,65.071 69.423,64.458 69.746 C 64.115 69.928,63.833 70.125,63.833 70.184 C 63.833 70.244,63.607 70.387,63.329 70.502 C 63.052 70.616,62.771 70.804,62.704 70.918 C 62.202 71.779,56.138 73.874,53.042 74.256 L 52.167 74.365 52.167 71.884 C 52.167 68.039,50.975 66.500,48.510 67.164 C 46.767 67.633,46.296 68.547,46.199 71.646 L 46.123 74.042 45.103 73.934 C 43.304 73.744,39.961 72.848,38.775 72.238 C 38.486 72.089,37.841 71.824,37.342 71.648 C 36.842 71.472,36.392 71.268,36.342 71.194 C 36.291 71.121,35.894 70.890,35.458 70.682 C 35.023 70.474,34.667 70.243,34.667 70.168 C 34.667 70.094,34.460 69.957,34.208 69.864 C 33.956 69.771,33.549 69.515,33.304 69.297 C 33.059 69.078,32.590 68.755,32.262 68.578 C 31.935 68.402,31.667 68.203,31.667 68.137 C 31.667 68.070,31.407 67.893,31.091 67.742 C 29.422 66.950,25.670 62.419,24.750 60.083 C 24.497 59.442,24.198 58.804,24.086 58.667 C 23.975 58.529,23.704 57.967,23.485 57.417 C 23.266 56.867,23.034 56.377,22.970 56.330 C 22.906 56.282,22.690 55.644,22.491 54.913 C 22.292 54.182,22.072 53.508,22.001 53.417 C 21.864 53.238,21.333 50.276,21.333 49.688 C 21.333 49.345,21.402 49.333,23.474 49.333 C 27.907 49.333,29.853 46.528,27.290 43.833 C 26.554 43.059,26.302 43.000,23.752 43.000 C 21.355 43.000,21.333 42.997,21.334 42.625 C 21.335 42.016,21.847 39.269,21.993 39.085 C 22.068 38.993,22.287 38.284,22.481 37.510 C 22.675 36.736,22.890 36.061,22.960 36.010 C 23.030 35.959,23.266 35.467,23.485 34.917 C 23.705 34.367,23.959 33.820,24.051 33.702 C 24.144 33.583,24.397 33.133,24.615 32.702 C 25.179 31.582,25.843 30.432,25.981 30.334 C 26.046 30.288,26.280 29.988,26.500 29.667 C 26.720 29.346,26.942 29.046,26.992 29.000 C 27.042 28.954,27.382 28.542,27.748 28.083 C 28.953 26.573,32.101 23.707,32.885 23.406 C 33.040 23.346,33.167 23.192,33.167 23.063 C 33.167 22.772,34.606 21.838,36.608 20.831 C 38.190 20.036,38.758 19.833,40.375 19.486 C 40.902 19.373,41.333 19.213,41.333 19.130 C 41.333 19.048,41.405 19.025,41.493 19.079 C 41.581 19.133,41.787 19.100,41.952 19.005 C 42.296 18.805,44.630 18.378,45.523 18.351 L 46.130 18.333 46.197 20.708 M122.296 38.625 L 122.250 58.750 121.875 59.450 C 121.669 59.835,121.500 60.219,121.500 60.302 C 121.500 60.808,119.379 62.819,118.833 62.830 C 118.696 62.833,118.369 62.947,118.106 63.084 C 117.585 63.356,115.000 63.442,115.000 63.188 C 115.000 63.107,114.794 63.000,114.542 62.949 C 114.290 62.899,113.776 62.646,113.400 62.387 C 112.057 61.463,111.681 61.055,111.315 60.125 C 111.215 59.873,111.082 59.667,111.018 59.667 C 110.955 59.667,110.814 59.336,110.706 58.931 C 110.554 58.364,110.441 58.210,110.213 58.258 C 110.050 58.293,109.055 58.480,108.002 58.673 C 106.949 58.867,106.011 59.085,105.918 59.159 C 105.826 59.233,104.813 59.464,103.667 59.674 C 102.521 59.884,101.546 60.109,101.500 60.174 C 101.428 60.276,100.255 60.544,99.750 60.573 C 99.056 60.614,101.286 66.833,101.995 66.833 C 102.067 66.833,102.212 67.040,102.316 67.292 C 102.472 67.668,104.329 69.579,105.333 70.398 C 105.791 70.770,107.910 71.966,108.333 72.090 C 108.563 72.157,108.788 72.271,108.835 72.343 C 108.941 72.506,111.427 73.167,111.934 73.167 C 112.138 73.167,112.337 73.260,112.375 73.375 C 112.468 73.655,120.587 73.675,121.183 73.397 C 121.403 73.294,122.258 73.043,123.083 72.839 C 123.908 72.635,124.621 72.416,124.667 72.352 C 124.712 72.288,125.087 72.127,125.498 71.995 C 125.910 71.862,126.365 71.635,126.511 71.489 C 126.656 71.344,126.918 71.170,127.091 71.103 C 128.046 70.737,130.666 68.338,131.480 67.083 C 131.719 66.717,131.968 66.376,132.034 66.327 C 132.318 66.117,133.334 63.934,133.598 62.968 C 133.756 62.390,133.945 61.838,134.018 61.742 C 134.504 61.105,134.553 59.241,134.616 39.042 L 134.680 18.500 128.511 18.500 L 122.341 18.500 122.296 38.625 M236.667 45.833 L 236.667 73.167 239.250 73.167 L 241.833 73.167 241.833 60.333 L 241.833 47.500 257.167 47.500 L 272.500 47.500 272.500 60.333 L 272.500 73.167 275.000 73.167 L 277.500 73.167 277.500 45.833 L 277.500 18.500 275.000 18.500 L 272.500 18.500 272.500 30.750 L 272.500 43.000 257.167 43.000 L 241.833 43.000 241.833 30.750 L 241.833 18.500 239.250 18.500 L 236.667 18.500 236.667 45.833 M380.167 28.583 L 380.167 34.000 377.167 34.000 L 374.167 34.000 374.167 36.250 L 374.167 38.500 377.167 38.500 L 380.167 38.500 380.167 50.792 C 380.168 65.396,380.312 66.728,382.122 68.837 C 383.738 70.722,385.539 72.167,386.271 72.167 C 386.382 72.167,386.499 72.248,386.532 72.347 C 386.614 72.592,389.060 73.164,390.032 73.165 C 390.462 73.166,390.860 73.242,390.917 73.333 C 391.042 73.536,392.500 73.558,392.500 73.358 C 392.500 73.280,393.146 73.166,393.937 73.105 C 395.789 72.963,395.667 73.127,395.667 70.782 L 395.667 68.750 393.631 68.810 C 391.643 68.869,388.833 68.492,388.833 68.166 C 388.833 68.097,388.611 67.948,388.339 67.836 C 387.899 67.653,386.582 66.476,386.051 65.791 C 385.720 65.363,385.362 64.390,385.242 63.588 C 385.179 63.171,385.062 62.788,384.981 62.738 C 384.897 62.687,384.833 57.393,384.833 50.573 L 384.833 38.500 390.250 38.500 L 395.667 38.500 395.667 36.250 L 395.667 34.000 390.250 34.000 L 384.833 34.000 384.833 28.583 L 384.833 23.167 382.500 23.167 L 380.167 23.167 380.167 28.583 M46.684 33.347 C 45.075 33.663,40.788 35.629,40.489 36.188 C 40.397 36.360,40.207 36.500,40.068 36.500 C 39.928 36.500,39.858 36.572,39.912 36.659 C 39.966 36.747,39.627 37.291,39.159 37.868 C 38.690 38.445,38.162 39.198,37.984 39.542 C 37.806 39.885,37.599 40.167,37.525 40.167 C 37.343 40.167,36.697 41.667,36.700 42.083 C 36.702 42.267,36.584 42.942,36.438 43.583 C 36.292 44.225,36.171 45.069,36.170 45.458 C 36.168 45.848,36.092 46.167,36.000 46.167 C 35.908 46.167,35.833 46.392,35.833 46.667 C 35.833 46.942,35.898 47.167,35.977 47.167 C 36.057 47.167,36.166 47.489,36.220 47.884 C 37.512 57.315,48.503 62.315,56.368 57.050 C 57.128 56.541,57.862 56.086,58.000 56.038 C 58.377 55.908,59.333 54.964,59.333 54.722 C 59.333 54.606,59.700 53.948,60.149 53.261 C 66.358 43.749,57.844 31.156,46.684 33.347 M158.224 33.687 C 157.476 33.766,156.651 33.918,156.391 34.026 C 156.130 34.134,155.879 34.232,155.833 34.243 C 155.787 34.255,155.337 34.365,154.833 34.487 C 153.979 34.694,152.297 35.382,151.333 35.919 C 151.104 36.047,150.560 36.343,150.125 36.578 C 149.690 36.813,149.333 37.067,149.333 37.143 C 149.333 37.218,149.165 37.360,148.958 37.457 C 148.506 37.671,146.167 39.802,146.167 40.001 C 146.167 40.078,145.935 40.391,145.652 40.696 C 145.369 41.000,145.039 41.362,144.919 41.500 C 144.045 42.496,142.167 47.058,142.167 48.184 C 142.167 48.343,142.096 48.497,142.009 48.528 C 141.401 48.743,141.406 58.582,142.015 58.806 C 142.098 58.836,142.167 59.019,142.167 59.212 C 142.167 59.671,142.836 62.059,142.995 62.167 C 143.063 62.212,143.215 62.550,143.334 62.917 C 143.574 63.662,144.819 65.833,145.006 65.833 C 145.072 65.833,145.215 66.047,145.323 66.307 C 145.558 66.876,148.643 69.917,149.146 70.077 C 149.341 70.139,149.500 70.256,149.500 70.337 C 149.500 70.418,149.840 70.635,150.255 70.818 C 150.670 71.002,151.122 71.265,151.259 71.402 C 151.397 71.540,151.920 71.782,152.422 71.940 C 152.923 72.098,153.333 72.280,153.333 72.344 C 153.333 72.408,154.027 72.622,154.875 72.818 C 155.723 73.014,156.717 73.267,157.083 73.379 C 158.035 73.671,165.695 73.667,165.792 73.375 C 165.830 73.260,166.028 73.167,166.232 73.167 C 166.706 73.167,169.390 72.494,169.500 72.348 C 169.546 72.287,170.027 72.090,170.570 71.910 C 171.113 71.730,171.642 71.498,171.747 71.394 C 171.852 71.290,172.270 71.037,172.677 70.830 C 173.084 70.624,173.454 70.407,173.500 70.349 C 173.546 70.290,173.808 70.100,174.083 69.926 C 175.115 69.273,177.833 66.608,177.833 66.250 C 177.833 66.132,177.942 65.994,178.075 65.943 C 178.207 65.892,178.443 65.603,178.598 65.300 C 178.753 64.998,178.927 64.712,178.986 64.667 C 179.044 64.621,179.277 64.208,179.504 63.750 C 179.731 63.292,179.962 62.879,180.017 62.833 C 180.176 62.701,180.833 60.699,180.833 60.347 C 180.833 60.171,180.911 60.002,181.007 59.970 C 181.911 59.669,181.970 49.296,181.080 47.250 C 180.960 46.975,180.773 46.450,180.664 46.083 C 180.459 45.391,179.198 42.646,179.019 42.500 C 178.963 42.454,178.627 41.986,178.272 41.460 C 177.673 40.570,175.128 37.833,174.900 37.833 C 174.844 37.833,174.494 37.592,174.122 37.298 C 172.857 36.296,169.937 34.839,168.500 34.492 C 167.996 34.370,167.504 34.213,167.408 34.142 C 166.744 33.656,161.156 33.379,158.224 33.687 M348.333 33.651 C 346.708 33.881,346.167 34.012,346.167 34.174 C 346.167 34.262,346.052 34.333,345.913 34.333 C 345.475 34.333,343.848 34.962,343.573 35.237 C 343.428 35.382,343.235 35.500,343.144 35.500 C 342.826 35.500,340.167 37.768,340.167 38.039 C 340.167 38.129,339.979 38.350,339.750 38.530 C 339.521 38.710,339.333 38.955,339.333 39.075 C 339.333 39.195,339.212 39.393,339.065 39.515 C 338.917 39.638,338.734 39.891,338.659 40.078 C 338.571 40.293,338.517 39.838,338.510 38.833 C 338.503 37.962,338.450 36.519,338.391 35.625 L 338.283 34.000 336.058 34.000 L 333.833 34.000 333.833 53.583 L 333.833 73.167 336.241 73.167 L 338.649 73.167 338.700 60.758 C 338.739 51.109,338.796 48.303,338.958 48.142 C 339.073 48.027,339.167 47.784,339.167 47.602 C 339.167 46.489,340.738 42.500,341.177 42.500 C 341.263 42.500,341.333 42.405,341.333 42.289 C 341.333 42.174,341.678 41.742,342.099 41.331 C 342.521 40.920,343.027 40.425,343.224 40.232 C 343.422 40.039,343.846 39.747,344.167 39.584 C 344.488 39.421,344.787 39.230,344.833 39.161 C 344.940 38.999,346.962 38.333,347.347 38.333 C 347.508 38.333,347.669 38.244,347.705 38.134 C 347.794 37.868,352.285 37.841,352.850 38.103 C 353.070 38.205,353.794 38.453,354.458 38.654 C 355.123 38.855,355.667 39.090,355.667 39.176 C 355.667 39.263,355.774 39.333,355.906 39.333 C 356.256 39.333,358.169 40.916,358.524 41.499 C 358.691 41.775,358.886 42.001,358.956 42.003 C 359.026 42.004,359.271 42.398,359.500 42.878 C 359.729 43.357,359.968 43.789,360.032 43.837 C 360.095 43.885,360.304 44.522,360.496 45.254 C 360.688 45.985,360.936 46.733,361.048 46.917 C 361.201 47.169,361.262 50.416,361.300 60.208 L 361.350 73.167 363.760 73.167 L 366.171 73.167 366.165 60.250 C 366.161 51.964,366.100 47.333,365.996 47.333 C 365.907 47.333,365.832 47.052,365.831 46.708 C 365.828 45.893,365.225 42.974,365.033 42.848 C 364.951 42.794,364.751 42.320,364.587 41.794 C 364.423 41.268,364.190 40.755,364.069 40.655 C 363.949 40.555,363.689 40.141,363.493 39.735 C 363.002 38.722,360.413 36.148,359.396 35.661 C 358.949 35.448,358.546 35.230,358.500 35.178 C 358.328 34.983,357.179 34.517,356.600 34.409 C 356.270 34.347,356.000 34.240,356.000 34.171 C 356.000 33.748,350.352 33.365,348.333 33.651 M289.611 34.111 C 289.205 34.517,289.592 61.496,290.005 61.639 C 290.094 61.669,290.167 61.862,290.167 62.066 C 290.167 62.516,290.808 65.013,290.985 65.248 C 291.054 65.341,291.210 65.679,291.332 66.000 C 291.839 67.339,294.160 70.318,295.156 70.908 C 295.319 71.004,295.762 71.290,296.140 71.542 C 296.517 71.794,296.936 72.000,297.070 72.000 C 297.204 72.000,297.361 72.076,297.418 72.169 C 297.570 72.415,298.488 72.770,299.607 73.015 C 300.144 73.133,300.637 73.309,300.702 73.406 C 300.863 73.645,308.465 73.651,308.631 73.412 C 308.696 73.318,309.341 73.097,310.063 72.921 C 310.785 72.745,311.461 72.521,311.566 72.425 C 311.670 72.329,312.054 72.103,312.419 71.923 C 312.784 71.743,313.209 71.481,313.363 71.340 C 313.516 71.199,313.958 70.821,314.344 70.500 C 314.730 70.179,315.129 69.816,315.231 69.692 C 315.333 69.569,315.583 69.287,315.785 69.066 C 315.988 68.845,316.363 68.308,316.617 67.874 L 317.080 67.084 317.187 67.584 C 317.246 67.858,317.303 69.227,317.314 70.625 L 317.333 73.167 319.583 73.167 L 321.833 73.167 321.833 53.583 L 321.833 34.000 319.500 34.000 L 317.167 34.000 317.167 45.417 C 317.167 51.696,317.107 56.833,317.034 56.833 C 316.961 56.833,316.886 57.115,316.867 57.458 C 316.789 58.885,316.195 62.000,316.002 62.000 C 315.938 62.000,315.795 62.304,315.684 62.675 C 315.443 63.478,314.305 65.288,313.833 65.619 C 313.650 65.747,313.500 65.960,313.500 66.093 C 313.500 66.225,313.432 66.333,313.349 66.333 C 313.266 66.333,312.872 66.607,312.474 66.941 C 312.076 67.275,311.487 67.658,311.167 67.793 C 310.846 67.927,310.539 68.109,310.484 68.195 C 310.354 68.402,308.068 68.993,307.385 68.997 C 307.092 68.999,306.807 69.075,306.750 69.167 C 306.693 69.258,306.014 69.333,305.240 69.333 C 304.413 69.333,303.833 69.265,303.833 69.167 C 303.833 69.075,303.585 69.000,303.280 69.000 C 302.632 69.000,300.331 68.421,300.184 68.221 C 300.129 68.145,299.783 67.935,299.417 67.753 C 299.050 67.572,298.587 67.272,298.387 67.087 C 297.181 65.968,296.589 65.293,296.372 64.792 C 296.263 64.540,296.110 64.333,296.033 64.333 C 295.955 64.333,295.713 63.752,295.493 63.042 C 295.274 62.331,295.046 61.712,294.987 61.667 C 294.524 61.307,294.433 59.079,294.375 46.708 L 294.316 34.000 292.019 34.000 C 290.756 34.000,289.672 34.050,289.611 34.111 M162.333 44.167 C 162.333 44.258,162.491 44.333,162.683 44.333 C 163.352 44.333,164.800 44.849,165.273 45.256 C 165.535 45.482,165.804 45.666,165.869 45.666 C 166.432 45.667,168.075 48.059,168.719 49.815 C 169.273 51.325,169.534 56.146,169.079 56.465 C 168.987 56.530,168.816 56.958,168.699 57.417 C 167.519 62.045,160.897 64.752,157.585 61.959 C 156.502 61.047,155.840 60.284,155.486 59.545 C 155.277 59.108,155.047 58.710,154.975 58.660 C 154.023 58.008,154.013 49.387,154.964 48.673 C 155.030 48.624,155.268 48.217,155.493 47.770 C 155.878 47.005,156.516 46.277,157.609 45.352 C 158.122 44.919,159.654 44.333,160.276 44.333 C 160.491 44.333,160.667 44.258,160.667 44.167 C 160.667 44.075,161.042 44.000,161.500 44.000 C 161.958 44.000,162.333 44.075,162.333 44.167 M210.230 44.740 C 210.678 44.899,211.198 45.172,211.387 45.347 C 211.575 45.523,211.799 45.667,211.884 45.667 C 212.050 45.667,213.333 46.934,213.333 47.098 C 213.333 47.152,213.556 47.508,213.829 47.889 C 215.023 49.561,215.956 56.154,215.042 56.458 C 214.927 56.497,214.832 56.653,214.831 56.806 C 214.821 57.938,212.607 61.500,211.913 61.500 C 211.866 61.500,211.512 61.698,211.128 61.941 C 209.531 62.949,205.111 63.111,204.506 62.184 C 204.457 62.109,204.042 61.849,203.585 61.607 C 203.127 61.365,202.800 61.167,202.857 61.167 C 202.915 61.167,202.670 60.848,202.314 60.458 C 201.957 60.069,201.542 59.487,201.392 59.167 C 201.241 58.846,201.062 58.546,200.994 58.500 C 199.951 57.798,199.936 50.262,200.975 48.667 C 201.321 48.135,201.626 47.637,201.756 47.389 C 202.997 45.032,207.275 43.695,210.230 44.740 "
              stroke="none" fill="#041c3c" fill-rule="evenodd"/>
        <path id="path1"
              d="M38.167 20.085 C 35.900 21.046,33.167 22.684,33.167 23.081 C 33.167 23.220,33.103 23.333,33.026 23.333 C 32.949 23.333,32.717 23.952,32.510 24.708 C 32.303 25.465,32.074 26.158,32.000 26.250 C 31.926 26.342,31.694 27.054,31.484 27.833 C 31.273 28.613,31.048 29.288,30.983 29.333 C 30.918 29.379,30.691 30.092,30.478 30.917 C 30.265 31.742,30.042 32.454,29.983 32.500 C 29.924 32.546,29.710 33.258,29.508 34.082 C 29.306 34.906,29.081 35.656,29.007 35.748 C 28.934 35.841,28.712 36.629,28.515 37.500 C 28.317 38.371,28.082 39.233,27.991 39.417 C 27.900 39.600,27.644 40.612,27.422 41.667 L 27.018 43.583 27.417 44.000 C 29.066 45.722,28.524 47.799,26.083 49.105 C 25.710 49.305,25.441 50.548,25.239 53.000 C 25.175 53.779,25.059 54.499,24.980 54.599 C 24.635 55.036,24.765 60.254,25.140 61.023 C 26.282 63.370,30.184 67.518,31.713 68.010 C 32.100 68.134,32.454 68.281,32.500 68.336 C 32.601 68.459,34.844 69.167,35.130 69.167 C 35.242 69.167,35.333 69.231,35.333 69.309 C 35.333 69.387,35.915 69.622,36.625 69.830 C 37.335 70.039,37.997 70.273,38.096 70.351 C 38.195 70.429,38.795 70.652,39.430 70.847 C 40.064 71.042,40.658 71.260,40.750 71.331 C 40.842 71.403,41.479 71.637,42.167 71.853 C 42.854 72.069,43.454 72.288,43.500 72.341 C 43.580 72.433,45.822 73.167,46.023 73.167 C 46.077 73.167,46.157 72.285,46.202 71.208 C 46.328 68.135,47.579 66.687,49.756 67.096 C 51.612 67.444,52.167 68.546,52.167 71.884 L 52.167 74.365 53.042 74.256 C 55.510 73.951,59.221 72.813,61.548 71.646 C 62.859 70.989,62.732 71.178,62.864 69.695 C 62.927 68.992,63.055 67.854,63.149 67.167 C 63.243 66.479,63.446 64.979,63.601 63.833 C 63.755 62.688,63.936 61.675,64.003 61.583 C 64.070 61.492,64.294 60.442,64.502 59.250 C 64.710 58.058,64.933 57.046,64.998 57.000 C 65.063 56.954,65.291 56.054,65.506 55.000 C 65.720 53.946,65.946 53.046,66.008 53.000 C 66.069 52.954,66.297 52.167,66.513 51.250 C 66.730 50.333,66.954 49.546,67.011 49.500 C 67.068 49.454,67.287 48.704,67.497 47.833 C 67.708 46.962,67.937 46.175,68.007 46.083 C 68.077 45.992,68.306 45.279,68.516 44.500 C 68.727 43.721,68.945 43.046,69.002 43.000 C 69.059 42.954,69.284 42.279,69.503 41.500 C 69.721 40.721,69.992 39.905,70.104 39.686 C 70.216 39.468,70.440 38.793,70.602 38.186 C 70.764 37.580,70.947 37.046,71.009 37.000 C 71.072 36.954,71.252 36.467,71.410 35.917 C 71.569 35.367,71.839 34.607,72.011 34.229 C 73.007 32.034,72.676 31.349,70.250 30.587 C 69.792 30.443,69.267 30.252,69.083 30.161 C 68.900 30.071,68.225 29.816,67.583 29.595 C 66.942 29.374,65.667 28.922,64.750 28.591 C 63.833 28.260,62.536 27.806,61.867 27.582 C 61.198 27.359,60.560 27.119,60.450 27.049 C 60.259 26.927,59.064 26.495,56.333 25.562 C 55.646 25.327,55.008 25.076,54.917 25.005 C 54.825 24.934,54.166 24.705,53.452 24.495 C 52.738 24.286,52.113 24.048,52.063 23.967 C 52.013 23.886,51.683 24.081,51.329 24.401 C 49.414 26.131,46.850 25.238,46.273 22.641 L 46.081 21.776 44.999 21.440 C 44.404 21.255,43.879 21.054,43.833 20.993 C 43.788 20.932,43.198 20.712,42.523 20.504 C 41.848 20.297,41.098 20.024,40.856 19.898 C 40.224 19.568,39.220 19.638,38.167 20.085 M40.724 26.690 C 41.380 26.886,41.997 27.109,42.096 27.186 C 42.195 27.263,42.795 27.486,43.430 27.681 C 44.064 27.875,44.658 28.094,44.750 28.167 C 44.842 28.239,45.479 28.465,46.167 28.668 C 46.854 28.871,47.454 29.090,47.500 29.154 C 47.594 29.285,49.816 30.000,50.130 30.000 C 50.242 30.000,50.333 30.059,50.333 30.130 C 50.333 30.202,50.558 30.345,50.833 30.449 C 51.449 30.681,51.533 31.381,50.980 31.677 C 50.635 31.862,48.867 31.513,48.417 31.171 C 48.325 31.101,47.725 30.880,47.083 30.679 C 46.442 30.478,45.729 30.213,45.500 30.089 C 45.271 29.966,44.633 29.737,44.083 29.579 C 43.533 29.422,43.005 29.231,42.909 29.155 C 42.814 29.079,42.139 28.823,41.409 28.587 C 38.904 27.777,38.141 27.216,38.673 26.575 C 38.944 26.249,39.319 26.270,40.724 26.690 M52.265 33.498 C 60.997 35.695,65.020 45.799,60.140 53.275 C 59.461 54.315,59.334 54.624,59.422 55.026 C 59.565 55.674,59.268 56.000,58.533 56.000 C 58.087 56.000,57.586 56.238,56.520 56.955 C 48.685 62.222,38.793 58.110,36.343 48.568 C 36.190 47.971,36.086 47.862,35.503 47.687 C 34.213 47.301,34.221 45.859,35.512 46.066 L 36.118 46.163 36.221 44.956 C 36.277 44.293,36.433 43.386,36.567 42.942 C 36.859 41.972,36.808 41.793,36.162 41.549 C 35.336 41.238,35.540 40.000,36.417 40.000 C 36.609 40.000,36.844 40.077,36.939 40.172 C 37.214 40.447,37.656 40.174,37.994 39.521 C 38.166 39.189,38.698 38.435,39.175 37.847 C 40.082 36.731,40.074 36.333,39.145 36.333 C 38.984 36.333,38.811 36.265,38.760 36.182 C 38.708 36.099,38.252 35.901,37.747 35.742 C 37.034 35.517,36.805 35.362,36.727 35.050 C 36.571 34.427,37.592 33.642,37.903 34.145 C 37.952 34.224,38.594 34.463,39.330 34.676 C 40.065 34.888,40.667 35.115,40.667 35.180 C 40.667 35.596,41.600 35.473,42.574 34.928 C 45.585 33.244,49.159 32.717,52.265 33.498 M35.250 58.717 C 35.892 58.925,36.567 59.179,36.750 59.281 C 36.933 59.382,37.421 59.555,37.833 59.665 C 38.246 59.774,38.808 59.968,39.083 60.096 C 39.557 60.316,40.596 60.694,43.250 61.611 C 45.894 62.526,46.443 62.956,45.765 63.584 C 45.346 63.973,45.311 63.977,44.542 63.737 C 44.106 63.602,43.544 63.446,43.292 63.391 C 43.040 63.336,42.833 63.237,42.833 63.170 C 42.833 63.103,42.252 62.877,41.542 62.667 C 40.831 62.458,40.212 62.230,40.167 62.162 C 40.121 62.093,39.521 61.871,38.833 61.668 C 38.146 61.465,37.508 61.240,37.417 61.169 C 37.325 61.097,36.688 60.863,36.000 60.647 C 35.313 60.431,34.712 60.208,34.667 60.150 C 34.621 60.092,34.396 59.988,34.167 59.919 C 33.353 59.672,33.052 59.014,33.533 58.533 C 33.800 58.267,33.895 58.277,35.250 58.717 M62.292 77.801 C 60.583 78.500,60.557 78.550,61.708 78.924 C 62.190 79.080,62.655 79.273,62.742 79.354 C 63.272 79.844,64.333 79.048,64.333 78.161 C 64.333 77.155,64.011 77.098,62.292 77.801 "
              stroke="none" fill="#043c7b" fill-rule="evenodd"/>
    </g>
</svg>