<svg id="svg" version="1.1" xmlns="http://www.w3.org/2000/svg" width="400" height="93.39999999999999"
     viewBox="0, 0, 400,93.39999999999999">
    <g id="svgg">
        <path id="path0"
              d="M191.375 16.958 C 192.910 16.986,195.423 16.986,196.958 16.958 C 198.494 16.931,197.237 16.908,194.167 16.908 C 191.096 16.908,189.840 16.931,191.375 16.958 M38.833 19.908 C 37.537 20.391,35.336 21.545,33.947 22.471 C 33.313 22.893,32.752 23.696,32.951 23.896 C 33.009 23.953,32.968 24.000,32.861 24.000 C 32.754 24.000,32.679 24.056,32.694 24.125 C 32.708 24.194,32.633 24.461,32.527 24.719 C 32.420 24.977,32.333 25.277,32.332 25.386 C 32.332 25.494,32.223 25.792,32.090 26.047 C 31.957 26.301,31.691 27.089,31.498 27.797 C 31.306 28.504,31.060 29.308,30.953 29.583 C 30.846 29.858,30.740 30.158,30.719 30.250 C 30.526 31.076,29.988 32.878,29.863 33.117 C 29.777 33.282,29.548 34.045,29.356 34.813 C 29.163 35.581,28.941 36.294,28.863 36.396 C 28.784 36.499,28.585 37.183,28.420 37.917 C 28.255 38.650,28.076 39.325,28.023 39.417 C 27.969 39.508,27.919 39.658,27.912 39.750 C 27.904 39.842,27.853 40.029,27.799 40.167 C 27.745 40.304,27.574 41.017,27.419 41.750 C 27.264 42.483,27.119 43.156,27.098 43.245 C 27.076 43.334,27.301 43.725,27.597 44.113 C 28.996 45.945,28.555 48.052,26.593 48.920 L 25.719 49.306 25.521 50.778 C 25.412 51.588,25.244 52.813,25.147 53.500 C 25.051 54.188,24.959 55.913,24.944 57.333 C 24.929 58.754,24.862 59.958,24.794 60.008 C 24.203 60.450,29.943 67.303,31.333 67.815 C 31.654 67.934,32.217 68.162,32.583 68.323 C 32.950 68.485,33.719 68.752,34.292 68.918 C 34.865 69.084,35.333 69.272,35.333 69.337 C 35.333 69.401,35.952 69.628,36.708 69.841 C 37.465 70.054,38.121 70.270,38.167 70.322 C 38.212 70.374,38.662 70.556,39.167 70.725 C 39.671 70.895,40.308 71.132,40.583 71.252 C 40.858 71.372,41.496 71.599,42.000 71.755 C 42.504 71.912,43.142 72.140,43.417 72.261 C 43.904 72.477,45.918 73.167,46.061 73.167 C 46.101 73.167,46.159 72.204,46.192 71.028 C 46.286 67.583,48.077 66.094,50.615 67.352 C 51.964 68.021,52.232 68.710,52.333 71.766 L 52.417 74.282 54.672 73.832 C 57.210 73.324,59.848 72.447,61.583 71.532 L 62.750 70.917 62.795 69.750 C 62.820 69.108,62.891 68.471,62.953 68.333 C 63.014 68.196,63.080 67.727,63.099 67.292 C 63.119 66.856,63.151 66.481,63.172 66.458 C 63.192 66.435,63.227 66.267,63.248 66.083 C 63.413 64.665,63.914 61.567,63.990 61.500 C 64.041 61.454,64.097 61.304,64.114 61.167 C 64.131 61.029,64.190 60.692,64.246 60.417 C 64.302 60.142,64.462 59.317,64.601 58.583 C 64.740 57.850,64.924 57.100,65.010 56.917 C 65.143 56.633,65.465 55.198,65.787 53.458 C 65.833 53.206,65.942 53.000,66.029 53.000 C 66.115 53.000,66.138 52.922,66.079 52.826 C 66.020 52.730,66.043 52.562,66.131 52.451 C 66.219 52.340,66.421 51.650,66.580 50.917 C 66.739 50.183,66.934 49.503,67.013 49.405 C 67.092 49.307,67.239 48.820,67.339 48.322 C 67.532 47.361,67.724 46.755,68.112 45.873 C 68.243 45.574,68.308 45.261,68.256 45.176 C 68.204 45.092,68.228 44.982,68.309 44.932 C 68.390 44.881,68.557 44.389,68.679 43.837 C 68.802 43.285,68.974 42.833,69.062 42.833 C 69.150 42.833,69.173 42.784,69.113 42.724 C 69.052 42.663,69.066 42.532,69.143 42.432 C 69.221 42.332,69.422 41.706,69.591 41.042 C 69.760 40.377,69.950 39.833,70.014 39.833 C 70.078 39.833,70.296 39.215,70.499 38.458 C 70.702 37.702,70.968 36.896,71.090 36.667 C 71.213 36.438,71.460 35.800,71.640 35.250 C 71.820 34.700,72.091 33.919,72.242 33.515 C 72.756 32.141,72.341 31.180,71.126 30.927 C 71.011 30.903,70.804 30.838,70.667 30.782 C 70.282 30.627,68.577 30.020,66.917 29.448 C 66.092 29.164,65.379 28.884,65.333 28.826 C 65.287 28.768,64.744 28.584,64.125 28.419 C 63.506 28.253,63.000 28.045,63.000 27.957 C 63.000 27.870,62.887 27.841,62.750 27.894 C 62.612 27.946,62.500 27.929,62.500 27.856 C 62.500 27.782,62.406 27.714,62.292 27.705 C 62.079 27.687,61.355 27.434,58.833 26.496 C 56.418 25.597,55.144 25.167,54.901 25.167 C 54.772 25.167,54.667 25.087,54.667 24.990 C 54.667 24.893,54.592 24.860,54.500 24.917 C 54.408 24.973,54.333 24.947,54.333 24.858 C 54.333 24.769,54.052 24.646,53.708 24.586 C 53.365 24.525,52.821 24.349,52.500 24.193 C 51.920 23.913,51.914 23.914,51.535 24.363 C 49.949 26.238,46.573 25.295,46.250 22.888 C 46.190 22.445,46.118 22.004,46.088 21.907 C 46.059 21.810,45.539 21.588,44.934 21.415 C 44.329 21.242,43.833 21.028,43.833 20.939 C 43.833 20.850,43.784 20.827,43.724 20.887 C 43.663 20.948,43.532 20.934,43.432 20.858 C 43.332 20.781,42.875 20.620,42.417 20.500 C 41.958 20.379,41.305 20.143,40.965 19.974 C 40.251 19.619,39.656 19.601,38.833 19.908 M39.833 26.355 C 39.833 26.413,40.190 26.550,40.625 26.659 C 41.060 26.769,41.642 26.957,41.917 27.077 C 42.192 27.197,42.904 27.466,43.500 27.675 C 44.096 27.884,44.658 28.109,44.750 28.176 C 44.842 28.243,45.517 28.464,46.250 28.667 C 46.983 28.870,47.664 29.101,47.763 29.181 C 47.862 29.261,48.462 29.486,49.096 29.682 C 49.731 29.877,50.302 30.121,50.366 30.222 C 50.430 30.324,50.536 30.353,50.602 30.286 C 50.802 30.087,51.333 30.690,51.333 31.117 C 51.333 31.590,50.443 32.061,50.010 31.816 C 49.669 31.623,48.308 31.147,48.042 31.127 C 47.927 31.118,47.833 31.063,47.833 31.003 C 47.833 30.944,47.215 30.718,46.458 30.502 C 45.702 30.286,45.046 30.055,45.000 29.989 C 44.954 29.922,44.392 29.683,43.750 29.457 C 43.108 29.231,41.983 28.835,41.250 28.578 C 38.758 27.702,38.126 27.190,38.724 26.529 C 38.962 26.266,39.833 26.129,39.833 26.355 M52.417 33.412 C 61.246 35.447,65.158 46.059,59.935 53.807 C 59.503 54.448,59.362 54.808,59.433 55.090 C 59.532 55.483,59.113 56.307,58.872 56.192 C 58.805 56.160,58.631 56.070,58.485 55.992 C 58.294 55.890,57.947 56.058,57.235 56.598 C 49.611 62.386,38.268 58.235,36.341 48.952 C 36.165 48.107,36.102 48.022,35.368 47.649 C 34.181 47.045,34.252 46.000,35.481 46.000 C 35.923 46.000,35.994 45.933,36.061 45.458 C 36.201 44.455,36.507 42.587,36.606 42.125 C 36.690 41.739,36.650 41.667,36.357 41.667 C 36.165 41.667,35.885 41.479,35.735 41.250 C 35.214 40.455,36.115 39.693,37.010 40.172 C 37.289 40.322,37.410 40.219,37.943 39.380 C 38.280 38.850,38.888 38.025,39.294 37.546 C 40.033 36.676,40.033 36.675,39.642 36.518 C 39.090 36.296,38.612 36.123,38.417 36.075 C 36.871 35.691,36.271 34.910,37.008 34.242 C 37.310 33.969,37.412 33.958,37.883 34.150 C 38.177 34.270,38.904 34.522,39.500 34.710 C 40.096 34.899,40.621 35.103,40.667 35.164 C 40.941 35.528,41.448 35.414,42.948 34.651 C 46.080 33.056,49.137 32.656,52.417 33.412 M35.146 58.662 C 35.547 58.770,36.072 58.939,36.312 59.040 C 36.553 59.140,36.787 59.231,36.833 59.242 C 36.879 59.253,37.067 59.344,37.250 59.445 C 37.433 59.545,37.846 59.683,38.167 59.751 C 38.487 59.818,39.012 60.006,39.333 60.168 C 39.654 60.329,40.404 60.594,41.000 60.756 C 41.596 60.918,42.196 61.144,42.333 61.257 C 42.471 61.370,42.846 61.518,43.167 61.585 C 43.974 61.753,45.703 62.553,45.974 62.883 C 46.260 63.231,45.767 63.930,45.250 63.910 C 44.753 63.891,42.934 63.284,42.801 63.093 C 42.737 63.001,42.635 62.976,42.574 63.037 C 42.513 63.098,42.192 63.002,41.859 62.824 C 41.527 62.646,41.150 62.500,41.021 62.500 C 40.892 62.500,40.478 62.354,40.102 62.175 C 39.725 61.995,38.948 61.716,38.375 61.554 C 37.802 61.392,37.333 61.209,37.333 61.146 C 37.333 61.084,36.940 60.941,36.458 60.828 C 35.977 60.715,35.508 60.578,35.417 60.524 C 35.325 60.470,35.139 60.409,35.003 60.389 C 34.867 60.368,34.730 60.272,34.697 60.176 C 34.665 60.079,34.492 60.000,34.312 60.000 C 33.943 60.000,33.167 59.297,33.167 58.963 C 33.167 58.665,34.035 58.156,34.247 58.329 C 34.341 58.405,34.745 58.555,35.146 58.662 M63.242 77.482 C 63.155 77.563,62.612 77.799,62.037 78.006 C 60.620 78.514,60.626 78.587,62.119 79.058 L 63.413 79.466 63.873 79.138 C 64.201 78.905,64.333 78.666,64.333 78.310 C 64.333 77.555,63.687 77.064,63.242 77.482 "
              stroke="none" fill="#343434" fill-rule="evenodd"/>
        <path id="path1"
              d="M48.292 0.786 C 48.040 0.824,47.833 0.916,47.833 0.991 C 47.833 1.065,47.606 1.221,47.327 1.336 C 46.290 1.766,46.167 2.409,46.167 7.408 L 46.167 11.833 45.792 11.853 C 45.585 11.864,45.315 11.859,45.192 11.842 C 45.068 11.825,45.016 11.891,45.076 11.989 C 45.147 12.102,44.956 12.171,44.552 12.179 C 44.202 12.186,43.767 12.219,43.583 12.252 C 43.400 12.285,42.669 12.405,41.958 12.519 C 41.248 12.633,40.667 12.786,40.667 12.858 C 40.667 12.930,40.568 12.952,40.447 12.905 C 40.327 12.859,40.008 12.936,39.739 13.076 C 39.470 13.217,39.124 13.332,38.969 13.332 C 38.815 13.333,38.477 13.414,38.219 13.512 C 37.961 13.610,37.730 13.683,37.707 13.675 C 37.683 13.667,37.446 13.772,37.182 13.909 C 36.917 14.046,36.207 14.320,35.604 14.518 C 35.001 14.716,34.541 14.931,34.582 14.997 C 34.622 15.063,34.245 15.256,33.744 15.426 C 33.243 15.596,32.833 15.825,32.833 15.933 C 32.833 16.042,32.627 16.182,32.375 16.245 C 32.123 16.308,31.804 16.461,31.667 16.584 C 31.421 16.805,31.345 16.833,30.990 16.833 C 30.893 16.833,30.852 16.896,30.899 16.972 C 30.946 17.048,30.726 17.212,30.409 17.336 C 30.092 17.461,29.833 17.623,29.833 17.698 C 29.833 17.772,29.716 17.833,29.573 17.833 C 29.431 17.833,29.359 17.906,29.414 17.995 C 29.469 18.084,29.323 18.205,29.090 18.263 C 28.857 18.322,28.667 18.431,28.667 18.507 C 28.667 18.582,28.516 18.692,28.331 18.751 C 28.146 18.809,28.038 18.927,28.091 19.012 C 28.143 19.097,28.084 19.167,27.959 19.167 C 27.834 19.167,27.369 19.504,26.926 19.917 C 26.483 20.329,26.094 20.667,26.062 20.667 C 25.864 20.667,22.057 24.785,22.129 24.922 C 22.154 24.970,21.998 25.175,21.783 25.379 C 21.568 25.583,21.344 25.881,21.284 26.042 C 21.225 26.202,21.112 26.333,21.031 26.333 C 20.951 26.333,20.712 26.671,20.500 27.083 C 20.288 27.496,20.047 27.833,19.964 27.833 C 19.881 27.833,19.860 27.908,19.917 28.000 C 19.973 28.092,19.946 28.167,19.857 28.167 C 19.767 28.167,19.566 28.503,19.409 28.913 C 19.252 29.324,19.059 29.620,18.979 29.570 C 18.899 29.521,18.824 29.560,18.813 29.657 C 18.778 29.951,18.740 30.056,18.408 30.792 C 18.232 31.181,18.033 31.500,17.966 31.500 C 17.899 31.500,17.891 31.623,17.949 31.774 C 18.009 31.929,17.948 32.128,17.808 32.232 C 17.673 32.334,17.464 32.772,17.344 33.205 C 17.223 33.639,17.059 33.953,16.979 33.904 C 16.899 33.854,16.824 33.968,16.813 34.157 C 16.788 34.568,16.771 34.631,16.550 35.167 C 16.456 35.396,16.326 35.941,16.262 36.378 C 16.198 36.815,16.079 37.132,15.998 37.082 C 15.917 37.032,15.880 37.143,15.916 37.329 C 15.952 37.515,15.919 37.667,15.843 37.667 C 15.715 37.667,15.407 39.388,15.217 41.167 C 15.173 41.579,15.064 42.005,14.975 42.113 C 14.886 42.220,14.836 42.445,14.865 42.613 C 14.914 42.900,14.668 42.919,10.458 42.961 C 7.235 42.993,6.000 43.059,6.000 43.197 C 6.000 43.303,5.950 43.339,5.888 43.277 C 5.827 43.216,5.602 43.280,5.388 43.420 C 5.175 43.560,5.000 43.623,5.000 43.561 C 5.000 43.499,4.852 43.582,4.671 43.746 C 4.489 43.910,4.374 44.098,4.415 44.164 C 4.455 44.229,4.350 44.431,4.181 44.613 C 3.659 45.173,3.497 47.894,4.004 47.581 C 4.080 47.534,4.195 47.659,4.258 47.860 C 4.377 48.233,5.000 48.998,5.000 48.770 C 5.000 48.701,5.212 48.795,5.470 48.979 C 5.912 49.293,6.213 49.315,10.326 49.328 C 14.900 49.342,15.045 49.356,14.891 49.757 C 14.839 49.893,14.871 50.097,14.962 50.210 C 15.053 50.324,15.176 50.884,15.235 51.455 C 15.294 52.026,15.420 52.851,15.514 53.289 C 15.609 53.726,15.686 54.215,15.687 54.375 C 15.687 54.535,15.751 54.667,15.829 54.667 C 15.907 54.667,15.949 54.798,15.923 54.958 C 15.897 55.119,15.934 55.325,16.004 55.417 C 16.074 55.508,16.303 56.221,16.512 57.000 C 16.721 57.779,16.988 58.512,17.106 58.630 C 17.224 58.748,17.369 59.105,17.429 59.424 C 17.489 59.743,17.606 60.046,17.688 60.097 C 17.771 60.148,17.796 60.260,17.743 60.345 C 17.690 60.430,17.731 60.500,17.833 60.500 C 17.936 60.500,17.978 60.567,17.927 60.649 C 17.877 60.731,17.948 60.842,18.086 60.895 C 18.224 60.947,18.321 61.049,18.301 61.120 C 18.241 61.340,18.725 62.500,18.877 62.500 C 18.955 62.500,18.978 62.567,18.927 62.649 C 18.877 62.731,18.947 62.841,19.084 62.894 C 19.221 62.947,19.333 63.101,19.333 63.238 C 19.333 63.375,19.491 63.634,19.684 63.814 C 19.877 63.994,19.986 64.222,19.925 64.321 C 19.864 64.419,19.885 64.500,19.971 64.500 C 20.058 64.500,20.245 64.746,20.388 65.047 C 20.531 65.348,20.783 65.753,20.949 65.948 C 21.114 66.143,21.363 66.470,21.500 66.674 C 21.637 66.879,21.956 67.277,22.208 67.560 C 22.460 67.843,22.667 68.137,22.667 68.214 C 22.667 68.290,22.736 68.310,22.821 68.257 C 22.906 68.205,23.020 68.302,23.075 68.473 C 23.181 68.808,25.684 71.383,26.829 72.333 C 27.215 72.654,27.801 73.156,28.130 73.449 C 28.460 73.741,28.785 73.946,28.853 73.904 C 28.921 73.862,29.095 73.996,29.239 74.201 C 29.382 74.406,29.502 74.501,29.505 74.412 C 29.508 74.323,29.587 74.383,29.682 74.545 C 29.776 74.708,29.916 74.802,29.991 74.755 C 30.067 74.709,30.222 74.782,30.335 74.919 C 30.448 75.055,30.649 75.167,30.780 75.167 C 30.912 75.167,30.979 75.233,30.929 75.314 C 30.879 75.395,31.212 75.622,31.669 75.818 C 32.126 76.015,32.500 76.253,32.500 76.348 C 32.500 76.442,32.575 76.473,32.667 76.417 C 32.758 76.360,32.833 76.379,32.833 76.460 C 32.833 76.540,33.248 76.736,33.754 76.896 C 34.260 77.056,34.636 77.248,34.590 77.323 C 34.543 77.398,35.029 77.628,35.669 77.834 C 36.309 78.040,36.833 78.274,36.833 78.354 C 36.833 78.434,36.890 78.488,36.958 78.474 C 37.027 78.459,37.196 78.490,37.333 78.542 C 37.676 78.672,38.318 78.833,38.917 78.938 C 39.192 78.987,39.571 79.125,39.759 79.245 C 40.142 79.491,42.210 79.924,43.792 80.090 C 44.365 80.150,44.876 80.267,44.927 80.350 C 44.978 80.432,45.274 80.500,45.586 80.500 L 46.152 80.500 46.201 85.149 C 46.247 89.523,46.270 89.821,46.583 90.178 C 46.776 90.397,46.811 90.496,46.667 90.413 C 46.452 90.289,46.448 90.309,46.644 90.550 C 46.769 90.704,46.938 90.789,47.019 90.738 C 47.100 90.688,47.167 90.721,47.167 90.812 C 47.167 90.903,47.318 91.025,47.502 91.084 C 47.687 91.143,47.799 91.255,47.750 91.333 C 47.599 91.577,49.516 91.737,49.879 91.510 C 50.056 91.399,50.156 91.382,50.101 91.472 C 50.042 91.567,50.138 91.599,50.331 91.549 C 50.514 91.501,50.622 91.396,50.572 91.314 C 50.521 91.233,50.622 91.167,50.794 91.167 C 50.967 91.167,51.285 90.979,51.500 90.750 C 51.715 90.521,51.827 90.333,51.748 90.333 C 51.669 90.333,51.768 90.180,51.969 89.994 C 52.327 89.660,52.333 89.570,52.333 85.077 C 52.333 80.781,52.352 80.500,52.633 80.500 C 52.798 80.500,53.034 80.406,53.158 80.292 C 53.337 80.125,53.359 80.125,53.265 80.292 C 53.133 80.525,53.429 80.584,53.571 80.353 C 53.621 80.272,54.095 80.153,54.623 80.089 C 56.408 79.871,58.397 79.488,58.596 79.323 C 58.705 79.233,59.227 79.046,59.757 78.908 C 60.287 78.770,60.802 78.557,60.902 78.434 C 61.126 78.159,63.664 77.108,63.793 77.237 C 63.844 77.288,63.968 77.266,64.068 77.187 C 64.168 77.108,64.532 76.953,64.877 76.842 C 65.221 76.731,65.596 76.548,65.710 76.436 C 65.824 76.324,66.273 76.061,66.708 75.851 C 67.144 75.642,67.500 75.409,67.500 75.335 C 67.500 75.260,67.711 75.126,67.968 75.036 C 68.226 74.946,68.564 74.746,68.718 74.591 C 68.873 74.436,69.000 74.350,69.000 74.399 C 69.000 74.448,69.228 74.266,69.506 73.994 C 69.784 73.722,70.092 73.500,70.190 73.500 C 70.288 73.500,70.516 73.313,70.696 73.083 C 70.877 72.854,71.103 72.667,71.200 72.667 C 71.297 72.667,71.779 72.247,72.272 71.735 C 72.764 71.223,73.167 70.859,73.167 70.928 C 73.167 70.996,73.317 70.916,73.500 70.750 C 73.683 70.584,73.833 70.347,73.833 70.224 C 73.833 70.101,73.946 70.000,74.083 70.000 C 74.221 70.000,74.333 69.933,74.333 69.851 C 74.333 69.769,74.652 69.358,75.042 68.938 C 75.431 68.519,75.938 67.947,76.167 67.669 C 76.396 67.390,76.701 67.028,76.844 66.863 C 76.987 66.698,77.071 66.463,77.030 66.341 C 76.990 66.220,77.031 66.166,77.121 66.222 C 77.211 66.277,77.426 66.032,77.599 65.676 C 77.772 65.321,77.959 65.058,78.015 65.093 C 78.115 65.155,78.418 64.640,79.417 62.714 C 79.692 62.184,79.996 61.666,80.092 61.562 C 80.189 61.459,80.406 60.918,80.575 60.360 C 80.744 59.801,80.947 59.384,81.025 59.432 C 81.103 59.480,81.167 59.370,81.167 59.186 C 81.167 59.003,81.229 58.815,81.305 58.767 C 81.381 58.720,81.537 58.266,81.650 57.758 C 81.764 57.249,81.939 56.833,82.040 56.833 C 82.140 56.833,82.179 56.790,82.125 56.736 C 82.072 56.683,82.135 56.383,82.266 56.071 C 82.397 55.758,82.501 55.445,82.497 55.376 C 82.468 54.881,82.908 52.860,83.028 52.934 C 83.110 52.985,83.144 52.840,83.103 52.611 C 83.061 52.382,83.073 52.149,83.130 52.093 C 83.245 51.977,83.272 51.825,83.424 50.417 C 83.484 49.867,83.549 49.400,83.568 49.379 C 83.588 49.358,85.651 49.335,88.154 49.328 C 90.656 49.321,92.656 49.267,92.598 49.209 C 92.539 49.151,92.730 49.023,93.022 48.926 C 94.722 48.360,95.260 45.375,93.901 44.045 C 92.885 43.050,92.730 43.023,87.981 43.005 C 85.572 42.997,83.586 42.973,83.567 42.953 C 83.548 42.933,83.481 42.429,83.417 41.833 C 83.353 41.237,83.250 40.675,83.188 40.583 C 83.127 40.492,83.086 40.192,83.099 39.917 C 83.111 39.642,83.071 39.379,83.008 39.333 C 82.946 39.287,82.759 38.594,82.593 37.792 C 82.427 36.990,82.236 36.333,82.168 36.333 C 82.101 36.333,82.066 36.146,82.092 35.917 C 82.117 35.688,82.083 35.500,82.017 35.500 C 81.951 35.500,81.796 35.106,81.673 34.625 C 81.550 34.144,81.330 33.566,81.183 33.341 C 81.037 33.116,80.936 32.909,80.959 32.882 C 80.982 32.855,80.857 32.514,80.681 32.125 C 80.504 31.735,80.311 31.247,80.251 31.039 C 80.192 30.832,80.089 30.695,80.024 30.735 C 79.959 30.776,79.733 30.364,79.522 29.820 C 79.311 29.276,79.081 28.867,79.011 28.910 C 78.941 28.953,78.785 28.691,78.665 28.328 C 78.545 27.964,78.384 27.667,78.307 27.667 C 78.230 27.667,78.167 27.550,78.167 27.407 C 78.167 27.264,78.100 27.188,78.018 27.239 C 77.936 27.290,77.711 26.994,77.517 26.582 C 77.323 26.170,77.099 25.833,77.019 25.833 C 76.939 25.833,76.780 25.606,76.665 25.329 C 76.550 25.052,76.242 24.673,75.981 24.487 C 75.720 24.301,75.523 24.090,75.545 24.019 C 75.566 23.948,75.142 23.465,74.603 22.945 C 74.063 22.425,73.681 22.000,73.753 22.000 C 73.826 22.000,73.749 21.850,73.583 21.667 C 73.417 21.483,73.226 21.333,73.158 21.333 C 73.089 21.333,72.780 21.090,72.471 20.792 C 72.162 20.494,71.760 20.153,71.579 20.035 C 71.398 19.917,71.344 19.866,71.458 19.920 C 71.955 20.157,71.607 19.821,71.007 19.484 C 70.644 19.280,70.380 19.059,70.421 18.992 C 70.462 18.926,70.290 18.786,70.040 18.681 C 69.789 18.575,69.284 18.229,68.918 17.911 C 68.553 17.593,68.159 17.333,68.043 17.333 C 67.928 17.333,67.700 17.202,67.537 17.042 C 67.212 16.723,66.629 16.414,66.039 16.248 C 65.832 16.190,65.695 16.089,65.736 16.023 C 65.776 15.958,65.571 15.806,65.280 15.685 C 64.614 15.410,63.826 15.036,63.500 14.841 C 63.268 14.701,62.635 14.468,62.543 14.487 C 62.521 14.492,62.247 14.352,61.934 14.176 C 61.273 13.805,59.216 13.167,58.681 13.167 C 58.479 13.167,58.352 13.104,58.399 13.028 C 58.447 12.951,58.395 12.885,58.284 12.881 C 58.174 12.876,57.858 12.823,57.583 12.764 C 56.207 12.465,54.357 12.167,53.875 12.167 C 53.577 12.167,53.333 12.092,53.333 12.000 C 53.333 11.908,53.108 11.833,52.833 11.833 L 52.333 11.833 52.321 7.458 C 52.307 2.813,52.285 2.456,52.009 2.364 C 51.912 2.332,51.832 2.218,51.830 2.111 C 51.827 1.868,51.100 1.167,50.852 1.167 C 50.750 1.167,50.667 1.087,50.667 0.990 C 50.667 0.893,50.597 0.857,50.512 0.910 C 50.426 0.962,50.309 0.929,50.252 0.836 C 50.150 0.671,49.211 0.647,48.292 0.786 M188.558 17.039 C 188.698 17.129,188.694 17.162,188.542 17.164 C 188.376 17.166,188.333 22.879,188.333 45.167 L 188.333 73.167 193.583 73.167 C 198.139 73.167,198.833 73.134,198.833 72.917 C 198.833 72.779,198.897 72.667,198.975 72.667 C 199.052 72.667,199.122 72.460,199.130 72.208 C 199.150 71.536,199.486 68.958,199.563 68.881 C 199.600 68.845,200.088 69.265,200.648 69.815 C 201.208 70.365,201.667 70.779,201.667 70.734 C 201.667 70.656,201.874 70.809,202.479 71.333 C 203.231 71.985,206.114 73.167,206.951 73.167 C 207.172 73.167,207.311 73.235,207.259 73.319 C 207.113 73.554,209.419 73.713,211.924 73.639 C 213.313 73.599,214.230 73.503,214.301 73.390 C 214.365 73.290,214.754 73.155,215.167 73.090 C 216.280 72.916,217.664 72.464,217.566 72.305 C 217.519 72.229,217.601 72.167,217.749 72.167 C 218.090 72.167,219.374 71.484,219.550 71.208 C 219.623 71.094,219.791 71.000,219.923 71.000 C 220.056 71.000,220.379 70.775,220.642 70.500 C 220.904 70.225,221.161 70.000,221.211 70.000 C 221.261 70.000,221.741 69.580,222.276 69.067 C 222.812 68.554,223.137 68.187,223.000 68.251 C 222.862 68.315,222.994 68.166,223.293 67.920 C 223.592 67.674,223.797 67.409,223.749 67.331 C 223.701 67.253,223.812 67.084,223.996 66.955 C 224.180 66.826,224.282 66.671,224.221 66.610 C 224.161 66.550,224.194 66.500,224.295 66.500 C 224.396 66.500,224.572 66.241,224.686 65.926 C 224.800 65.610,224.943 65.381,225.002 65.418 C 225.113 65.486,225.833 63.966,225.833 63.665 C 225.833 63.574,225.916 63.500,226.018 63.500 C 226.119 63.500,226.161 63.392,226.111 63.261 C 226.060 63.129,226.091 62.997,226.180 62.968 C 226.268 62.938,226.380 62.697,226.428 62.431 C 226.476 62.166,226.587 61.815,226.675 61.652 C 226.762 61.489,226.833 61.200,226.833 61.011 C 226.833 60.822,226.903 60.667,226.989 60.667 C 227.075 60.667,227.110 60.473,227.067 60.237 C 227.024 60.000,227.053 59.847,227.132 59.895 C 227.753 60.279,227.987 51.076,227.429 48.223 C 227.390 48.025,227.307 47.520,227.244 47.100 C 227.181 46.680,227.071 46.373,227.000 46.417 C 226.929 46.461,226.831 46.291,226.782 46.040 C 226.669 45.460,226.533 44.917,226.500 44.917 C 226.487 44.917,226.442 44.735,226.401 44.513 C 226.360 44.291,226.244 44.010,226.143 43.888 C 226.042 43.766,226.025 43.666,226.105 43.664 C 226.185 43.663,226.173 43.606,226.079 43.539 C 225.985 43.472,225.764 43.079,225.590 42.667 C 225.415 42.254,225.121 41.746,224.937 41.538 C 224.753 41.330,224.584 41.036,224.562 40.886 C 224.540 40.736,224.347 40.456,224.135 40.265 C 223.922 40.073,223.636 39.699,223.499 39.433 C 223.362 39.166,223.044 38.796,222.792 38.610 C 222.540 38.423,222.333 38.172,222.333 38.052 C 222.333 37.932,222.240 37.830,222.125 37.826 C 222.010 37.822,221.733 37.597,221.508 37.326 C 221.283 37.055,221.036 36.833,220.959 36.833 C 220.882 36.833,220.658 36.683,220.462 36.500 C 220.265 36.317,220.013 36.167,219.903 36.167 C 219.793 36.167,219.657 36.049,219.602 35.906 C 219.547 35.763,219.427 35.692,219.335 35.749 C 219.242 35.806,219.167 35.774,219.167 35.677 C 219.167 35.579,219.060 35.500,218.929 35.500 C 218.798 35.500,218.573 35.383,218.430 35.239 C 218.287 35.096,218.102 35.020,218.020 35.071 C 217.938 35.122,217.789 35.064,217.688 34.942 C 217.587 34.820,217.091 34.622,216.585 34.501 C 216.080 34.379,215.667 34.216,215.667 34.137 C 215.667 34.058,215.478 34.028,215.247 34.070 C 215.016 34.112,214.864 34.085,214.910 34.011 C 215.271 33.427,206.994 33.446,206.413 34.030 C 206.351 34.093,206.196 34.103,206.067 34.054 C 205.939 34.005,205.833 34.046,205.833 34.147 C 205.833 34.247,205.532 34.378,205.163 34.437 C 204.794 34.496,204.452 34.609,204.403 34.689 C 204.354 34.768,204.180 34.833,204.016 34.833 C 203.852 34.833,203.583 34.983,203.417 35.167 C 203.251 35.350,203.024 35.500,202.914 35.500 C 202.803 35.500,202.501 35.706,202.244 35.958 C 201.986 36.210,201.842 36.304,201.923 36.167 C 202.090 35.884,201.185 36.541,200.571 37.149 L 200.167 37.549 200.167 27.358 C 200.167 20.296,200.112 17.167,199.990 17.167 C 199.893 17.167,199.848 17.110,199.891 17.042 C 199.933 16.973,197.357 16.917,194.167 16.917 C 190.976 16.917,188.452 16.972,188.558 17.039 M46.168 20.125 C 46.169 23.533,46.926 24.946,48.848 25.130 C 49.927 25.234,50.341 25.107,51.165 24.418 C 51.550 24.096,51.924 23.870,51.997 23.915 C 52.243 24.067,52.329 23.257,52.331 20.770 L 52.333 18.290 53.292 18.402 C 53.819 18.463,54.587 18.553,55.000 18.602 C 55.413 18.651,55.975 18.791,56.250 18.913 C 56.668 19.099,57.001 19.203,57.833 19.410 C 58.228 19.508,59.331 19.918,59.667 20.092 C 60.016 20.272,60.393 20.431,60.833 20.583 C 61.239 20.724,61.656 20.938,62.042 21.205 C 62.294 21.380,62.501 21.461,62.503 21.386 C 62.504 21.311,62.560 21.327,62.628 21.420 C 62.791 21.647,63.706 22.069,63.917 22.015 C 64.008 21.992,64.027 22.029,63.958 22.098 C 63.889 22.167,64.151 22.411,64.541 22.641 C 64.931 22.871,65.287 23.105,65.333 23.162 C 65.379 23.219,65.678 23.449,65.998 23.672 C 66.317 23.896,66.701 24.192,66.849 24.331 C 66.998 24.470,67.402 24.808,67.746 25.083 C 68.834 25.952,69.995 27.116,69.885 27.227 C 69.826 27.285,69.898 27.333,70.044 27.333 C 70.191 27.333,70.358 27.483,70.417 27.667 C 70.475 27.850,70.649 28.006,70.803 28.013 C 70.989 28.022,71.011 28.055,70.867 28.113 C 70.706 28.178,70.739 28.292,70.993 28.558 C 71.871 29.476,72.370 30.110,72.609 30.615 C 72.762 30.937,72.948 31.119,73.060 31.055 C 73.164 30.995,73.200 31.002,73.139 31.071 C 73.019 31.205,73.744 32.758,74.001 32.917 C 74.170 33.022,74.890 34.478,74.906 34.750 C 74.912 34.842,74.973 34.959,75.042 35.010 C 75.111 35.061,75.350 35.699,75.573 36.427 C 75.796 37.154,75.992 37.637,76.008 37.500 C 76.043 37.210,76.187 37.820,76.577 39.917 C 76.731 40.742,76.920 41.567,76.998 41.750 C 77.076 41.933,77.178 42.308,77.224 42.583 L 77.308 43.083 74.738 43.050 C 73.200 43.030,72.167 43.080,72.167 43.175 C 72.167 43.262,72.035 43.339,71.875 43.346 C 71.289 43.370,70.587 43.943,70.343 44.596 C 70.208 44.956,70.038 45.275,69.965 45.306 C 69.780 45.384,69.800 47.000,69.986 47.000 C 70.070 47.000,70.243 47.313,70.371 47.696 C 70.499 48.079,70.748 48.473,70.926 48.571 C 71.103 48.670,71.455 48.887,71.708 49.054 C 71.961 49.220,72.336 49.343,72.542 49.327 C 72.748 49.310,73.873 49.305,75.042 49.315 L 77.167 49.333 77.167 49.907 C 77.167 50.222,77.090 50.528,76.996 50.586 C 76.901 50.644,76.840 50.780,76.859 50.888 C 76.879 50.995,76.807 51.496,76.701 52.000 C 76.595 52.504,76.461 53.142,76.403 53.417 C 76.345 53.692,76.260 54.160,76.214 54.457 C 76.168 54.754,76.078 54.965,76.013 54.925 C 75.949 54.885,75.718 55.444,75.500 56.167 C 75.282 56.889,75.031 57.436,74.943 57.381 C 74.854 57.327,74.831 57.361,74.891 57.459 C 75.016 57.661,74.230 59.265,73.786 59.712 C 73.622 59.877,73.527 60.076,73.575 60.154 C 73.624 60.232,73.552 60.388,73.417 60.500 C 73.281 60.612,73.211 60.771,73.262 60.852 C 73.312 60.933,73.275 61.000,73.180 61.000 C 73.085 61.000,72.863 61.281,72.686 61.625 C 72.510 61.969,72.173 62.430,71.938 62.649 C 71.703 62.869,71.546 63.107,71.590 63.178 C 71.634 63.249,71.494 63.445,71.280 63.613 C 71.065 63.782,70.922 64.015,70.961 64.132 C 70.999 64.248,70.968 64.324,70.891 64.300 C 70.813 64.275,70.547 64.460,70.299 64.711 C 70.051 64.962,69.876 65.167,69.910 65.167 C 69.966 65.167,68.841 66.279,67.675 67.375 C 67.407 67.627,67.117 67.833,67.030 67.833 C 66.943 67.833,66.749 68.021,66.599 68.250 C 66.449 68.479,66.218 68.667,66.085 68.667 C 65.953 68.667,65.769 68.809,65.676 68.982 C 65.583 69.156,65.299 69.383,65.045 69.488 C 64.363 69.767,63.824 70.102,63.913 70.191 C 63.956 70.234,63.731 70.364,63.412 70.479 C 63.094 70.594,62.833 70.761,62.833 70.850 C 62.833 71.705,55.083 74.333,52.562 74.333 L 52.167 74.333 52.163 71.958 C 52.157 68.368,51.312 67.061,49.083 67.199 C 47.007 67.328,46.486 68.137,46.328 71.475 C 46.210 73.978,46.133 74.201,45.431 74.074 C 45.240 74.040,44.596 73.926,44.000 73.821 C 43.404 73.716,42.504 73.497,42.000 73.333 C 41.496 73.170,40.746 72.939,40.333 72.821 C 39.921 72.702,39.126 72.394,38.567 72.136 C 38.008 71.878,37.437 71.667,37.298 71.667 C 37.159 71.667,36.866 71.527,36.647 71.357 C 36.429 71.187,35.894 70.891,35.458 70.700 C 35.023 70.509,34.667 70.280,34.667 70.192 C 34.667 70.104,34.460 69.958,34.208 69.868 C 33.956 69.777,33.581 69.542,33.375 69.345 C 33.169 69.148,32.999 69.046,32.997 69.119 C 32.996 69.191,32.940 69.167,32.872 69.065 C 32.805 68.963,32.506 68.755,32.208 68.602 C 31.910 68.450,31.667 68.258,31.667 68.177 C 31.667 68.096,31.348 67.875,30.958 67.686 C 29.643 67.048,25.619 62.506,25.120 61.096 C 25.025 60.829,24.748 60.214,24.504 59.730 C 24.260 59.247,24.141 58.890,24.239 58.938 C 24.337 58.986,24.283 58.915,24.119 58.781 C 23.955 58.647,23.789 58.372,23.750 58.168 C 23.711 57.965,23.525 57.538,23.338 57.220 C 23.150 56.902,23.039 56.572,23.091 56.487 C 23.144 56.403,23.116 56.333,23.029 56.333 C 22.943 56.333,22.832 56.165,22.783 55.958 C 22.734 55.752,22.570 55.171,22.418 54.667 C 22.266 54.163,22.135 53.656,22.127 53.542 C 22.118 53.427,22.056 53.333,21.989 53.333 C 21.857 53.333,21.528 51.617,21.389 50.208 L 21.303 49.333 23.327 49.333 C 25.490 49.333,26.417 49.086,27.308 48.274 C 28.465 47.217,28.486 45.127,27.350 44.099 C 27.158 43.924,27.000 43.676,27.000 43.548 C 27.000 43.419,26.933 43.355,26.852 43.405 C 26.771 43.455,26.618 43.392,26.512 43.264 C 26.365 43.087,25.739 43.026,23.874 43.009 C 22.530 42.996,21.402 42.957,21.368 42.923 C 21.235 42.791,21.696 39.726,21.914 39.289 C 22.070 38.976,22.081 38.865,21.947 38.943 C 21.839 39.006,21.893 38.894,22.067 38.695 C 22.306 38.423,22.327 38.333,22.151 38.331 C 21.992 38.329,21.977 38.289,22.104 38.206 C 22.207 38.138,22.430 37.615,22.599 37.042 C 22.769 36.469,22.970 36.000,23.047 36.000 C 23.124 36.000,23.145 35.932,23.093 35.850 C 23.042 35.767,23.187 35.373,23.415 34.975 C 23.643 34.576,23.830 34.146,23.831 34.018 C 23.832 33.891,23.965 33.679,24.125 33.548 C 24.285 33.416,24.308 33.365,24.176 33.434 C 24.031 33.510,24.080 33.355,24.301 33.046 C 24.502 32.763,24.667 32.473,24.667 32.402 C 24.667 32.330,24.835 32.086,25.042 31.859 C 25.248 31.632,25.304 31.501,25.167 31.569 C 24.971 31.665,24.974 31.644,25.181 31.471 C 25.499 31.206,25.920 30.471,25.865 30.279 C 25.843 30.204,25.883 30.177,25.954 30.220 C 26.025 30.264,26.267 30.007,26.492 29.650 C 26.717 29.292,26.960 29.000,27.034 29.000 C 27.107 29.000,27.167 28.925,27.167 28.833 C 27.167 28.575,30.678 24.833,30.920 24.833 C 30.981 24.833,31.424 24.497,31.906 24.085 C 32.387 23.674,32.830 23.386,32.890 23.446 C 32.950 23.505,33.075 23.336,33.168 23.069 C 33.262 22.802,33.581 22.441,33.878 22.266 C 36.737 20.585,39.320 19.395,39.750 19.560 C 39.885 19.612,40.578 19.462,41.289 19.226 C 42.712 18.755,44.571 18.372,45.542 18.348 L 46.167 18.333 46.168 20.125 M122.321 38.208 C 122.309 57.870,122.300 58.454,122.015 59.083 C 121.859 59.426,121.628 60.019,121.592 60.167 C 121.581 60.212,121.464 60.438,121.333 60.667 C 121.202 60.896,121.092 61.133,121.089 61.194 C 121.086 61.256,121.015 61.368,120.932 61.444 C 120.841 61.527,120.836 61.482,120.918 61.333 C 120.995 61.196,120.835 61.308,120.564 61.583 C 120.292 61.858,120.104 62.158,120.145 62.250 C 120.186 62.342,120.160 62.363,120.087 62.297 C 120.014 62.231,119.747 62.324,119.493 62.505 C 119.239 62.686,118.937 62.833,118.821 62.833 C 118.705 62.833,118.460 62.965,118.276 63.125 C 118.035 63.336,117.980 63.348,118.079 63.167 C 118.190 62.963,118.174 62.956,117.991 63.125 C 117.732 63.365,115.323 63.416,115.075 63.187 C 114.988 63.106,114.617 62.944,114.250 62.827 C 113.678 62.644,112.675 61.990,112.087 61.417 C 111.994 61.325,111.735 60.913,111.512 60.500 C 111.290 60.087,111.061 59.712,111.004 59.667 C 110.947 59.621,110.810 59.274,110.700 58.897 L 110.500 58.210 109.708 58.359 C 109.273 58.441,108.692 58.545,108.417 58.591 C 107.115 58.806,106.068 59.048,105.917 59.169 C 105.747 59.304,105.458 59.367,103.458 59.703 C 102.840 59.807,102.333 59.959,102.333 60.039 C 102.333 60.120,102.250 60.135,102.148 60.072 C 102.046 60.009,101.915 60.033,101.856 60.126 C 101.798 60.219,101.263 60.360,100.667 60.439 C 99.452 60.601,99.286 60.914,99.769 62.128 C 99.888 62.428,99.992 62.707,100.000 62.750 C 100.008 62.793,100.124 63.089,100.257 63.408 C 100.391 63.728,100.500 64.064,100.500 64.156 C 100.500 64.248,100.662 64.607,100.861 64.953 C 101.059 65.300,101.332 65.801,101.468 66.066 C 101.604 66.332,101.836 66.682,101.983 66.846 C 102.424 67.336,102.601 67.576,102.625 67.718 C 102.656 67.899,104.833 70.081,104.833 69.931 C 104.833 69.866,105.040 70.006,105.292 70.243 C 105.890 70.805,107.057 71.566,106.904 71.295 C 106.838 71.178,106.946 71.249,107.143 71.452 C 107.340 71.655,107.795 71.900,108.154 71.997 C 108.514 72.093,108.832 72.242,108.862 72.327 C 108.892 72.413,109.173 72.527,109.486 72.582 C 109.799 72.636,110.129 72.727,110.220 72.783 C 110.390 72.888,110.789 72.968,111.874 73.116 C 112.217 73.163,112.461 73.261,112.416 73.334 C 112.302 73.519,113.019 73.558,116.792 73.568 C 119.860 73.577,120.704 73.527,121.333 73.301 C 121.471 73.251,122.258 73.048,123.083 72.850 C 123.908 72.651,124.608 72.416,124.639 72.328 C 124.669 72.239,124.819 72.164,124.972 72.161 C 125.125 72.158,125.392 72.048,125.566 71.917 C 125.740 71.785,125.946 71.717,126.025 71.765 C 126.103 71.813,126.167 71.769,126.167 71.667 C 126.167 71.564,126.237 71.524,126.323 71.577 C 126.409 71.630,126.540 71.578,126.615 71.462 C 126.689 71.345,126.919 71.156,127.125 71.042 C 127.331 70.927,127.666 70.740,127.869 70.625 C 128.072 70.510,128.376 70.249,128.545 70.045 C 128.714 69.840,128.904 69.690,128.968 69.710 C 129.099 69.752,131.169 67.622,131.403 67.203 C 131.487 67.053,131.803 66.606,132.105 66.211 C 132.406 65.816,132.702 65.232,132.761 64.914 C 132.821 64.596,132.929 64.373,133.002 64.418 C 133.075 64.463,133.295 63.956,133.492 63.292 C 133.689 62.627,133.895 61.971,133.950 61.833 C 134.585 60.254,134.664 57.564,134.665 37.542 L 134.667 18.500 128.500 18.500 L 122.333 18.500 122.321 38.208 M236.667 45.732 C 236.667 70.411,236.691 72.974,236.930 73.066 C 237.075 73.121,238.238 73.167,239.514 73.167 L 241.833 73.167 241.833 60.333 L 241.833 47.500 257.167 47.500 L 272.500 47.500 272.500 60.333 L 272.500 73.167 275.000 73.167 L 277.500 73.167 277.500 45.833 L 277.500 18.500 275.000 18.500 L 272.500 18.500 272.500 30.750 L 272.500 43.000 257.167 43.000 L 241.833 43.000 241.833 30.750 L 241.833 18.500 239.250 18.500 L 236.667 18.500 236.667 45.732 M380.167 28.597 L 380.167 33.992 377.208 34.038 L 374.250 34.083 374.203 36.292 L 374.157 38.500 377.162 38.500 L 380.167 38.500 380.170 50.792 C 380.173 63.735,380.292 65.999,381.004 66.667 C 381.053 66.712,381.238 67.087,381.417 67.500 C 381.595 67.912,381.818 68.305,381.912 68.372 C 382.006 68.440,382.028 68.496,381.959 68.497 C 381.805 68.501,382.349 69.146,383.353 70.148 C 384.582 71.376,384.914 71.639,385.388 71.758 C 385.633 71.819,385.833 71.941,385.833 72.028 C 385.833 72.115,385.900 72.145,385.980 72.095 C 386.061 72.045,386.305 72.142,386.522 72.311 C 386.981 72.667,389.057 73.167,390.076 73.167 C 390.462 73.167,390.834 73.223,390.903 73.292 C 390.971 73.360,391.378 73.425,391.806 73.436 C 392.344 73.449,392.481 73.415,392.250 73.323 C 392.027 73.234,392.275 73.182,393.000 73.166 C 393.596 73.153,394.233 73.113,394.417 73.077 C 394.600 73.042,394.938 72.984,395.167 72.948 C 395.654 72.873,395.943 68.850,395.463 68.820 C 395.346 68.812,394.387 68.816,393.333 68.829 C 390.959 68.857,389.254 68.524,388.258 67.839 C 387.237 67.136,386.167 66.148,386.167 65.907 C 386.167 65.795,386.054 65.659,385.917 65.606 C 385.779 65.554,385.667 65.405,385.667 65.276 C 385.667 65.146,385.541 64.750,385.388 64.395 C 385.235 64.040,385.112 63.546,385.116 63.296 C 385.119 63.046,385.057 62.882,384.977 62.931 C 384.897 62.980,384.833 57.608,384.833 50.760 L 384.833 38.500 390.250 38.500 L 395.667 38.500 395.667 36.250 C 395.667 35.013,395.610 34.009,395.542 34.020 C 395.473 34.031,393.035 34.031,390.125 34.020 L 384.833 34.000 384.833 28.684 C 384.833 22.474,385.150 23.142,382.218 23.177 L 380.167 23.202 380.167 28.597 M46.250 33.571 C 44.492 34.026,43.736 34.326,42.635 35.004 C 42.191 35.277,41.672 35.500,41.481 35.500 C 41.290 35.500,40.924 35.725,40.667 36.000 C 40.410 36.275,40.098 36.501,39.975 36.503 C 39.789 36.505,39.790 36.531,39.979 36.650 C 40.159 36.764,40.066 36.954,39.553 37.523 C 39.192 37.923,38.657 38.625,38.364 39.083 C 38.070 39.542,37.606 40.172,37.332 40.484 C 37.058 40.797,36.824 41.172,36.814 41.318 C 36.803 41.464,36.777 41.808,36.757 42.083 C 36.680 43.115,36.127 46.089,35.983 46.242 C 35.780 46.457,35.793 47.167,36.000 47.167 C 36.092 47.167,36.167 47.355,36.167 47.586 C 36.167 47.816,36.239 48.135,36.328 48.294 C 36.417 48.453,36.603 49.054,36.742 49.629 C 38.847 58.329,49.401 61.895,57.095 56.506 C 57.623 56.136,58.117 55.833,58.192 55.833 C 58.431 55.833,58.987 55.280,58.896 55.133 C 58.848 55.055,58.905 55.012,59.023 55.038 C 59.141 55.063,59.248 54.918,59.262 54.712 C 59.276 54.509,59.473 54.096,59.699 53.796 C 66.806 44.379,57.655 30.619,46.250 33.571 M159.301 33.582 C 159.273 33.606,158.691 33.678,158.009 33.740 C 157.326 33.803,156.688 33.904,156.592 33.964 C 156.496 34.025,156.342 34.079,156.250 34.085 C 156.158 34.091,155.671 34.229,155.167 34.392 C 154.662 34.556,154.064 34.726,153.837 34.771 C 153.610 34.817,153.376 34.931,153.318 35.024 C 153.260 35.118,153.146 35.198,153.065 35.201 C 152.983 35.204,152.748 35.273,152.542 35.353 C 152.335 35.434,151.974 35.575,151.739 35.667 C 151.503 35.759,151.072 36.012,150.780 36.231 C 150.489 36.449,150.081 36.679,149.875 36.742 C 149.668 36.805,149.422 37.001,149.327 37.178 C 149.232 37.355,149.047 37.500,148.915 37.500 C 148.782 37.500,148.551 37.688,148.401 37.917 C 148.251 38.146,148.059 38.333,147.974 38.333 C 147.795 38.333,146.167 39.955,146.167 40.133 C 146.167 40.199,146.011 40.350,145.821 40.469 C 145.631 40.588,145.367 40.943,145.235 41.259 C 145.103 41.575,144.955 41.833,144.905 41.833 C 144.855 41.833,144.860 41.758,144.917 41.667 C 144.973 41.575,144.977 41.500,144.925 41.500 C 144.873 41.500,144.662 41.827,144.457 42.227 C 143.323 44.436,142.925 45.297,143.078 45.208 C 143.173 45.154,143.100 45.280,142.917 45.489 C 142.733 45.698,142.611 45.879,142.644 45.892 C 142.677 45.906,142.583 46.324,142.435 46.822 C 142.288 47.320,142.167 47.901,142.167 48.114 C 142.167 48.326,142.096 48.500,142.010 48.500 C 141.924 48.500,141.852 48.631,141.850 48.792 C 141.848 48.952,141.763 49.833,141.660 50.750 C 141.481 52.349,141.533 55.926,141.757 57.500 C 141.816 57.913,141.862 58.383,141.859 58.545 C 141.856 58.708,141.924 58.797,142.010 58.744 C 142.132 58.668,142.204 59.043,142.163 59.542 C 142.160 59.581,142.621 61.218,142.738 61.583 C 142.767 61.675,142.798 61.809,142.806 61.881 C 142.815 61.953,142.937 62.127,143.077 62.268 C 143.218 62.409,143.333 62.664,143.333 62.835 C 143.333 63.007,143.410 63.194,143.503 63.252 C 143.596 63.309,143.633 63.420,143.585 63.498 C 143.536 63.576,143.592 63.740,143.709 63.862 C 143.826 63.984,144.108 64.440,144.336 64.875 C 144.563 65.310,144.804 65.667,144.871 65.667 C 144.938 65.667,145.141 65.948,145.321 66.292 C 145.669 66.953,148.292 69.612,148.528 69.542 C 148.604 69.519,148.667 69.577,148.667 69.671 C 148.667 69.765,148.854 69.913,149.083 70.000 C 149.313 70.087,149.500 70.229,149.500 70.314 C 149.500 70.400,149.856 70.641,150.292 70.849 C 150.727 71.057,151.130 71.295,151.186 71.379 C 151.243 71.463,151.787 71.699,152.395 71.904 C 153.004 72.108,153.462 72.316,153.413 72.365 C 153.365 72.413,154.058 72.623,154.954 72.830 C 155.850 73.037,156.763 73.291,156.984 73.395 C 157.526 73.650,165.630 73.658,165.798 73.403 C 165.863 73.304,166.704 73.061,167.666 72.862 C 168.629 72.664,169.441 72.426,169.472 72.334 C 169.503 72.242,169.621 72.167,169.736 72.167 C 170.001 72.167,171.973 71.352,171.750 71.334 C 171.658 71.327,171.996 71.124,172.500 70.883 C 173.004 70.642,173.477 70.344,173.550 70.222 C 173.623 70.100,173.759 70.000,173.851 70.000 C 173.943 70.000,174.258 69.775,174.551 69.500 C 174.844 69.224,175.215 68.957,175.375 68.905 C 175.535 68.853,175.667 68.703,175.667 68.572 C 175.667 68.441,175.723 68.352,175.792 68.374 C 175.978 68.435,177.833 66.469,177.833 66.211 C 177.833 66.089,177.949 65.945,178.089 65.891 C 178.230 65.837,178.466 65.558,178.613 65.271 C 178.760 64.985,178.949 64.705,179.034 64.650 C 179.119 64.595,179.205 64.437,179.226 64.300 C 179.246 64.163,179.391 63.854,179.548 63.614 C 179.705 63.375,179.833 63.101,179.833 63.006 C 179.833 62.911,179.913 62.833,180.011 62.833 C 180.113 62.833,180.144 62.691,180.083 62.500 C 180.025 62.317,180.053 62.167,180.144 62.167 C 180.347 62.167,180.501 61.768,180.740 60.625 C 180.812 60.281,180.950 60.000,181.046 60.000 C 181.143 60.000,181.173 59.951,181.113 59.890 C 181.052 59.830,181.086 59.680,181.189 59.557 C 181.312 59.409,181.316 59.333,181.200 59.333 C 181.091 59.333,181.111 59.161,181.252 58.875 C 181.952 57.457,181.886 48.659,181.170 47.938 C 181.091 47.858,181.066 47.688,181.115 47.561 C 181.164 47.433,181.131 47.236,181.042 47.123 C 180.953 47.009,180.719 46.379,180.522 45.722 C 180.326 45.065,180.087 44.501,179.990 44.469 C 179.894 44.437,179.799 44.299,179.779 44.164 C 179.712 43.714,179.295 42.833,179.149 42.833 C 179.069 42.833,178.895 42.572,178.761 42.252 C 178.628 41.932,178.330 41.482,178.100 41.252 C 177.870 41.022,177.727 40.833,177.783 40.833 C 177.839 40.833,177.718 40.689,177.515 40.513 C 177.311 40.336,177.145 40.153,177.146 40.106 C 177.146 40.058,176.651 39.514,176.044 38.896 C 175.438 38.277,175.006 37.879,175.083 38.011 C 175.161 38.142,175.014 38.044,174.756 37.792 C 174.499 37.540,174.188 37.333,174.066 37.333 C 173.945 37.333,173.770 37.194,173.679 37.023 C 173.588 36.852,173.266 36.613,172.965 36.491 C 172.663 36.369,172.379 36.222,172.333 36.165 C 172.176 35.968,170.728 35.333,170.438 35.333 C 170.278 35.333,170.186 35.270,170.235 35.192 C 170.314 35.064,170.103 34.978,168.667 34.556 C 168.080 34.383,168.049 34.377,167.573 34.354 C 167.293 34.340,167.188 34.266,167.268 34.138 C 167.350 34.004,167.294 33.979,167.090 34.058 C 166.925 34.121,166.707 34.102,166.603 34.017 C 166.201 33.683,159.631 33.292,159.301 33.582 M348.125 33.711 C 347.323 33.801,346.667 33.944,346.667 34.030 C 346.667 34.116,346.588 34.138,346.493 34.079 C 346.397 34.020,346.228 34.042,346.118 34.129 C 346.007 34.216,345.696 34.340,345.427 34.405 C 345.157 34.469,344.727 34.672,344.470 34.855 C 344.213 35.038,343.927 35.141,343.834 35.084 C 343.742 35.027,343.667 35.045,343.667 35.125 C 343.667 35.204,343.366 35.402,342.999 35.564 C 342.632 35.726,342.254 36.003,342.160 36.179 C 342.066 36.356,341.891 36.500,341.771 36.500 C 341.539 36.500,340.057 37.997,340.282 38.004 C 340.356 38.006,340.263 38.137,340.075 38.295 C 339.699 38.612,338.751 39.851,338.751 40.028 C 338.750 40.089,338.694 40.195,338.625 40.264 C 338.556 40.333,338.493 39.795,338.484 39.069 C 338.474 38.344,338.445 37.375,338.419 36.917 C 338.393 36.458,338.363 35.619,338.352 35.052 L 338.333 34.021 336.083 34.021 L 333.833 34.021 333.833 53.594 L 333.833 73.167 335.986 73.167 C 337.171 73.167,338.258 73.121,338.403 73.066 C 338.640 72.975,338.667 71.802,338.668 61.524 C 338.669 50.702,338.738 47.755,338.989 47.910 C 339.049 47.947,339.109 47.813,339.122 47.613 C 339.170 46.912,339.882 44.500,340.042 44.500 C 340.130 44.500,340.159 44.387,340.106 44.250 C 340.054 44.112,340.075 44.000,340.153 44.000 C 340.231 44.000,340.428 43.719,340.591 43.375 C 340.754 43.031,341.006 42.651,341.152 42.529 C 341.298 42.408,341.323 42.356,341.208 42.414 C 341.094 42.472,341.000 42.493,341.000 42.460 C 341.000 42.310,342.931 40.423,343.046 40.461 C 343.118 40.484,343.221 40.387,343.275 40.244 C 343.330 40.102,343.684 39.829,344.062 39.637 C 344.441 39.445,344.787 39.242,344.833 39.186 C 344.963 39.026,345.714 38.667,346.083 38.589 C 346.267 38.550,346.660 38.444,346.958 38.354 C 347.256 38.264,347.501 38.241,347.503 38.303 C 347.504 38.366,347.576 38.305,347.662 38.168 C 347.893 37.803,352.474 37.802,352.923 38.167 C 353.196 38.389,353.214 38.389,353.083 38.167 C 352.958 37.953,352.976 37.949,353.211 38.139 C 353.362 38.262,353.557 38.318,353.645 38.263 C 353.733 38.209,353.830 38.238,353.861 38.327 C 353.892 38.417,354.104 38.524,354.333 38.566 C 354.563 38.608,354.750 38.653,354.750 38.667 C 354.750 38.681,354.865 38.715,355.004 38.743 C 355.226 38.786,356.264 39.411,356.750 39.793 C 357.807 40.624,358.500 41.273,358.500 41.433 C 358.500 41.540,358.669 41.739,358.875 41.874 C 359.082 42.010,359.389 42.506,359.559 42.976 C 359.728 43.447,359.923 43.797,359.993 43.755 C 360.096 43.691,360.773 45.905,360.893 46.701 C 360.911 46.819,360.999 47.029,361.088 47.167 C 361.188 47.321,361.267 52.245,361.294 60.083 C 361.319 67.050,361.373 72.844,361.414 72.958 C 361.470 73.112,362.109 73.167,363.830 73.167 L 366.170 73.167 366.165 60.263 C 366.161 53.165,366.095 47.334,366.018 47.304 C 365.940 47.274,365.831 46.826,365.776 46.307 C 365.609 44.745,365.464 43.998,365.309 43.901 C 365.228 43.851,365.206 43.737,365.262 43.648 C 365.317 43.559,365.271 43.376,365.161 43.243 C 365.050 43.109,365.017 43.000,365.089 43.000 C 365.160 43.000,365.096 42.865,364.946 42.700 C 364.797 42.534,364.649 42.231,364.618 42.025 C 364.586 41.819,364.435 41.504,364.282 41.325 C 364.092 41.103,364.069 40.998,364.210 40.995 C 364.345 40.991,364.325 40.919,364.152 40.786 C 363.869 40.569,363.411 39.817,363.457 39.647 C 363.473 39.590,363.226 39.253,362.909 38.897 C 362.593 38.541,362.334 38.181,362.333 38.097 C 362.333 38.013,362.286 37.992,362.228 38.050 C 362.169 38.108,361.901 37.877,361.630 37.536 C 361.360 37.196,361.014 36.847,360.861 36.763 C 360.708 36.678,360.484 36.471,360.364 36.302 C 360.243 36.133,360.082 36.033,360.006 36.080 C 359.930 36.126,359.823 36.048,359.769 35.905 C 359.714 35.762,359.593 35.692,359.501 35.749 C 359.409 35.806,359.333 35.782,359.333 35.695 C 359.333 35.607,359.146 35.489,358.917 35.432 C 358.688 35.374,358.500 35.256,358.500 35.169 C 358.500 35.082,358.375 35.058,358.223 35.117 C 358.052 35.182,357.987 35.157,358.052 35.050 C 358.116 34.948,357.769 34.756,357.205 34.582 C 356.680 34.420,356.154 34.212,356.038 34.120 C 355.921 34.028,355.778 34.000,355.720 34.058 C 355.662 34.116,355.527 34.092,355.421 34.004 C 354.896 33.568,350.862 33.406,348.125 33.711 M289.573 34.399 C 289.428 34.977,289.590 59.657,289.742 60.167 C 289.811 60.396,289.868 60.827,289.870 61.125 C 289.871 61.423,289.930 61.667,290.001 61.667 C 290.071 61.667,290.178 62.023,290.238 62.458 C 290.393 63.571,290.841 65.030,291.136 65.375 C 291.273 65.535,291.333 65.667,291.270 65.667 C 291.207 65.667,291.248 65.835,291.361 66.042 C 291.475 66.248,291.582 66.506,291.601 66.614 C 291.619 66.723,291.791 66.981,291.984 67.188 C 292.176 67.394,292.333 67.645,292.333 67.746 C 292.333 68.057,294.757 70.750,295.036 70.750 C 295.118 70.750,295.349 70.906,295.551 71.096 C 295.752 71.286,296.179 71.578,296.500 71.744 C 296.821 71.911,297.196 72.112,297.333 72.191 C 298.080 72.619,299.868 73.167,300.518 73.167 C 300.702 73.167,300.813 73.231,300.764 73.311 C 300.631 73.527,302.147 73.664,304.667 73.664 C 307.100 73.664,308.703 73.528,308.582 73.331 C 308.540 73.264,308.823 73.150,309.211 73.079 C 310.047 72.925,309.898 72.962,310.864 72.670 C 311.294 72.540,311.608 72.373,311.563 72.300 C 311.487 72.178,311.736 72.099,312.042 72.147 C 312.110 72.158,312.167 72.079,312.167 71.972 C 312.167 71.865,312.209 71.821,312.262 71.873 C 312.458 72.069,313.264 71.504,314.397 70.375 C 314.696 70.077,315.029 69.833,315.137 69.833 C 315.245 69.833,315.333 69.755,315.333 69.659 C 315.333 69.563,315.502 69.311,315.708 69.098 C 316.149 68.643,316.441 68.220,316.657 67.725 C 316.798 67.399,317.131 67.071,317.191 67.198 C 317.204 67.227,317.260 68.563,317.316 70.167 L 317.417 73.083 319.625 73.130 L 321.833 73.176 321.833 53.598 L 321.833 34.020 319.500 34.020 L 317.167 34.020 317.167 45.334 C 317.167 53.300,317.113 56.680,316.985 56.759 C 316.886 56.821,316.840 57.007,316.883 57.172 C 316.926 57.338,316.903 57.798,316.832 58.195 C 316.760 58.592,316.654 59.329,316.596 59.833 C 316.481 60.826,316.173 61.853,315.939 62.022 C 315.858 62.081,315.828 62.231,315.870 62.356 C 315.913 62.481,315.771 62.865,315.555 63.208 C 315.339 63.552,315.197 63.833,315.240 63.833 C 315.283 63.833,315.135 64.030,314.912 64.271 C 314.689 64.512,314.544 64.769,314.590 64.843 C 314.635 64.918,314.411 65.178,314.092 65.422 C 313.772 65.665,313.527 65.945,313.547 66.044 C 313.567 66.142,313.414 66.311,313.207 66.419 C 313.000 66.527,312.588 66.837,312.290 67.107 C 311.777 67.574,311.335 67.831,310.878 67.927 C 310.766 67.950,310.554 68.089,310.408 68.235 C 310.263 68.380,309.942 68.541,309.697 68.592 C 309.451 68.644,308.950 68.757,308.583 68.845 C 308.217 68.933,307.767 69.024,307.583 69.049 C 307.400 69.073,307.145 69.159,307.016 69.239 C 306.843 69.347,306.817 69.324,306.915 69.151 C 307.023 68.961,307.006 68.956,306.824 69.125 C 306.583 69.349,303.511 69.434,303.734 69.210 C 303.802 69.143,303.308 69.000,302.637 68.894 C 301.966 68.787,301.304 68.669,301.167 68.632 C 300.447 68.434,300.167 68.293,300.167 68.128 C 300.167 68.027,300.119 67.992,300.060 68.051 C 300.002 68.109,299.750 68.011,299.500 67.833 C 299.250 67.655,299.004 67.552,298.953 67.603 C 298.902 67.654,298.733 67.502,298.577 67.264 C 298.422 67.027,298.191 66.833,298.064 66.833 C 297.937 66.833,297.833 66.767,297.833 66.686 C 297.833 66.605,297.533 66.239,297.167 65.873 C 296.800 65.506,296.500 65.122,296.500 65.020 C 296.500 64.917,296.421 64.833,296.323 64.833 C 296.226 64.833,296.194 64.758,296.251 64.665 C 296.308 64.573,296.241 64.454,296.101 64.401 C 295.962 64.347,295.730 63.898,295.586 63.402 C 295.442 62.906,295.258 62.500,295.178 62.500 C 295.097 62.500,295.072 62.342,295.123 62.150 C 295.173 61.957,295.139 61.751,295.047 61.691 C 294.518 61.350,294.433 59.447,294.375 46.725 L 294.318 34.033 291.997 34.009 L 289.677 33.986 289.573 34.399 M162.333 44.156 C 162.333 44.242,162.465 44.306,162.625 44.298 C 163.120 44.273,165.339 45.023,165.240 45.183 C 165.189 45.266,165.230 45.333,165.331 45.333 C 165.532 45.333,165.696 45.458,166.675 46.349 C 167.037 46.679,167.333 47.027,167.333 47.123 C 167.333 47.220,167.521 47.475,167.750 47.691 C 167.979 47.907,168.249 48.383,168.349 48.750 C 168.449 49.117,168.635 49.533,168.762 49.676 C 168.889 49.819,168.961 50.102,168.922 50.306 C 168.883 50.509,168.915 50.636,168.993 50.588 C 169.206 50.456,169.393 53.527,169.265 55.062 C 169.202 55.814,169.064 56.462,168.951 56.534 C 168.841 56.604,168.805 56.663,168.871 56.664 C 169.011 56.667,168.187 59.041,168.002 59.167 C 167.935 59.212,167.764 59.475,167.623 59.750 C 167.481 60.025,167.131 60.423,166.845 60.633 C 166.558 60.844,166.361 61.076,166.406 61.149 C 166.509 61.315,164.255 62.606,163.583 62.766 C 163.308 62.831,163.028 62.967,162.961 63.067 C 162.878 63.191,162.838 63.180,162.836 63.032 C 162.834 62.912,162.750 62.865,162.648 62.928 C 161.877 63.405,158.531 62.759,157.576 61.949 C 156.493 61.031,155.891 60.366,155.583 59.750 C 155.400 59.383,155.175 59.028,155.083 58.961 C 154.972 58.879,154.972 58.837,155.083 58.833 C 155.176 58.830,155.167 58.774,155.062 58.706 C 153.994 58.011,153.946 49.066,155.008 48.694 C 155.095 48.664,155.168 48.514,155.170 48.361 C 155.172 48.208,155.321 47.896,155.500 47.667 C 155.679 47.438,155.828 47.173,155.830 47.078 C 155.832 46.983,156.179 46.608,156.601 46.245 C 157.023 45.881,157.588 45.377,157.856 45.125 C 158.125 44.873,158.455 44.667,158.589 44.667 C 158.960 44.667,158.953 44.668,159.623 44.435 C 159.968 44.315,160.344 44.249,160.458 44.289 C 160.573 44.329,160.667 44.280,160.667 44.181 C 160.667 44.075,161.013 44.000,161.500 44.000 C 161.958 44.000,162.333 44.070,162.333 44.156 M208.833 44.414 C 210.161 44.636,210.244 44.656,210.667 44.872 C 210.896 44.988,211.229 45.215,211.406 45.375 C 211.584 45.535,211.802 45.667,211.891 45.667 C 212.108 45.667,213.428 47.028,213.375 47.198 C 213.352 47.273,213.408 47.333,213.500 47.333 C 213.592 47.333,213.667 47.450,213.667 47.593 C 213.667 47.736,213.725 47.817,213.795 47.774 C 213.908 47.704,214.051 47.998,214.592 49.417 C 214.662 49.600,214.708 49.806,214.693 49.875 C 214.679 49.944,214.735 50.000,214.819 50.000 C 214.902 50.000,214.949 50.131,214.923 50.292 C 214.897 50.452,214.960 50.689,215.063 50.817 C 215.340 51.163,215.320 56.366,215.042 56.458 C 214.927 56.497,214.833 56.647,214.833 56.794 C 214.833 57.315,214.151 59.167,213.959 59.167 C 213.890 59.167,213.833 59.274,213.833 59.405 C 213.833 59.745,212.199 61.361,211.469 61.743 C 211.130 61.920,210.899 62.144,210.954 62.241 C 211.009 62.338,210.992 62.361,210.917 62.293 C 210.842 62.225,210.696 62.240,210.592 62.326 C 209.775 63.004,205.146 62.837,204.412 62.103 C 204.264 61.954,204.030 61.833,203.893 61.833 C 203.755 61.833,203.264 61.451,202.801 60.983 C 202.338 60.515,202.018 60.234,202.090 60.358 C 202.161 60.482,202.177 60.546,202.124 60.500 C 202.071 60.454,202.013 60.342,201.996 60.250 C 201.978 60.158,201.822 59.884,201.648 59.641 C 201.475 59.398,201.333 59.116,201.333 59.016 C 201.333 58.916,201.254 58.833,201.157 58.833 C 201.060 58.833,201.027 58.758,201.083 58.667 C 201.140 58.575,201.125 58.500,201.051 58.500 C 200.873 58.500,200.559 57.737,200.432 57.000 C 200.377 56.679,200.293 56.229,200.245 56.000 C 200.118 55.390,200.103 51.820,200.225 51.333 C 200.283 51.104,200.360 50.729,200.397 50.500 C 200.529 49.680,200.848 48.667,200.976 48.667 C 201.087 48.667,201.708 47.579,201.739 47.329 C 201.804 46.814,204.385 44.951,205.417 44.674 C 205.875 44.551,206.302 44.406,206.367 44.350 C 206.519 44.220,207.880 44.255,208.833 44.414 "
              stroke="none" fill="#1c1c1c" fill-rule="evenodd"/>
        <path id="path2"
              d="M33.583 22.598 L 33.083 23.028 33.625 22.669 C 33.923 22.472,34.167 22.278,34.167 22.239 C 34.167 22.114,34.096 22.157,33.583 22.598 M46.338 23.465 C 46.336 23.583,46.615 23.961,46.958 24.305 C 47.306 24.654,47.390 24.707,47.147 24.424 C 46.907 24.145,46.628 23.767,46.527 23.583 C 46.426 23.400,46.341 23.347,46.338 23.465 M48.795 33.121 C 49.094 33.158,49.544 33.157,49.795 33.119 C 50.045 33.081,49.800 33.051,49.250 33.052 C 48.700 33.053,48.495 33.084,48.795 33.121 M53.167 33.750 C 53.928 34.043,54.227 34.039,53.583 33.744 C 53.308 33.618,52.971 33.517,52.833 33.520 C 52.696 33.523,52.846 33.626,53.167 33.750 M55.000 34.408 C 55.000 34.454,55.225 34.608,55.500 34.750 C 55.775 34.892,56.000 34.971,56.000 34.925 C 56.000 34.879,55.775 34.726,55.500 34.583 C 55.225 34.441,55.000 34.362,55.000 34.408 M42.625 34.762 C 42.002 35.100,42.040 35.241,42.667 34.917 C 42.942 34.774,43.167 34.623,43.167 34.579 C 43.167 34.472,43.149 34.478,42.625 34.762 M56.750 35.447 C 57.399 36.101,58.522 37.006,58.083 36.522 C 57.808 36.218,57.358 35.814,57.083 35.624 C 56.808 35.435,56.658 35.355,56.750 35.447 M38.810 38.125 C 38.331 38.704,38.127 39.000,38.210 39.000 C 38.256 39.000,38.494 38.737,38.739 38.417 C 39.193 37.821,39.248 37.597,38.810 38.125 M62.214 44.917 C 62.216 45.375,62.248 45.543,62.286 45.289 C 62.325 45.036,62.324 44.661,62.284 44.456 C 62.244 44.251,62.213 44.458,62.214 44.917 M28.372 46.167 C 28.372 46.487,28.406 46.619,28.448 46.458 C 28.490 46.298,28.490 46.035,28.448 45.875 C 28.406 45.715,28.372 45.846,28.372 46.167 M62.212 47.500 C 62.212 47.913,62.245 48.081,62.284 47.875 C 62.324 47.669,62.324 47.331,62.284 47.125 C 62.245 46.919,62.212 47.087,62.212 47.500 M61.360 50.924 C 61.081 51.537,61.134 51.667,61.436 51.110 C 61.577 50.850,61.662 50.606,61.623 50.568 C 61.585 50.530,61.467 50.690,61.360 50.924 M39.750 55.333 C 40.108 55.700,40.438 56.000,40.484 56.000 C 40.530 56.000,40.275 55.700,39.917 55.333 C 39.559 54.967,39.228 54.667,39.182 54.667 C 39.137 54.667,39.392 54.967,39.750 55.333 M57.083 56.598 L 56.583 57.028 57.125 56.669 C 57.423 56.472,57.667 56.278,57.667 56.239 C 57.667 56.114,57.596 56.157,57.083 56.598 M53.250 58.589 C 52.833 58.790,52.819 58.813,53.167 58.728 C 53.639 58.613,54.170 58.342,53.917 58.346 C 53.825 58.347,53.525 58.457,53.250 58.589 M48.542 59.288 C 48.885 59.324,49.448 59.324,49.792 59.288 C 50.135 59.252,49.854 59.223,49.167 59.223 C 48.479 59.223,48.198 59.252,48.542 59.288 M25.173 61.083 C 25.174 61.175,25.327 61.438,25.515 61.667 C 25.741 61.943,25.798 61.971,25.683 61.750 C 25.402 61.206,25.172 60.905,25.173 61.083 M27.289 64.083 C 27.571 64.450,28.051 64.975,28.356 65.250 C 28.677 65.540,28.567 65.365,28.095 64.833 C 26.958 63.554,26.688 63.302,27.289 64.083 M52.233 71.917 C 52.234 73.292,52.259 73.832,52.291 73.117 C 52.322 72.403,52.322 71.278,52.290 70.617 C 52.259 69.957,52.233 70.542,52.233 71.917 M58.250 72.923 C 57.833 73.123,57.819 73.146,58.167 73.062 C 58.639 72.946,59.170 72.676,58.917 72.679 C 58.825 72.681,58.525 72.790,58.250 72.923 M53.833 74.000 C 53.273 74.179,53.878 74.179,54.583 74.000 C 55.032 73.886,55.041 73.872,54.667 73.870 C 54.438 73.868,54.063 73.927,53.833 74.000 "
              stroke="none" fill="#2c2c2c" fill-rule="evenodd"/>
        <path id="path3"
              d="M36.792 20.595 C 36.169 20.933,36.207 21.074,36.833 20.750 C 37.108 20.608,37.333 20.456,37.333 20.412 C 37.333 20.305,37.315 20.311,36.792 20.595 M48.960 25.285 C 49.168 25.324,49.468 25.323,49.627 25.281 C 49.786 25.239,49.617 25.207,49.250 25.209 C 48.883 25.211,48.753 25.245,48.960 25.285 M28.212 46.167 C 28.212 46.579,28.245 46.748,28.284 46.542 C 28.324 46.335,28.324 45.998,28.284 45.792 C 28.245 45.585,28.212 45.754,28.212 46.167 M62.209 46.250 C 62.211 46.617,62.245 46.747,62.285 46.540 C 62.324 46.332,62.323 46.032,62.281 45.873 C 62.239 45.714,62.207 45.883,62.209 46.250 M61.519 50.185 C 61.416 50.480,61.361 50.750,61.397 50.786 C 61.432 50.821,61.545 50.609,61.648 50.315 C 61.751 50.020,61.806 49.750,61.770 49.714 C 61.734 49.679,61.621 49.891,61.519 50.185 M28.083 65.167 C 28.441 65.533,28.772 65.833,28.818 65.833 C 28.863 65.833,28.608 65.533,28.250 65.167 C 27.892 64.800,27.562 64.500,27.516 64.500 C 27.470 64.500,27.725 64.800,28.083 65.167 M29.333 66.385 C 29.333 66.414,29.577 66.658,29.875 66.927 L 30.417 67.417 29.927 66.875 C 29.471 66.370,29.333 66.257,29.333 66.385 M48.875 67.115 C 49.035 67.157,49.298 67.157,49.458 67.115 C 49.619 67.073,49.487 67.039,49.167 67.039 C 48.846 67.039,48.715 67.073,48.875 67.115 M50.583 67.440 C 51.432 68.193,51.745 68.413,51.417 68.026 C 51.236 67.811,50.936 67.559,50.752 67.464 C 50.568 67.370,50.492 67.359,50.583 67.440 M46.228 71.500 C 46.228 72.462,46.256 72.856,46.290 72.375 C 46.323 71.894,46.323 71.106,46.290 70.625 C 46.256 70.144,46.228 70.537,46.228 71.500 "
              stroke="none" fill="#242424" fill-rule="evenodd"/>
        <path id="path4" d="" stroke="none" fill="#201c2c" fill-rule="evenodd"/>
    </g>
</svg>